{"glyphs":{"0":{"ha":800,"x_min":46,"x_max":917,"o":"m 214 -12 l 214 -12 q 161 -8 186 -12 l 161 -8 q 46 156 46 7 l 46 156 q 154 478 46 301 l 154 478 q 346 694 221 589 l 346 694 q 588 853 465 797 l 588 853 q 582 864 582 858 l 582 864 q 604 878 582 874 q 661 879 626 882 l 661 879 q 768 893 701 893 l 768 893 q 872 854 872 893 l 872 854 q 844 846 869 835 l 844 846 q 760 861 799 863 l 760 861 q 839 813 803 847 l 839 813 q 917 625 917 739 l 917 625 q 854 406 917 521 l 854 406 q 692 201 794 292 l 692 201 q 214 -12 451 -12 z m 178 22 l 178 22 q 626 226 375 6 l 626 226 q 843 640 843 417 l 843 640 q 799 782 843 746 l 799 782 q 671 846 731 835 l 671 846 q 399 669 542 806 l 399 669 q 224 460 293 567 l 224 460 q 110 133 110 283 l 110 133 q 178 22 110 28 z "},"1":{"ha":485,"x_min":-1,"x_max":671,"o":"m 25 -31 l 25 -31 q 6 -22 14 -35 q -1 6 -1 -10 l -1 6 q 11 31 -1 26 l 11 31 q 70 54 35 42 q 151 82 106 67 l 151 82 q 295 346 208 188 q 500 717 382 504 l 500 717 q 306 625 424 669 l 306 625 q 285 639 285 617 l 285 639 q 297 657 285 651 l 297 657 q 560 824 392 693 l 560 824 l 568 838 q 631 864 582 864 l 631 864 q 671 843 671 864 l 671 843 q 667 832 671 839 l 667 832 l 219 93 q 418 110 314 110 l 418 110 q 433 94 433 110 l 433 94 q 413 75 433 75 l 413 75 q 214 42 321 75 l 214 42 q 146 17 193 35 q 25 -31 99 -1 z "},"2":{"ha":900,"x_min":0,"x_max":1000,"o":"m 725 -68 l 725 -68 q 524 -28 640 -68 l 524 -28 l 331 42 q 226 61 265 61 l 226 61 q 159 33 200 49 q 63 -3 118 17 l 63 -3 q 33 -7 46 -7 l 33 -7 q 0 18 0 -7 l 0 18 q 36 76 0 49 l 36 76 q 103 104 69 99 l 103 104 q 165 111 131 110 q 238 110 199 113 l 238 110 q 663 385 563 306 l 663 385 q 804 517 757 458 l 804 517 q 883 683 869 594 l 883 683 q 885 696 885 690 q 886 707 886 701 l 886 707 q 792 782 886 782 l 792 782 q 563 719 700 782 l 563 719 q 363 596 438 663 l 363 596 q 350 590 357 590 l 350 590 q 336 607 336 590 l 336 607 q 344 624 336 618 l 344 624 q 592 774 440 706 l 592 774 q 872 847 758 847 l 872 847 q 1000 749 1000 847 l 1000 749 q 999 734 1000 742 q 997 718 999 726 l 997 718 q 871 510 981 621 l 871 510 q 792 438 840 479 q 678 343 743 396 l 678 343 q 274 93 532 229 l 274 93 q 490 35 335 88 l 490 35 q 733 -15 639 -15 l 733 -15 q 835 6 788 -15 l 835 6 q 896 79 896 31 l 896 79 q 811 165 896 135 l 811 165 q 800 176 800 169 l 800 176 q 824 188 800 194 l 824 188 q 939 76 939 154 l 939 76 q 861 -33 939 11 l 861 -33 q 725 -68 797 -68 z "},"3":{"ha":997,"x_min":44,"x_max":1042,"o":"m 354 -14 l 354 -14 q 135 28 218 -14 l 135 28 q 44 153 44 72 l 44 153 q 71 244 44 196 l 71 244 q 208 351 106 307 l 208 351 q 360 388 296 388 l 360 388 q 376 376 376 388 l 376 376 q 357 363 376 363 l 357 363 q 243 321 313 363 l 243 321 q 151 224 165 272 l 151 224 q 147 199 149 211 q 144 176 144 188 l 144 176 q 310 26 144 56 l 310 26 q 644 76 471 -3 l 644 76 q 907 336 839 167 l 907 336 q 917 383 917 360 l 917 383 q 854 465 917 439 l 854 465 q 721 489 800 489 l 721 489 q 585 468 639 489 l 585 468 q 558 463 572 463 l 558 463 q 533 486 533 463 l 533 486 q 544 515 533 501 q 574 528 556 528 l 574 528 q 797 568 693 528 l 797 568 q 947 717 931 621 l 947 717 q 949 726 949 722 q 949 735 949 731 l 949 735 q 869 794 949 794 l 869 794 q 700 757 800 794 l 700 757 q 546 682 611 724 l 546 682 q 536 678 540 678 l 536 678 q 526 696 526 678 l 526 696 q 553 743 526 738 l 553 743 q 654 818 585 753 l 654 818 q 669 824 663 826 l 669 824 q 676 814 676 821 l 676 814 q 668 797 676 806 l 668 797 q 657 786 664 794 l 657 786 q 906 850 806 850 l 906 850 q 1036 724 1042 850 l 1036 724 q 788 528 1029 603 l 788 528 q 997 381 997 506 l 997 381 q 992 342 997 360 l 992 342 q 746 75 950 178 l 746 75 q 354 -14 567 -14 z "},"4":{"ha":789,"x_min":18,"x_max":950,"o":"m 471 -112 l 471 -112 q 458 -110 465 -112 q 449 -104 451 -108 l 449 -104 q 428 13 425 -51 q 451 140 432 76 q 492 258 471 204 l 492 258 q 397 281 440 274 q 317 289 353 289 l 317 289 q 57 219 225 289 l 57 219 q 29 228 40 214 q 18 263 18 243 l 18 263 q 49 308 18 299 l 49 308 q 81 318 63 314 q 126 328 100 322 l 126 328 q 265 415 192 364 q 413 521 339 467 q 550 615 486 575 l 550 615 q 759 757 681 697 q 864 854 838 817 l 864 854 l 867 858 l 879 878 q 903 888 886 888 l 903 888 q 950 861 950 888 l 950 861 q 947 856 950 858 l 947 856 l 703 504 q 651 424 679 468 q 599 340 622 379 q 564 283 575 301 l 564 283 q 728 250 663 250 l 728 250 q 799 274 767 250 l 799 274 q 839 354 839 307 l 839 354 q 835 383 839 369 l 835 383 q 846 404 831 404 l 846 404 q 865 390 858 404 l 865 390 q 892 306 892 343 l 892 306 q 722 211 892 211 l 722 211 q 542 244 650 211 l 542 244 q 502 147 522 206 q 476 29 482 89 q 490 -75 469 -31 l 490 -75 q 493 -87 493 -83 l 493 -87 q 471 -112 493 -112 z m 511 304 l 511 304 q 564 402 528 340 q 647 537 600 464 q 740 678 693 610 l 740 678 l 772 725 q 631 632 717 692 q 442 497 546 572 q 225 342 339 422 l 225 342 q 283 347 260 346 q 321 349 307 349 l 321 349 q 511 304 394 349 z "},"5":{"ha":919,"x_min":-46,"x_max":1101,"o":"m 428 767 l 428 767 q 415 774 418 760 q 414 813 411 788 l 414 813 q 426 846 417 840 l 426 846 q 497 874 458 869 l 497 874 q 524 876 506 875 q 574 876 543 876 l 574 876 q 655 867 607 876 q 767 840 703 858 l 767 840 q 878 813 831 822 q 960 804 926 804 l 960 804 q 1022 821 988 804 l 1022 821 q 1068 878 1068 844 l 1068 878 q 1085 899 1068 899 l 1085 899 q 1101 863 1101 899 l 1101 863 q 1039 788 1101 815 l 1039 788 q 951 769 997 769 l 951 769 q 869 774 917 769 q 761 788 822 778 l 761 788 q 653 801 701 797 q 569 806 606 806 l 569 806 q 428 767 479 806 z m 214 -11 l 214 -11 q 27 22 100 -15 q -46 128 -46 60 l -46 128 q 44 285 -46 199 l 44 285 q 71 299 58 299 l 71 299 q 81 289 81 299 l 81 289 q 67 264 81 278 l 67 264 q 17 167 17 217 l 17 167 q 81 69 17 108 l 81 69 q 231 31 144 31 l 231 31 q 565 149 396 31 l 565 149 q 774 426 742 271 l 774 426 q 776 440 775 433 q 776 454 776 447 l 776 454 q 690 560 776 524 l 690 560 q 553 581 626 583 l 553 581 q 386 540 461 576 l 386 540 l 240 469 q 232 468 238 468 l 232 468 q 219 485 219 468 l 219 485 q 238 514 219 506 l 238 514 l 401 721 q 464 736 414 736 l 464 736 q 492 728 492 736 l 492 728 q 489 722 492 725 l 489 722 l 328 547 q 582 618 506 618 l 582 618 q 879 471 879 618 l 879 471 q 871 421 879 449 l 871 421 q 614 115 814 242 l 614 115 q 214 -11 425 -3 z "},"6":{"ha":850,"x_min":65,"x_max":1035,"o":"m 296 -26 l 296 -26 q 119 24 178 -26 l 119 24 q 69 151 65 69 l 69 151 q 185 406 76 269 l 185 406 q 474 643 299 549 l 474 643 q 825 806 689 760 l 825 806 q 813 809 821 807 q 800 811 804 811 l 800 811 q 794 821 793 815 l 794 821 q 810 831 797 826 q 832 835 824 836 l 832 835 l 949 842 q 1011 828 988 844 q 1035 793 1035 813 l 1035 793 q 1019 776 1035 779 l 1019 776 q 515 593 806 735 l 515 593 q 263 406 382 529 l 263 406 q 118 136 118 258 l 118 136 q 292 10 118 10 l 292 10 q 536 54 388 10 l 536 54 q 667 125 604 75 l 667 125 q 743 246 743 185 l 743 246 q 679 294 743 294 l 679 294 q 478 236 581 294 l 478 236 q 342 67 360 168 l 342 67 q 318 40 338 40 l 318 40 q 306 64 301 40 l 306 64 q 456 272 329 192 l 456 272 q 686 343 567 342 l 686 343 q 825 249 825 344 l 825 249 q 739 106 825 175 l 739 106 q 585 26 671 54 l 585 26 q 296 -26 411 -26 z "},"7":{"ha":686,"x_min":146,"x_max":979,"o":"m 193 -21 l 193 -21 q 171 -5 174 -21 q 168 28 168 11 l 168 28 q 353 382 168 175 l 353 382 q 803 803 543 597 l 803 803 q 616 826 689 818 q 510 833 543 833 l 510 833 q 329 808 390 833 l 329 808 q 219 682 250 774 l 219 682 q 182 654 208 654 l 182 654 q 156 665 167 654 q 151 693 146 676 l 151 693 l 153 701 q 156 710 156 710 l 156 710 l 181 760 q 194 810 197 794 l 194 810 q 199 842 193 824 l 199 842 q 208 850 203 851 l 208 850 q 219 807 219 842 l 219 807 q 481 894 318 894 l 481 894 q 661 868 551 894 l 661 868 q 773 844 728 853 q 840 832 818 835 l 840 832 l 911 885 q 951 867 926 896 l 951 867 q 963 828 979 839 l 963 828 q 656 592 797 708 q 400 360 515 475 l 400 360 q 276 201 332 292 l 276 201 q 207 19 207 90 l 207 19 q 208 8 207 14 q 210 -4 208 1 l 210 -4 q 193 -21 213 -21 z "},"8":{"ha":844,"x_min":1,"x_max":999,"o":"m 175 -25 l 175 -25 q 31 21 71 -25 l 31 21 q 1 100 1 54 l 1 100 q 86 274 1 183 l 86 274 q 460 557 244 446 l 460 557 q 374 658 374 610 l 374 658 q 379 686 374 674 l 379 686 q 518 825 410 769 l 518 825 q 722 875 617 875 l 722 875 q 846 847 797 875 l 846 847 q 883 789 883 825 l 883 789 q 858 724 883 760 l 858 724 l 975 761 q 992 758 986 764 q 997 740 999 751 l 997 740 q 957 708 993 717 l 957 708 q 781 657 872 690 q 588 576 689 624 l 588 576 q 715 514 671 542 l 715 514 q 817 367 817 450 l 817 367 q 703 181 817 278 l 703 181 q 446 32 603 97 l 446 32 q 175 -25 304 -25 z m 547 594 l 547 594 q 656 643 589 614 q 813 708 722 672 l 813 708 q 824 733 818 718 q 839 767 831 747 l 839 767 q 815 814 849 801 l 815 814 q 704 833 761 833 l 704 833 q 529 786 606 833 l 529 786 q 463 679 454 740 l 463 679 q 547 594 468 631 z m 190 1 l 190 1 q 406 53 281 1 l 406 53 q 738 331 738 189 l 738 331 q 618 475 738 414 l 618 475 l 499 536 q 246 349 376 467 l 246 349 q 79 76 65 182 l 79 76 q 190 1 90 1 z "},"9":{"ha":611,"x_min":103,"x_max":863,"o":"m 224 -211 l 224 -211 q 167 -136 168 -204 l 167 -136 q 318 256 161 13 l 318 256 q 462 452 383 357 q 631 636 540 547 l 631 636 q 186 435 340 435 l 186 435 q 104 506 103 435 l 104 506 q 253 714 108 622 l 253 714 q 556 835 372 789 l 556 835 q 829 869 714 874 l 829 869 q 838 857 840 869 l 838 857 q 824 826 836 844 q 800 810 811 808 l 800 810 q 392 731 603 825 l 392 731 q 168 518 175 635 l 168 518 q 231 474 167 465 l 231 474 q 349 513 278 479 q 518 608 421 547 l 518 608 q 655 701 590 654 q 779 796 719 749 l 779 796 q 804 801 785 801 l 804 801 q 863 772 863 801 l 863 772 q 850 751 863 763 l 850 751 q 790 699 828 733 q 697 617 751 665 l 697 617 q 225 -142 213 169 l 225 -142 q 246 -187 228 -181 l 246 -187 q 253 -206 267 -196 l 253 -206 q 224 -211 244 -214 z "},"\r":{"ha":275,"x_min":null,"x_max":null,"o":""}," ":{"ha":275,"x_min":null,"x_max":null,"o":""},"A":{"ha":1417,"x_min":-1,"x_max":1581,"o":"m 213 -161 l 213 -161 q -1 58 -1 -143 l -1 58 q 74 311 -1 178 l 74 311 q 185 468 118 392 q 333 606 253 544 q 497 704 413 668 q 658 740 581 740 l 658 740 q 796 639 796 740 l 796 639 q 754 488 796 571 l 754 488 q 669 382 713 404 l 669 382 q 660 381 665 381 l 660 381 q 656 383 656 381 l 656 383 l 701 458 q 749 594 749 536 l 749 594 q 726 674 749 636 q 647 711 704 711 l 647 711 q 505 672 578 711 q 364 569 432 633 q 240 428 296 506 q 151 276 185 351 l 151 276 q 81 18 81 117 l 81 18 q 232 -131 81 -131 l 232 -131 q 624 56 376 -131 l 624 56 q 770 176 681 99 q 981 365 860 254 l 981 365 q 939 362 964 364 q 881 354 914 360 l 881 354 q 854 349 867 351 q 831 347 842 347 l 831 347 q 807 361 803 350 l 807 361 q 860 413 813 413 l 860 413 q 941 404 903 407 q 1014 401 979 401 l 1014 401 q 1158 541 1068 451 q 1371 761 1247 631 l 1371 761 q 1565 929 1531 929 l 1565 929 q 1581 901 1581 929 l 1581 901 q 1578 874 1581 890 q 1569 835 1575 857 l 1569 835 q 1540 771 1556 782 l 1540 771 q 1469 692 1497 740 q 1411 586 1440 644 l 1411 586 q 1358 480 1382 526 q 1314 397 1333 433 l 1314 397 l 1449 400 q 1499 393 1499 400 l 1499 393 q 1496 389 1499 392 l 1496 389 q 1296 361 1472 374 l 1296 361 q 1167 17 1167 110 l 1167 17 q 1207 -47 1167 -47 l 1207 -47 q 1246 -28 1222 -47 l 1246 -28 q 1274 -10 1268 -10 l 1274 -10 q 1275 -8 1274 -7 q 1274 -10 1276 -10 l 1274 -10 q 1233 -55 1267 -35 q 1161 -75 1199 -75 l 1161 -75 q 1115 -53 1126 -75 q 1104 8 1104 -31 l 1104 8 q 1211 365 1104 149 l 1211 365 l 1044 361 q 671 42 858 179 l 671 42 q 213 -161 372 -175 z m 1069 403 l 1224 401 q 1290 517 1240 433 q 1425 736 1340 601 l 1425 736 l 1069 403 z "},"Æ":{"ha":1944,"x_min":-1,"x_max":2063,"o":"m 213 -161 l 213 -161 q -1 58 -1 -143 l -1 58 q 74 311 -1 178 l 74 311 q 185 468 118 392 q 333 606 253 544 q 497 704 413 668 q 658 740 581 740 l 658 740 q 796 639 796 740 l 796 639 q 754 488 796 571 l 754 488 q 669 382 713 404 l 669 382 q 660 381 665 381 l 660 381 q 656 383 656 381 l 656 383 l 701 458 q 749 594 749 536 l 749 594 q 726 674 749 636 q 647 711 704 711 l 647 711 q 505 672 578 711 q 364 569 432 633 q 240 428 296 506 q 151 276 185 351 l 151 276 q 81 18 81 117 l 81 18 q 232 -131 81 -131 l 232 -131 q 624 56 376 -131 l 624 56 q 770 176 681 99 q 981 365 860 254 l 981 365 q 939 362 964 364 q 881 354 914 360 l 881 354 q 831 347 850 347 l 831 347 q 807 361 803 347 l 807 361 q 860 413 813 413 l 860 413 q 941 404 903 407 q 1014 401 979 401 l 1014 401 q 1158 541 1068 451 q 1371 761 1247 631 l 1371 761 q 1565 929 1531 929 l 1565 929 q 1581 900 1581 929 l 1581 900 q 1571 842 1581 874 l 1571 842 q 1593 853 1582 847 q 1617 864 1604 858 l 1617 864 q 1749 907 1682 892 q 1886 922 1817 922 l 1886 922 q 2017 894 1972 922 q 2063 817 2063 867 l 2063 817 q 2044 753 2063 782 q 1997 707 2025 724 q 1940 690 1969 690 l 1940 690 q 1897 711 1897 690 l 1897 711 q 1915 724 1897 724 l 1915 724 q 1930 722 1921 724 q 1943 719 1939 719 l 1943 719 q 1994 750 1972 719 q 2017 811 2017 781 l 2017 811 q 1975 875 2017 856 q 1879 894 1933 894 l 1879 894 q 1621 810 1747 894 l 1621 810 q 1488 613 1488 722 l 1488 613 q 1515 538 1488 572 l 1515 538 q 1606 559 1564 553 q 1688 565 1649 565 l 1688 565 q 1821 514 1821 565 l 1821 514 q 1801 473 1821 490 q 1752 447 1782 456 q 1692 438 1722 438 l 1692 438 q 1621 446 1660 438 q 1546 468 1582 454 q 1485 500 1510 482 l 1485 500 q 1406 470 1444 489 q 1332 433 1368 451 l 1332 433 l 1314 397 q 1273 302 1293 354 q 1240 198 1253 250 q 1228 103 1228 146 l 1228 103 q 1278 -23 1228 14 q 1401 -60 1329 -60 l 1401 -60 q 1531 -40 1463 -60 q 1658 11 1599 -19 q 1756 76 1718 42 l 1756 76 q 1865 281 1865 174 l 1865 281 q 1783 365 1865 365 l 1783 365 q 1688 344 1740 365 q 1588 286 1635 322 q 1511 207 1542 250 q 1481 119 1481 164 l 1481 119 q 1519 65 1481 75 l 1519 65 q 1533 51 1533 60 l 1533 51 q 1513 40 1533 40 l 1513 40 q 1439 122 1439 40 l 1439 122 q 1471 225 1439 176 q 1553 311 1503 274 q 1664 370 1604 349 q 1779 392 1724 392 l 1779 392 q 1876 363 1836 392 q 1917 271 1917 333 l 1917 271 q 1882 145 1917 207 q 1774 28 1847 83 l 1774 28 q 1676 -28 1735 -1 q 1549 -71 1617 -54 q 1415 -87 1482 -87 l 1415 -87 q 1290 -66 1349 -87 q 1194 7 1232 -44 q 1153 144 1157 58 l 1153 144 q 1160 221 1151 178 q 1183 303 1168 264 q 1211 365 1197 343 l 1211 365 q 1174 365 1204 365 q 1107 363 1143 364 q 1044 361 1071 361 l 1044 361 q 671 42 858 179 l 671 42 q 213 -161 372 -175 z m 1069 403 l 1224 401 q 1290 517 1240 433 q 1425 736 1340 601 l 1425 736 l 1069 403 z m 1360 485 l 1360 485 q 1406 503 1382 494 q 1461 522 1431 513 l 1461 522 q 1419 603 1428 558 l 1419 603 l 1411 586 q 1385 533 1397 558 q 1360 485 1372 507 z m 1679 468 l 1679 468 q 1754 511 1754 468 l 1754 511 q 1679 531 1754 531 l 1679 531 q 1610 526 1646 531 q 1539 515 1575 522 l 1539 515 q 1679 468 1599 468 z "},"Ǽ":{"ha":1944,"x_min":-1,"x_max":2063,"o":"m 213 -161 l 213 -161 q -1 58 -1 -143 l -1 58 q 74 311 -1 178 l 74 311 q 185 468 118 392 q 333 606 253 544 q 497 704 413 668 q 658 740 581 740 l 658 740 q 796 639 796 740 l 796 639 q 754 488 796 571 l 754 488 q 669 382 713 404 l 669 382 q 660 381 665 381 l 660 381 q 656 383 656 381 l 656 383 l 701 458 q 749 594 749 536 l 749 594 q 726 674 749 636 q 647 711 704 711 l 647 711 q 505 672 578 711 q 364 569 432 633 q 240 428 296 506 q 151 276 185 351 l 151 276 q 81 18 81 117 l 81 18 q 232 -131 81 -131 l 232 -131 q 624 56 376 -131 l 624 56 q 770 176 681 99 q 981 365 860 254 l 981 365 q 939 362 964 364 q 881 354 914 360 l 881 354 q 831 347 850 347 l 831 347 q 807 361 803 347 l 807 361 q 860 413 813 413 l 860 413 q 941 404 903 407 q 1014 401 979 401 l 1014 401 q 1158 541 1068 451 q 1371 761 1247 631 l 1371 761 q 1565 929 1531 929 l 1565 929 q 1581 900 1581 929 l 1581 900 q 1571 842 1581 874 l 1571 842 q 1593 853 1582 847 q 1617 864 1604 858 l 1617 864 q 1749 907 1682 892 q 1886 922 1817 922 l 1886 922 q 2017 894 1972 922 q 2063 817 2063 867 l 2063 817 q 2044 753 2063 782 q 1997 707 2025 724 q 1940 690 1969 690 l 1940 690 q 1897 711 1897 690 l 1897 711 q 1915 724 1897 724 l 1915 724 q 1930 722 1921 724 q 1943 719 1939 719 l 1943 719 q 1994 750 1972 719 q 2017 811 2017 781 l 2017 811 q 1975 875 2017 856 q 1879 894 1933 894 l 1879 894 q 1621 810 1747 894 l 1621 810 q 1488 613 1488 722 l 1488 613 q 1515 538 1488 572 l 1515 538 q 1606 559 1564 553 q 1688 565 1649 565 l 1688 565 q 1821 514 1821 565 l 1821 514 q 1801 473 1821 490 q 1752 447 1782 456 q 1692 438 1722 438 l 1692 438 q 1621 446 1660 438 q 1546 468 1582 454 q 1485 500 1510 482 l 1485 500 q 1406 470 1444 489 q 1332 433 1368 451 l 1332 433 l 1314 397 q 1273 302 1293 354 q 1240 198 1253 250 q 1228 103 1228 146 l 1228 103 q 1278 -23 1228 14 q 1401 -60 1329 -60 l 1401 -60 q 1531 -40 1463 -60 q 1658 11 1599 -19 q 1756 76 1718 42 l 1756 76 q 1865 281 1865 174 l 1865 281 q 1783 365 1865 365 l 1783 365 q 1688 344 1740 365 q 1588 286 1635 322 q 1511 207 1542 250 q 1481 119 1481 164 l 1481 119 q 1519 65 1481 75 l 1519 65 q 1533 51 1533 60 l 1533 51 q 1513 40 1533 40 l 1513 40 q 1439 122 1439 40 l 1439 122 q 1471 225 1439 176 q 1553 311 1503 274 q 1664 370 1604 349 q 1779 392 1724 392 l 1779 392 q 1876 363 1836 392 q 1917 271 1917 333 l 1917 271 q 1882 145 1917 207 q 1774 28 1847 83 l 1774 28 q 1676 -28 1735 -1 q 1549 -71 1617 -54 q 1415 -87 1482 -87 l 1415 -87 q 1290 -66 1349 -87 q 1194 7 1232 -44 q 1153 144 1157 58 l 1153 144 q 1160 221 1151 178 q 1183 303 1168 264 q 1211 365 1197 343 l 1211 365 q 1174 365 1204 365 q 1107 363 1143 364 q 1044 361 1071 361 l 1044 361 q 671 42 858 179 l 671 42 q 213 -161 372 -175 z m 1069 403 l 1224 401 q 1290 517 1240 433 q 1425 736 1340 601 l 1425 736 l 1069 403 z m 1360 485 l 1360 485 q 1406 503 1382 494 q 1461 522 1431 513 l 1461 522 q 1419 603 1428 558 l 1419 603 l 1411 586 q 1385 533 1397 558 q 1360 485 1372 507 z m 1679 468 l 1679 468 q 1754 511 1754 468 l 1754 511 q 1679 531 1754 531 l 1679 531 q 1610 526 1646 531 q 1539 515 1575 522 l 1539 515 q 1679 468 1599 468 z m 1689 990 l 1689 990 q 1678 999 1678 990 l 1678 999 q 1692 1011 1678 1006 l 1692 1011 q 1768 1044 1732 1028 q 1833 1075 1804 1061 l 1833 1075 q 1854 1083 1846 1082 q 1867 1085 1863 1085 l 1867 1085 q 1882 1073 1875 1085 q 1889 1050 1889 1061 l 1889 1050 q 1880 1035 1889 1040 q 1864 1026 1871 1029 l 1864 1026 q 1833 1015 1854 1022 q 1778 1001 1813 1008 l 1778 1001 q 1689 990 1726 990 z "},"Á":{"ha":1417,"x_min":-1,"x_max":1754,"o":"m 213 -161 l 213 -161 q -1 58 -1 -143 l -1 58 q 74 311 -1 178 l 74 311 q 185 468 118 392 q 333 606 253 544 q 497 704 413 668 q 658 740 581 740 l 658 740 q 796 639 796 740 l 796 639 q 754 488 796 571 l 754 488 q 669 382 713 404 l 669 382 q 660 381 665 381 l 660 381 q 656 383 656 381 l 656 383 l 701 458 q 749 594 749 536 l 749 594 q 726 674 749 636 q 647 711 704 711 l 647 711 q 505 672 578 711 q 364 569 432 633 q 240 428 296 506 q 151 276 185 351 l 151 276 q 81 18 81 117 l 81 18 q 232 -131 81 -131 l 232 -131 q 624 56 376 -131 l 624 56 q 770 176 681 99 q 981 365 860 254 l 981 365 q 939 362 964 364 q 881 354 914 360 l 881 354 q 854 349 867 351 q 831 347 842 347 l 831 347 q 807 361 803 350 l 807 361 q 860 413 813 413 l 860 413 q 941 404 903 407 q 1014 401 979 401 l 1014 401 q 1158 541 1068 451 q 1371 761 1247 631 l 1371 761 q 1565 929 1531 929 l 1565 929 q 1581 901 1581 929 l 1581 901 q 1578 874 1581 890 q 1569 835 1575 857 l 1569 835 q 1540 771 1556 782 l 1540 771 q 1469 692 1497 740 q 1411 586 1440 644 l 1411 586 q 1358 480 1382 526 q 1314 397 1333 433 l 1314 397 l 1449 400 q 1499 393 1499 400 l 1499 393 q 1496 389 1499 392 l 1496 389 q 1296 361 1472 374 l 1296 361 q 1167 17 1167 110 l 1167 17 q 1207 -47 1167 -47 l 1207 -47 q 1246 -28 1222 -47 l 1246 -28 q 1274 -10 1268 -10 l 1274 -10 q 1275 -8 1274 -7 q 1274 -10 1276 -10 l 1274 -10 q 1233 -55 1267 -35 q 1161 -75 1199 -75 l 1161 -75 q 1115 -53 1126 -75 q 1104 8 1104 -31 l 1104 8 q 1211 365 1104 149 l 1211 365 l 1044 361 q 671 42 858 179 l 671 42 q 213 -161 372 -175 z m 1069 403 l 1224 401 q 1290 517 1240 433 q 1425 736 1340 601 l 1425 736 l 1069 403 z m 1554 990 l 1554 990 q 1543 999 1543 990 l 1543 999 q 1557 1011 1543 1006 l 1557 1011 q 1633 1044 1597 1028 q 1699 1075 1669 1061 l 1699 1075 q 1719 1083 1711 1082 q 1732 1085 1728 1085 l 1732 1085 q 1747 1073 1740 1085 q 1754 1050 1754 1061 l 1754 1050 q 1745 1035 1754 1040 q 1729 1026 1736 1029 l 1729 1026 q 1699 1015 1719 1022 q 1643 1001 1678 1008 l 1643 1001 q 1554 990 1592 990 z "},"Ă":{"ha":1417,"x_min":-1,"x_max":1742,"o":"m 213 -161 l 213 -161 q -1 58 -1 -143 l -1 58 q 74 311 -1 178 l 74 311 q 185 468 118 392 q 333 606 253 544 q 497 704 413 668 q 658 740 581 740 l 658 740 q 796 639 796 740 l 796 639 q 754 488 796 571 l 754 488 q 669 382 713 404 l 669 382 q 660 381 665 381 l 660 381 q 656 383 656 381 l 656 383 l 701 458 q 749 594 749 536 l 749 594 q 726 674 749 636 q 647 711 704 711 l 647 711 q 505 672 578 711 q 364 569 432 633 q 240 428 296 506 q 151 276 185 351 l 151 276 q 81 18 81 117 l 81 18 q 232 -131 81 -131 l 232 -131 q 624 56 376 -131 l 624 56 q 770 176 681 99 q 981 365 860 254 l 981 365 q 939 362 964 364 q 881 354 914 360 l 881 354 q 854 349 867 351 q 831 347 842 347 l 831 347 q 807 361 803 350 l 807 361 q 860 413 813 413 l 860 413 q 941 404 903 407 q 1014 401 979 401 l 1014 401 q 1158 541 1068 451 q 1371 761 1247 631 l 1371 761 q 1565 929 1531 929 l 1565 929 q 1581 901 1581 929 l 1581 901 q 1578 874 1581 890 q 1569 835 1575 857 l 1569 835 q 1540 771 1556 782 l 1540 771 q 1469 692 1497 740 q 1411 586 1440 644 l 1411 586 q 1358 480 1382 526 q 1314 397 1333 433 l 1314 397 l 1449 400 q 1499 393 1499 400 l 1499 393 q 1496 389 1499 392 l 1496 389 q 1296 361 1472 374 l 1296 361 q 1167 17 1167 110 l 1167 17 q 1207 -47 1167 -47 l 1207 -47 q 1246 -28 1222 -47 l 1246 -28 q 1274 -10 1268 -10 l 1274 -10 q 1275 -8 1274 -7 q 1274 -10 1276 -10 l 1274 -10 q 1233 -55 1267 -35 q 1161 -75 1199 -75 l 1161 -75 q 1115 -53 1126 -75 q 1104 8 1104 -31 l 1104 8 q 1211 365 1104 149 l 1211 365 l 1044 361 q 671 42 858 179 l 671 42 q 213 -161 372 -175 z m 1069 403 l 1224 401 q 1290 517 1240 433 q 1425 736 1340 601 l 1425 736 l 1069 403 z m 1590 994 l 1590 994 q 1544 1009 1564 994 q 1525 1060 1525 1024 l 1525 1060 q 1526 1072 1525 1061 q 1531 1094 1526 1083 q 1546 1104 1536 1104 l 1546 1104 q 1556 1097 1553 1104 q 1561 1078 1558 1089 l 1561 1078 q 1574 1055 1565 1061 q 1607 1049 1582 1049 l 1607 1049 q 1651 1056 1631 1049 q 1703 1088 1672 1063 l 1703 1088 q 1726 1106 1710 1094 q 1742 1106 1742 1117 l 1742 1106 q 1726 1069 1742 1090 l 1726 1069 q 1666 1017 1704 1039 q 1590 994 1628 994 z "},"Ắ":{"ha":1417,"x_min":-1,"x_max":1801,"o":"m 213 -161 l 213 -161 q -1 58 -1 -143 l -1 58 q 74 311 -1 178 l 74 311 q 185 468 118 392 q 333 606 253 544 q 497 704 413 668 q 658 740 581 740 l 658 740 q 796 639 796 740 l 796 639 q 754 488 796 571 l 754 488 q 669 382 713 404 l 669 382 q 660 381 665 381 l 660 381 q 656 383 656 381 l 656 383 l 701 458 q 749 594 749 536 l 749 594 q 726 674 749 636 q 647 711 704 711 l 647 711 q 505 672 578 711 q 364 569 432 633 q 240 428 296 506 q 151 276 185 351 l 151 276 q 81 18 81 117 l 81 18 q 232 -131 81 -131 l 232 -131 q 624 56 376 -131 l 624 56 q 770 176 681 99 q 981 365 860 254 l 981 365 q 939 362 964 364 q 881 354 914 360 l 881 354 q 854 349 867 351 q 831 347 842 347 l 831 347 q 807 361 803 350 l 807 361 q 860 413 813 413 l 860 413 q 941 404 903 407 q 1014 401 979 401 l 1014 401 q 1158 541 1068 451 q 1371 761 1247 631 l 1371 761 q 1565 929 1531 929 l 1565 929 q 1581 901 1581 929 l 1581 901 q 1578 874 1581 890 q 1569 835 1575 857 l 1569 835 q 1540 771 1556 782 l 1540 771 q 1469 692 1497 740 q 1411 586 1440 644 l 1411 586 q 1358 480 1382 526 q 1314 397 1333 433 l 1314 397 l 1449 400 q 1499 393 1499 400 l 1499 393 q 1496 389 1499 392 l 1496 389 q 1296 361 1472 374 l 1296 361 q 1167 17 1167 110 l 1167 17 q 1207 -47 1167 -47 l 1207 -47 q 1246 -28 1222 -47 l 1246 -28 q 1274 -10 1268 -10 l 1274 -10 q 1275 -8 1274 -7 q 1274 -10 1276 -10 l 1274 -10 q 1233 -55 1267 -35 q 1161 -75 1199 -75 l 1161 -75 q 1115 -53 1126 -75 q 1104 8 1104 -31 l 1104 8 q 1211 365 1104 149 l 1211 365 l 1044 361 q 671 42 858 179 l 671 42 q 213 -161 372 -175 z m 1069 403 l 1224 401 q 1290 517 1240 433 q 1425 736 1340 601 l 1425 736 l 1069 403 z m 1590 994 l 1590 994 q 1544 1009 1564 994 q 1525 1060 1525 1024 l 1525 1060 q 1526 1072 1525 1061 q 1531 1094 1526 1083 q 1546 1104 1536 1104 l 1546 1104 q 1556 1097 1553 1104 q 1561 1078 1558 1089 l 1561 1078 q 1574 1055 1565 1061 q 1607 1049 1582 1049 l 1607 1049 q 1651 1056 1631 1049 q 1703 1088 1672 1063 l 1703 1088 q 1726 1106 1710 1094 q 1742 1106 1742 1117 l 1742 1106 q 1726 1069 1742 1090 l 1726 1069 q 1666 1017 1704 1039 q 1590 994 1628 994 z m 1601 1129 l 1601 1129 q 1590 1138 1590 1129 l 1590 1138 q 1604 1150 1590 1144 l 1604 1150 q 1681 1183 1644 1167 q 1746 1214 1717 1200 l 1746 1214 q 1767 1222 1758 1221 q 1779 1224 1775 1224 l 1779 1224 q 1794 1212 1788 1224 q 1801 1189 1801 1200 l 1801 1189 q 1792 1174 1801 1179 q 1776 1165 1783 1168 l 1776 1165 q 1746 1154 1767 1161 q 1690 1140 1725 1147 l 1690 1140 q 1601 1129 1639 1129 z "},"Ặ":{"ha":1417,"x_min":-1,"x_max":1742,"o":"m 213 -161 l 213 -161 q -1 58 -1 -143 l -1 58 q 74 311 -1 178 l 74 311 q 185 468 118 392 q 333 606 253 544 q 497 704 413 668 q 658 740 581 740 l 658 740 q 796 639 796 740 l 796 639 q 754 488 796 571 l 754 488 q 669 382 713 404 l 669 382 q 660 381 665 381 l 660 381 q 656 383 656 381 l 656 383 l 701 458 q 749 594 749 536 l 749 594 q 726 674 749 636 q 647 711 704 711 l 647 711 q 505 672 578 711 q 364 569 432 633 q 240 428 296 506 q 151 276 185 351 l 151 276 q 81 18 81 117 l 81 18 q 232 -131 81 -131 l 232 -131 q 624 56 376 -131 l 624 56 q 770 176 681 99 q 981 365 860 254 l 981 365 q 939 362 964 364 q 881 354 914 360 l 881 354 q 854 349 867 351 q 831 347 842 347 l 831 347 q 807 361 803 350 l 807 361 q 860 413 813 413 l 860 413 q 941 404 903 407 q 1014 401 979 401 l 1014 401 q 1158 541 1068 451 q 1371 761 1247 631 l 1371 761 q 1565 929 1531 929 l 1565 929 q 1581 901 1581 929 l 1581 901 q 1578 874 1581 890 q 1569 835 1575 857 l 1569 835 q 1540 771 1556 782 l 1540 771 q 1469 692 1497 740 q 1411 586 1440 644 l 1411 586 q 1358 480 1382 526 q 1314 397 1333 433 l 1314 397 l 1449 400 q 1499 393 1499 400 l 1499 393 q 1496 389 1499 392 l 1496 389 q 1296 361 1472 374 l 1296 361 q 1167 17 1167 110 l 1167 17 q 1207 -47 1167 -47 l 1207 -47 q 1246 -28 1222 -47 l 1246 -28 q 1274 -10 1268 -10 l 1274 -10 q 1275 -8 1274 -7 q 1274 -10 1276 -10 l 1274 -10 q 1233 -55 1267 -35 q 1161 -75 1199 -75 l 1161 -75 q 1115 -53 1126 -75 q 1104 8 1104 -31 l 1104 8 q 1211 365 1104 149 l 1211 365 l 1044 361 q 671 42 858 179 l 671 42 q 213 -161 372 -175 z m 1069 403 l 1224 401 q 1290 517 1240 433 q 1425 736 1340 601 l 1425 736 l 1069 403 z m 764 -193 l 764 -193 q 744 -178 754 -193 q 735 -153 735 -164 l 735 -153 q 775 -103 735 -132 l 775 -103 q 817 -87 803 -86 q 824 -100 831 -89 l 824 -100 l 801 -156 q 764 -193 785 -193 z m 1590 994 l 1590 994 q 1544 1009 1564 994 q 1525 1060 1525 1024 l 1525 1060 q 1526 1072 1525 1061 q 1531 1094 1526 1083 q 1546 1104 1536 1104 l 1546 1104 q 1556 1097 1553 1104 q 1561 1078 1558 1089 l 1561 1078 q 1574 1055 1565 1061 q 1607 1049 1582 1049 l 1607 1049 q 1651 1056 1631 1049 q 1703 1088 1672 1063 l 1703 1088 q 1726 1106 1710 1094 q 1742 1106 1742 1117 l 1742 1106 q 1726 1069 1742 1090 l 1726 1069 q 1666 1017 1704 1039 q 1590 994 1628 994 z "},"Ằ":{"ha":1417,"x_min":-1,"x_max":1742,"o":"m 213 -161 l 213 -161 q -1 58 -1 -143 l -1 58 q 74 311 -1 178 l 74 311 q 185 468 118 392 q 333 606 253 544 q 497 704 413 668 q 658 740 581 740 l 658 740 q 796 639 796 740 l 796 639 q 754 488 796 571 l 754 488 q 669 382 713 404 l 669 382 q 660 381 665 381 l 660 381 q 656 383 656 381 l 656 383 l 701 458 q 749 594 749 536 l 749 594 q 726 674 749 636 q 647 711 704 711 l 647 711 q 505 672 578 711 q 364 569 432 633 q 240 428 296 506 q 151 276 185 351 l 151 276 q 81 18 81 117 l 81 18 q 232 -131 81 -131 l 232 -131 q 624 56 376 -131 l 624 56 q 770 176 681 99 q 981 365 860 254 l 981 365 q 939 362 964 364 q 881 354 914 360 l 881 354 q 854 349 867 351 q 831 347 842 347 l 831 347 q 807 361 803 350 l 807 361 q 860 413 813 413 l 860 413 q 941 404 903 407 q 1014 401 979 401 l 1014 401 q 1158 541 1068 451 q 1371 761 1247 631 l 1371 761 q 1565 929 1531 929 l 1565 929 q 1581 901 1581 929 l 1581 901 q 1578 874 1581 890 q 1569 835 1575 857 l 1569 835 q 1540 771 1556 782 l 1540 771 q 1469 692 1497 740 q 1411 586 1440 644 l 1411 586 q 1358 480 1382 526 q 1314 397 1333 433 l 1314 397 l 1449 400 q 1499 393 1499 400 l 1499 393 q 1496 389 1499 392 l 1496 389 q 1296 361 1472 374 l 1296 361 q 1167 17 1167 110 l 1167 17 q 1207 -47 1167 -47 l 1207 -47 q 1246 -28 1222 -47 l 1246 -28 q 1274 -10 1268 -10 l 1274 -10 q 1275 -8 1274 -7 q 1274 -10 1276 -10 l 1274 -10 q 1233 -55 1267 -35 q 1161 -75 1199 -75 l 1161 -75 q 1115 -53 1126 -75 q 1104 8 1104 -31 l 1104 8 q 1211 365 1104 149 l 1211 365 l 1044 361 q 671 42 858 179 l 671 42 q 213 -161 372 -175 z m 1069 403 l 1224 401 q 1290 517 1240 433 q 1425 736 1340 601 l 1425 736 l 1069 403 z m 1590 994 l 1590 994 q 1544 1009 1564 994 q 1525 1060 1525 1024 l 1525 1060 q 1526 1072 1525 1061 q 1531 1094 1526 1083 q 1546 1104 1536 1104 l 1546 1104 q 1556 1097 1553 1104 q 1561 1078 1558 1089 l 1561 1078 q 1574 1055 1565 1061 q 1607 1049 1582 1049 l 1607 1049 q 1651 1056 1631 1049 q 1703 1088 1672 1063 l 1703 1088 q 1726 1106 1710 1094 q 1742 1106 1742 1117 l 1742 1106 q 1726 1069 1742 1090 l 1726 1069 q 1666 1017 1704 1039 q 1590 994 1628 994 z m 1731 1129 l 1731 1129 q 1642 1140 1693 1129 l 1642 1140 q 1586 1154 1607 1147 q 1556 1165 1565 1161 l 1556 1165 q 1540 1174 1549 1168 q 1531 1189 1531 1179 l 1531 1189 q 1538 1212 1531 1200 q 1553 1224 1544 1224 l 1553 1224 q 1565 1222 1557 1224 q 1586 1214 1574 1221 l 1586 1214 q 1651 1183 1615 1200 q 1728 1150 1688 1167 l 1728 1150 q 1742 1138 1742 1144 l 1742 1138 q 1731 1129 1742 1129 z "},"Ẳ":{"ha":1417,"x_min":-1,"x_max":1742,"o":"m 213 -161 l 213 -161 q -1 58 -1 -143 l -1 58 q 74 311 -1 178 l 74 311 q 185 468 118 392 q 333 606 253 544 q 497 704 413 668 q 658 740 581 740 l 658 740 q 796 639 796 740 l 796 639 q 754 488 796 571 l 754 488 q 669 382 713 404 l 669 382 q 660 381 665 381 l 660 381 q 656 383 656 381 l 656 383 l 701 458 q 749 594 749 536 l 749 594 q 726 674 749 636 q 647 711 704 711 l 647 711 q 505 672 578 711 q 364 569 432 633 q 240 428 296 506 q 151 276 185 351 l 151 276 q 81 18 81 117 l 81 18 q 232 -131 81 -131 l 232 -131 q 624 56 376 -131 l 624 56 q 770 176 681 99 q 981 365 860 254 l 981 365 q 939 362 964 364 q 881 354 914 360 l 881 354 q 854 349 867 351 q 831 347 842 347 l 831 347 q 807 361 803 350 l 807 361 q 860 413 813 413 l 860 413 q 941 404 903 407 q 1014 401 979 401 l 1014 401 q 1158 541 1068 451 q 1371 761 1247 631 l 1371 761 q 1565 929 1531 929 l 1565 929 q 1581 901 1581 929 l 1581 901 q 1578 874 1581 890 q 1569 835 1575 857 l 1569 835 q 1540 771 1556 782 l 1540 771 q 1469 692 1497 740 q 1411 586 1440 644 l 1411 586 q 1358 480 1382 526 q 1314 397 1333 433 l 1314 397 l 1449 400 q 1499 393 1499 400 l 1499 393 q 1496 389 1499 392 l 1496 389 q 1296 361 1472 374 l 1296 361 q 1167 17 1167 110 l 1167 17 q 1207 -47 1167 -47 l 1207 -47 q 1246 -28 1222 -47 l 1246 -28 q 1274 -10 1268 -10 l 1274 -10 q 1275 -8 1274 -7 q 1274 -10 1276 -10 l 1274 -10 q 1233 -55 1267 -35 q 1161 -75 1199 -75 l 1161 -75 q 1115 -53 1126 -75 q 1104 8 1104 -31 l 1104 8 q 1211 365 1104 149 l 1211 365 l 1044 361 q 671 42 858 179 l 671 42 q 213 -161 372 -175 z m 1069 403 l 1224 401 q 1290 517 1240 433 q 1425 736 1340 601 l 1425 736 l 1069 403 z m 1590 994 l 1590 994 q 1544 1009 1564 994 q 1525 1060 1525 1024 l 1525 1060 q 1526 1072 1525 1061 q 1531 1094 1526 1083 q 1546 1104 1536 1104 l 1546 1104 q 1556 1097 1553 1104 q 1561 1078 1558 1089 l 1561 1078 q 1574 1055 1565 1061 q 1607 1049 1582 1049 l 1607 1049 q 1651 1056 1631 1049 q 1703 1088 1672 1063 l 1703 1088 q 1726 1106 1710 1094 q 1742 1106 1742 1117 l 1742 1106 q 1726 1069 1742 1090 l 1726 1069 q 1666 1017 1704 1039 q 1590 994 1628 994 z m 1629 1089 l 1625 1089 q 1618 1093 1619 1089 q 1619 1099 1617 1097 l 1619 1099 q 1669 1134 1647 1118 q 1692 1172 1692 1150 l 1692 1172 q 1668 1193 1692 1193 l 1668 1193 q 1634 1185 1654 1193 q 1599 1161 1614 1176 l 1599 1161 q 1598 1160 1599 1161 q 1596 1160 1597 1160 l 1596 1160 q 1593 1163 1594 1160 q 1593 1168 1592 1165 l 1593 1168 q 1633 1217 1604 1200 q 1697 1231 1661 1233 l 1697 1231 q 1725 1216 1715 1229 q 1735 1188 1735 1203 l 1735 1188 q 1724 1151 1735 1167 q 1696 1125 1714 1136 l 1696 1125 q 1653 1099 1669 1108 q 1629 1089 1636 1089 l 1629 1089 z "},"Ẵ":{"ha":1417,"x_min":-1,"x_max":1742,"o":"m 213 -161 l 213 -161 q -1 58 -1 -143 l -1 58 q 74 311 -1 178 l 74 311 q 185 468 118 392 q 333 606 253 544 q 497 704 413 668 q 658 740 581 740 l 658 740 q 796 639 796 740 l 796 639 q 754 488 796 571 l 754 488 q 669 382 713 404 l 669 382 q 660 381 665 381 l 660 381 q 656 383 656 381 l 656 383 l 701 458 q 749 594 749 536 l 749 594 q 726 674 749 636 q 647 711 704 711 l 647 711 q 505 672 578 711 q 364 569 432 633 q 240 428 296 506 q 151 276 185 351 l 151 276 q 81 18 81 117 l 81 18 q 232 -131 81 -131 l 232 -131 q 624 56 376 -131 l 624 56 q 770 176 681 99 q 981 365 860 254 l 981 365 q 939 362 964 364 q 881 354 914 360 l 881 354 q 854 349 867 351 q 831 347 842 347 l 831 347 q 807 361 803 350 l 807 361 q 860 413 813 413 l 860 413 q 941 404 903 407 q 1014 401 979 401 l 1014 401 q 1158 541 1068 451 q 1371 761 1247 631 l 1371 761 q 1565 929 1531 929 l 1565 929 q 1581 901 1581 929 l 1581 901 q 1578 874 1581 890 q 1569 835 1575 857 l 1569 835 q 1540 771 1556 782 l 1540 771 q 1469 692 1497 740 q 1411 586 1440 644 l 1411 586 q 1358 480 1382 526 q 1314 397 1333 433 l 1314 397 l 1449 400 q 1499 393 1499 400 l 1499 393 q 1496 389 1499 392 l 1496 389 q 1296 361 1472 374 l 1296 361 q 1167 17 1167 110 l 1167 17 q 1207 -47 1167 -47 l 1207 -47 q 1246 -28 1222 -47 l 1246 -28 q 1274 -10 1268 -10 l 1274 -10 q 1275 -8 1274 -7 q 1274 -10 1276 -10 l 1274 -10 q 1233 -55 1267 -35 q 1161 -75 1199 -75 l 1161 -75 q 1115 -53 1126 -75 q 1104 8 1104 -31 l 1104 8 q 1211 365 1104 149 l 1211 365 l 1044 361 q 671 42 858 179 l 671 42 q 213 -161 372 -175 z m 1069 403 l 1224 401 q 1290 517 1240 433 q 1425 736 1340 601 l 1425 736 l 1069 403 z m 1590 994 l 1590 994 q 1544 1009 1564 994 q 1525 1060 1525 1024 l 1525 1060 q 1526 1072 1525 1061 q 1531 1094 1526 1083 q 1546 1104 1536 1104 l 1546 1104 q 1556 1097 1553 1104 q 1561 1078 1558 1089 l 1561 1078 q 1574 1055 1565 1061 q 1607 1049 1582 1049 l 1607 1049 q 1651 1056 1631 1049 q 1703 1088 1672 1063 l 1703 1088 q 1726 1106 1710 1094 q 1742 1106 1742 1117 l 1742 1106 q 1726 1069 1742 1090 l 1726 1069 q 1666 1017 1704 1039 q 1590 994 1628 994 z m 1618 1122 l 1618 1122 q 1590 1127 1607 1122 q 1551 1142 1574 1132 l 1551 1142 q 1489 1163 1510 1163 l 1489 1163 q 1467 1158 1479 1163 q 1444 1143 1456 1154 l 1444 1143 q 1417 1124 1425 1124 l 1417 1124 q 1415 1126 1415 1125 l 1415 1126 q 1472 1189 1415 1150 l 1472 1189 q 1519 1204 1492 1204 l 1519 1204 q 1582 1188 1540 1204 l 1582 1188 q 1618 1176 1603 1179 q 1643 1172 1633 1172 l 1643 1172 q 1699 1204 1674 1172 l 1699 1204 q 1706 1199 1706 1204 l 1706 1199 q 1654 1135 1706 1174 l 1654 1135 q 1618 1122 1638 1122 z "},"Ǎ":{"ha":1417,"x_min":-1,"x_max":1772,"o":"m 213 -161 l 213 -161 q -1 58 -1 -143 l -1 58 q 74 311 -1 178 l 74 311 q 185 468 118 392 q 333 606 253 544 q 497 704 413 668 q 658 740 581 740 l 658 740 q 796 639 796 740 l 796 639 q 754 488 796 571 l 754 488 q 669 382 713 404 l 669 382 q 660 381 665 381 l 660 381 q 656 383 656 381 l 656 383 l 701 458 q 749 594 749 536 l 749 594 q 726 674 749 636 q 647 711 704 711 l 647 711 q 505 672 578 711 q 364 569 432 633 q 240 428 296 506 q 151 276 185 351 l 151 276 q 81 18 81 117 l 81 18 q 232 -131 81 -131 l 232 -131 q 624 56 376 -131 l 624 56 q 770 176 681 99 q 981 365 860 254 l 981 365 q 939 362 964 364 q 881 354 914 360 l 881 354 q 854 349 867 351 q 831 347 842 347 l 831 347 q 807 361 803 350 l 807 361 q 860 413 813 413 l 860 413 q 941 404 903 407 q 1014 401 979 401 l 1014 401 q 1158 541 1068 451 q 1371 761 1247 631 l 1371 761 q 1565 929 1531 929 l 1565 929 q 1581 901 1581 929 l 1581 901 q 1578 874 1581 890 q 1569 835 1575 857 l 1569 835 q 1540 771 1556 782 l 1540 771 q 1469 692 1497 740 q 1411 586 1440 644 l 1411 586 q 1358 480 1382 526 q 1314 397 1333 433 l 1314 397 l 1449 400 q 1499 393 1499 400 l 1499 393 q 1496 389 1499 392 l 1496 389 q 1296 361 1472 374 l 1296 361 q 1167 17 1167 110 l 1167 17 q 1207 -47 1167 -47 l 1207 -47 q 1246 -28 1222 -47 l 1246 -28 q 1274 -10 1268 -10 l 1274 -10 q 1275 -8 1274 -7 q 1274 -10 1276 -10 l 1274 -10 q 1233 -55 1267 -35 q 1161 -75 1199 -75 l 1161 -75 q 1115 -53 1126 -75 q 1104 8 1104 -31 l 1104 8 q 1211 365 1104 149 l 1211 365 l 1044 361 q 671 42 858 179 l 671 42 q 213 -161 372 -175 z m 1069 403 l 1224 401 q 1290 517 1240 433 q 1425 736 1340 601 l 1425 736 l 1069 403 z m 1525 1117 l 1525 1117 q 1541 1103 1532 1117 q 1565 1068 1550 1089 l 1565 1068 q 1575 1052 1572 1061 q 1582 1035 1578 1043 l 1582 1035 q 1642 1066 1606 1046 q 1700 1096 1678 1086 l 1700 1096 q 1730 1109 1711 1101 q 1758 1117 1749 1117 l 1758 1117 q 1772 1108 1772 1117 l 1772 1108 q 1763 1093 1772 1103 q 1746 1078 1754 1083 l 1746 1078 q 1676 1043 1715 1064 q 1606 1006 1638 1022 q 1564 990 1574 990 l 1564 990 q 1535 1007 1547 990 q 1513 1047 1524 1024 l 1513 1047 q 1507 1066 1510 1057 q 1504 1085 1504 1075 l 1504 1085 q 1525 1117 1504 1117 z "},"Â":{"ha":1417,"x_min":-1,"x_max":1749,"o":"m 213 -161 l 213 -161 q -1 58 -1 -143 l -1 58 q 74 311 -1 178 l 74 311 q 185 468 118 392 q 333 606 253 544 q 497 704 413 668 q 658 740 581 740 l 658 740 q 796 639 796 740 l 796 639 q 754 488 796 571 l 754 488 q 669 382 713 404 l 669 382 q 660 381 665 381 l 660 381 q 656 383 656 381 l 656 383 l 701 458 q 749 594 749 536 l 749 594 q 726 674 749 636 q 647 711 704 711 l 647 711 q 505 672 578 711 q 364 569 432 633 q 240 428 296 506 q 151 276 185 351 l 151 276 q 81 18 81 117 l 81 18 q 232 -131 81 -131 l 232 -131 q 624 56 376 -131 l 624 56 q 770 176 681 99 q 981 365 860 254 l 981 365 q 939 362 964 364 q 881 354 914 360 l 881 354 q 854 349 867 351 q 831 347 842 347 l 831 347 q 807 361 803 350 l 807 361 q 860 413 813 413 l 860 413 q 941 404 903 407 q 1014 401 979 401 l 1014 401 q 1158 541 1068 451 q 1371 761 1247 631 l 1371 761 q 1565 929 1531 929 l 1565 929 q 1581 901 1581 929 l 1581 901 q 1578 874 1581 890 q 1569 835 1575 857 l 1569 835 q 1540 771 1556 782 l 1540 771 q 1469 692 1497 740 q 1411 586 1440 644 l 1411 586 q 1358 480 1382 526 q 1314 397 1333 433 l 1314 397 l 1449 400 q 1499 393 1499 400 l 1499 393 q 1496 389 1499 392 l 1496 389 q 1296 361 1472 374 l 1296 361 q 1167 17 1167 110 l 1167 17 q 1207 -47 1167 -47 l 1207 -47 q 1246 -28 1222 -47 l 1246 -28 q 1274 -10 1268 -10 l 1274 -10 q 1275 -8 1274 -7 q 1274 -10 1276 -10 l 1274 -10 q 1233 -55 1267 -35 q 1161 -75 1199 -75 l 1161 -75 q 1115 -53 1126 -75 q 1104 8 1104 -31 l 1104 8 q 1211 365 1104 149 l 1211 365 l 1044 361 q 671 42 858 179 l 671 42 q 213 -161 372 -175 z m 1069 403 l 1224 401 q 1290 517 1240 433 q 1425 736 1340 601 l 1425 736 l 1069 403 z m 1504 971 l 1504 971 q 1499 979 1501 971 q 1501 990 1496 988 l 1501 990 q 1525 1008 1508 996 q 1564 1035 1542 1019 l 1564 1035 q 1616 1069 1596 1054 q 1650 1083 1636 1083 l 1650 1083 q 1671 1075 1663 1083 q 1689 1056 1679 1067 l 1689 1056 q 1709 1035 1700 1044 q 1728 1017 1718 1026 l 1728 1017 q 1742 1001 1735 1010 q 1749 985 1749 993 l 1749 985 q 1742 973 1749 979 q 1722 965 1736 967 l 1722 965 q 1703 972 1713 965 q 1683 989 1694 979 l 1683 989 q 1660 1014 1672 1000 q 1638 1039 1647 1028 l 1638 1039 q 1574 1004 1617 1028 l 1574 1004 q 1533 981 1550 990 q 1504 971 1515 971 z "},"Ấ":{"ha":1417,"x_min":-1,"x_max":1763,"o":"m 213 -161 l 213 -161 q -1 58 -1 -143 l -1 58 q 74 311 -1 178 l 74 311 q 185 468 118 392 q 333 606 253 544 q 497 704 413 668 q 658 740 581 740 l 658 740 q 796 639 796 740 l 796 639 q 754 488 796 571 l 754 488 q 669 382 713 404 l 669 382 q 660 381 665 381 l 660 381 q 656 383 656 381 l 656 383 l 701 458 q 749 594 749 536 l 749 594 q 726 674 749 636 q 647 711 704 711 l 647 711 q 505 672 578 711 q 364 569 432 633 q 240 428 296 506 q 151 276 185 351 l 151 276 q 81 18 81 117 l 81 18 q 232 -131 81 -131 l 232 -131 q 624 56 376 -131 l 624 56 q 770 176 681 99 q 981 365 860 254 l 981 365 q 939 362 964 364 q 881 354 914 360 l 881 354 q 854 349 867 351 q 831 347 842 347 l 831 347 q 807 361 803 350 l 807 361 q 860 413 813 413 l 860 413 q 941 404 903 407 q 1014 401 979 401 l 1014 401 q 1158 541 1068 451 q 1371 761 1247 631 l 1371 761 q 1565 929 1531 929 l 1565 929 q 1581 901 1581 929 l 1581 901 q 1578 874 1581 890 q 1569 835 1575 857 l 1569 835 q 1540 771 1556 782 l 1540 771 q 1469 692 1497 740 q 1411 586 1440 644 l 1411 586 q 1358 480 1382 526 q 1314 397 1333 433 l 1314 397 l 1449 400 q 1499 393 1499 400 l 1499 393 q 1496 389 1499 392 l 1496 389 q 1296 361 1472 374 l 1296 361 q 1167 17 1167 110 l 1167 17 q 1207 -47 1167 -47 l 1207 -47 q 1246 -28 1222 -47 l 1246 -28 q 1274 -10 1268 -10 l 1274 -10 q 1275 -8 1274 -7 q 1274 -10 1276 -10 l 1274 -10 q 1233 -55 1267 -35 q 1161 -75 1199 -75 l 1161 -75 q 1115 -53 1126 -75 q 1104 8 1104 -31 l 1104 8 q 1211 365 1104 149 l 1211 365 l 1044 361 q 671 42 858 179 l 671 42 q 213 -161 372 -175 z m 1069 403 l 1224 401 q 1290 517 1240 433 q 1425 736 1340 601 l 1425 736 l 1069 403 z m 1504 971 l 1504 971 q 1499 979 1501 971 q 1501 990 1496 988 l 1501 990 q 1525 1008 1508 996 q 1564 1035 1542 1019 l 1564 1035 q 1616 1069 1596 1054 q 1650 1083 1636 1083 l 1650 1083 q 1671 1075 1663 1083 q 1689 1056 1679 1067 l 1689 1056 q 1709 1035 1700 1044 q 1728 1017 1718 1026 l 1728 1017 q 1742 1001 1735 1010 q 1749 985 1749 993 l 1749 985 q 1742 973 1749 979 q 1722 965 1736 967 l 1722 965 q 1703 972 1713 965 q 1683 989 1694 979 l 1683 989 q 1660 1014 1672 1000 q 1638 1039 1647 1028 l 1638 1039 q 1574 1004 1617 1028 l 1574 1004 q 1533 981 1550 990 q 1504 971 1515 971 z m 1563 1111 l 1563 1111 q 1551 1119 1551 1111 l 1551 1119 q 1565 1132 1551 1126 l 1565 1132 q 1642 1165 1606 1149 q 1707 1196 1678 1182 l 1707 1196 q 1728 1204 1719 1203 q 1740 1206 1736 1206 l 1740 1206 q 1756 1194 1749 1206 q 1763 1171 1763 1182 l 1763 1171 q 1753 1156 1763 1161 q 1738 1147 1744 1150 l 1738 1147 q 1707 1136 1728 1143 q 1651 1122 1686 1129 l 1651 1122 q 1563 1111 1600 1111 z "},"Ậ":{"ha":1417,"x_min":-1,"x_max":1749,"o":"m 213 -161 l 213 -161 q -1 58 -1 -143 l -1 58 q 74 311 -1 178 l 74 311 q 185 468 118 392 q 333 606 253 544 q 497 704 413 668 q 658 740 581 740 l 658 740 q 796 639 796 740 l 796 639 q 754 488 796 571 l 754 488 q 669 382 713 404 l 669 382 q 660 381 665 381 l 660 381 q 656 383 656 381 l 656 383 l 701 458 q 749 594 749 536 l 749 594 q 726 674 749 636 q 647 711 704 711 l 647 711 q 505 672 578 711 q 364 569 432 633 q 240 428 296 506 q 151 276 185 351 l 151 276 q 81 18 81 117 l 81 18 q 232 -131 81 -131 l 232 -131 q 624 56 376 -131 l 624 56 q 770 176 681 99 q 981 365 860 254 l 981 365 q 939 362 964 364 q 881 354 914 360 l 881 354 q 854 349 867 351 q 831 347 842 347 l 831 347 q 807 361 803 350 l 807 361 q 860 413 813 413 l 860 413 q 941 404 903 407 q 1014 401 979 401 l 1014 401 q 1158 541 1068 451 q 1371 761 1247 631 l 1371 761 q 1565 929 1531 929 l 1565 929 q 1581 901 1581 929 l 1581 901 q 1578 874 1581 890 q 1569 835 1575 857 l 1569 835 q 1540 771 1556 782 l 1540 771 q 1469 692 1497 740 q 1411 586 1440 644 l 1411 586 q 1358 480 1382 526 q 1314 397 1333 433 l 1314 397 l 1449 400 q 1499 393 1499 400 l 1499 393 q 1496 389 1499 392 l 1496 389 q 1296 361 1472 374 l 1296 361 q 1167 17 1167 110 l 1167 17 q 1207 -47 1167 -47 l 1207 -47 q 1246 -28 1222 -47 l 1246 -28 q 1274 -10 1268 -10 l 1274 -10 q 1275 -8 1274 -7 q 1274 -10 1276 -10 l 1274 -10 q 1233 -55 1267 -35 q 1161 -75 1199 -75 l 1161 -75 q 1115 -53 1126 -75 q 1104 8 1104 -31 l 1104 8 q 1211 365 1104 149 l 1211 365 l 1044 361 q 671 42 858 179 l 671 42 q 213 -161 372 -175 z m 1069 403 l 1224 401 q 1290 517 1240 433 q 1425 736 1340 601 l 1425 736 l 1069 403 z m 764 -193 l 764 -193 q 744 -178 754 -193 q 735 -153 735 -164 l 735 -153 q 775 -103 735 -132 l 775 -103 q 817 -87 803 -86 q 824 -100 831 -89 l 824 -100 l 801 -156 q 764 -193 785 -193 z m 1504 971 l 1504 971 q 1499 979 1501 971 q 1501 990 1496 988 l 1501 990 q 1525 1008 1508 996 q 1564 1035 1542 1019 l 1564 1035 q 1616 1069 1596 1054 q 1650 1083 1636 1083 l 1650 1083 q 1671 1075 1663 1083 q 1689 1056 1679 1067 l 1689 1056 q 1709 1035 1700 1044 q 1728 1017 1718 1026 l 1728 1017 q 1742 1001 1735 1010 q 1749 985 1749 993 l 1749 985 q 1742 973 1749 979 q 1722 965 1736 967 l 1722 965 q 1703 972 1713 965 q 1683 989 1694 979 l 1683 989 q 1660 1014 1672 1000 q 1638 1039 1647 1028 l 1638 1039 q 1574 1004 1617 1028 l 1574 1004 q 1533 981 1550 990 q 1504 971 1515 971 z "},"Ầ":{"ha":1417,"x_min":-1,"x_max":1779,"o":"m 213 -161 l 213 -161 q -1 58 -1 -143 l -1 58 q 74 311 -1 178 l 74 311 q 185 468 118 392 q 333 606 253 544 q 497 704 413 668 q 658 740 581 740 l 658 740 q 796 639 796 740 l 796 639 q 754 488 796 571 l 754 488 q 669 382 713 404 l 669 382 q 660 381 665 381 l 660 381 q 656 383 656 381 l 656 383 l 701 458 q 749 594 749 536 l 749 594 q 726 674 749 636 q 647 711 704 711 l 647 711 q 505 672 578 711 q 364 569 432 633 q 240 428 296 506 q 151 276 185 351 l 151 276 q 81 18 81 117 l 81 18 q 232 -131 81 -131 l 232 -131 q 624 56 376 -131 l 624 56 q 770 176 681 99 q 981 365 860 254 l 981 365 q 939 362 964 364 q 881 354 914 360 l 881 354 q 854 349 867 351 q 831 347 842 347 l 831 347 q 807 361 803 350 l 807 361 q 860 413 813 413 l 860 413 q 941 404 903 407 q 1014 401 979 401 l 1014 401 q 1158 541 1068 451 q 1371 761 1247 631 l 1371 761 q 1565 929 1531 929 l 1565 929 q 1581 901 1581 929 l 1581 901 q 1578 874 1581 890 q 1569 835 1575 857 l 1569 835 q 1540 771 1556 782 l 1540 771 q 1469 692 1497 740 q 1411 586 1440 644 l 1411 586 q 1358 480 1382 526 q 1314 397 1333 433 l 1314 397 l 1449 400 q 1499 393 1499 400 l 1499 393 q 1496 389 1499 392 l 1496 389 q 1296 361 1472 374 l 1296 361 q 1167 17 1167 110 l 1167 17 q 1207 -47 1167 -47 l 1207 -47 q 1246 -28 1222 -47 l 1246 -28 q 1274 -10 1268 -10 l 1274 -10 q 1275 -8 1274 -7 q 1274 -10 1276 -10 l 1274 -10 q 1233 -55 1267 -35 q 1161 -75 1199 -75 l 1161 -75 q 1115 -53 1126 -75 q 1104 8 1104 -31 l 1104 8 q 1211 365 1104 149 l 1211 365 l 1044 361 q 671 42 858 179 l 671 42 q 213 -161 372 -175 z m 1069 403 l 1224 401 q 1290 517 1240 433 q 1425 736 1340 601 l 1425 736 l 1069 403 z m 1504 971 l 1504 971 q 1499 979 1501 971 q 1501 990 1496 988 l 1501 990 q 1525 1008 1508 996 q 1564 1035 1542 1019 l 1564 1035 q 1616 1069 1596 1054 q 1650 1083 1636 1083 l 1650 1083 q 1671 1075 1663 1083 q 1689 1056 1679 1067 l 1689 1056 q 1709 1035 1700 1044 q 1728 1017 1718 1026 l 1728 1017 q 1742 1001 1735 1010 q 1749 985 1749 993 l 1749 985 q 1742 973 1749 979 q 1722 965 1736 967 l 1722 965 q 1703 972 1713 965 q 1683 989 1694 979 l 1683 989 q 1660 1014 1672 1000 q 1638 1039 1647 1028 l 1638 1039 q 1574 1004 1617 1028 l 1574 1004 q 1533 981 1550 990 q 1504 971 1515 971 z m 1768 1122 l 1768 1122 q 1679 1133 1731 1122 l 1679 1133 q 1624 1147 1644 1140 q 1593 1158 1603 1154 l 1593 1158 q 1577 1167 1586 1161 q 1568 1182 1568 1172 l 1568 1182 q 1575 1205 1568 1193 q 1590 1217 1582 1217 l 1590 1217 q 1603 1215 1594 1217 q 1624 1207 1611 1214 l 1624 1207 q 1689 1176 1653 1193 q 1765 1143 1725 1160 l 1765 1143 q 1779 1131 1779 1138 l 1779 1131 q 1768 1122 1779 1122 z "},"Ẩ":{"ha":1417,"x_min":-1,"x_max":1929,"o":"m 213 -161 l 213 -161 q -1 58 -1 -143 l -1 58 q 74 311 -1 178 l 74 311 q 185 468 118 392 q 333 606 253 544 q 497 704 413 668 q 658 740 581 740 l 658 740 q 796 639 796 740 l 796 639 q 754 488 796 571 l 754 488 q 669 382 713 404 l 669 382 q 660 381 665 381 l 660 381 q 656 383 656 381 l 656 383 l 701 458 q 749 594 749 536 l 749 594 q 726 674 749 636 q 647 711 704 711 l 647 711 q 505 672 578 711 q 364 569 432 633 q 240 428 296 506 q 151 276 185 351 l 151 276 q 81 18 81 117 l 81 18 q 232 -131 81 -131 l 232 -131 q 624 56 376 -131 l 624 56 q 770 176 681 99 q 981 365 860 254 l 981 365 q 939 362 964 364 q 881 354 914 360 l 881 354 q 854 349 867 351 q 831 347 842 347 l 831 347 q 807 361 803 350 l 807 361 q 860 413 813 413 l 860 413 q 941 404 903 407 q 1014 401 979 401 l 1014 401 q 1158 541 1068 451 q 1371 761 1247 631 l 1371 761 q 1565 929 1531 929 l 1565 929 q 1581 901 1581 929 l 1581 901 q 1578 874 1581 890 q 1569 835 1575 857 l 1569 835 q 1540 771 1556 782 l 1540 771 q 1469 692 1497 740 q 1411 586 1440 644 l 1411 586 q 1358 480 1382 526 q 1314 397 1333 433 l 1314 397 l 1449 400 q 1499 393 1499 400 l 1499 393 q 1496 389 1499 392 l 1496 389 q 1296 361 1472 374 l 1296 361 q 1167 17 1167 110 l 1167 17 q 1207 -47 1167 -47 l 1207 -47 q 1246 -28 1222 -47 l 1246 -28 q 1274 -10 1268 -10 l 1274 -10 q 1275 -8 1274 -7 q 1274 -10 1276 -10 l 1274 -10 q 1233 -55 1267 -35 q 1161 -75 1199 -75 l 1161 -75 q 1115 -53 1126 -75 q 1104 8 1104 -31 l 1104 8 q 1211 365 1104 149 l 1211 365 l 1044 361 q 671 42 858 179 l 671 42 q 213 -161 372 -175 z m 1069 403 l 1224 401 q 1290 517 1240 433 q 1425 736 1340 601 l 1425 736 l 1069 403 z m 1504 971 l 1504 971 q 1499 979 1501 971 q 1501 990 1496 988 l 1501 990 q 1525 1008 1508 996 q 1564 1035 1542 1019 l 1564 1035 q 1616 1069 1596 1054 q 1650 1083 1636 1083 l 1650 1083 q 1671 1075 1663 1083 q 1689 1056 1679 1067 l 1689 1056 q 1709 1035 1700 1044 q 1728 1017 1718 1026 l 1728 1017 q 1742 1001 1735 1010 q 1749 985 1749 993 l 1749 985 q 1742 973 1749 979 q 1722 965 1736 967 l 1722 965 q 1703 972 1713 965 q 1683 989 1694 979 l 1683 989 q 1660 1014 1672 1000 q 1638 1039 1647 1028 l 1638 1039 q 1574 1004 1617 1028 l 1574 1004 q 1533 981 1550 990 q 1504 971 1515 971 z m 1824 1069 l 1819 1069 q 1813 1074 1814 1069 q 1814 1079 1811 1078 l 1814 1079 q 1864 1115 1842 1099 q 1886 1153 1886 1131 l 1886 1153 q 1863 1174 1886 1174 l 1863 1174 q 1828 1165 1849 1174 q 1793 1142 1808 1157 l 1793 1142 q 1792 1141 1793 1142 q 1790 1140 1792 1140 l 1790 1140 q 1788 1143 1789 1140 q 1788 1149 1786 1146 l 1788 1149 q 1827 1197 1799 1181 q 1892 1211 1856 1214 l 1892 1211 q 1919 1197 1910 1210 q 1929 1168 1929 1183 l 1929 1168 q 1919 1132 1929 1147 q 1890 1106 1908 1117 l 1890 1106 q 1847 1079 1864 1089 q 1824 1069 1831 1069 l 1824 1069 z "},"Ẫ":{"ha":1417,"x_min":-1,"x_max":1821,"o":"m 213 -161 l 213 -161 q -1 58 -1 -143 l -1 58 q 74 311 -1 178 l 74 311 q 185 468 118 392 q 333 606 253 544 q 497 704 413 668 q 658 740 581 740 l 658 740 q 796 639 796 740 l 796 639 q 754 488 796 571 l 754 488 q 669 382 713 404 l 669 382 q 660 381 665 381 l 660 381 q 656 383 656 381 l 656 383 l 701 458 q 749 594 749 536 l 749 594 q 726 674 749 636 q 647 711 704 711 l 647 711 q 505 672 578 711 q 364 569 432 633 q 240 428 296 506 q 151 276 185 351 l 151 276 q 81 18 81 117 l 81 18 q 232 -131 81 -131 l 232 -131 q 624 56 376 -131 l 624 56 q 770 176 681 99 q 981 365 860 254 l 981 365 q 939 362 964 364 q 881 354 914 360 l 881 354 q 854 349 867 351 q 831 347 842 347 l 831 347 q 807 361 803 350 l 807 361 q 860 413 813 413 l 860 413 q 941 404 903 407 q 1014 401 979 401 l 1014 401 q 1158 541 1068 451 q 1371 761 1247 631 l 1371 761 q 1565 929 1531 929 l 1565 929 q 1581 901 1581 929 l 1581 901 q 1578 874 1581 890 q 1569 835 1575 857 l 1569 835 q 1540 771 1556 782 l 1540 771 q 1469 692 1497 740 q 1411 586 1440 644 l 1411 586 q 1358 480 1382 526 q 1314 397 1333 433 l 1314 397 l 1449 400 q 1499 393 1499 400 l 1499 393 q 1496 389 1499 392 l 1496 389 q 1296 361 1472 374 l 1296 361 q 1167 17 1167 110 l 1167 17 q 1207 -47 1167 -47 l 1207 -47 q 1246 -28 1222 -47 l 1246 -28 q 1274 -10 1268 -10 l 1274 -10 q 1275 -8 1274 -7 q 1274 -10 1276 -10 l 1274 -10 q 1233 -55 1267 -35 q 1161 -75 1199 -75 l 1161 -75 q 1115 -53 1126 -75 q 1104 8 1104 -31 l 1104 8 q 1211 365 1104 149 l 1211 365 l 1044 361 q 671 42 858 179 l 671 42 q 213 -161 372 -175 z m 1069 403 l 1224 401 q 1290 517 1240 433 q 1425 736 1340 601 l 1425 736 l 1069 403 z m 1504 971 l 1504 971 q 1499 979 1501 971 q 1501 990 1496 988 l 1501 990 q 1525 1008 1508 996 q 1564 1035 1542 1019 l 1564 1035 q 1616 1069 1596 1054 q 1650 1083 1636 1083 l 1650 1083 q 1671 1075 1663 1083 q 1689 1056 1679 1067 l 1689 1056 q 1709 1035 1700 1044 q 1728 1017 1718 1026 l 1728 1017 q 1742 1001 1735 1010 q 1749 985 1749 993 l 1749 985 q 1742 973 1749 979 q 1722 965 1736 967 l 1722 965 q 1703 972 1713 965 q 1683 989 1694 979 l 1683 989 q 1660 1014 1672 1000 q 1638 1039 1647 1028 l 1638 1039 q 1574 1004 1617 1028 l 1574 1004 q 1533 981 1550 990 q 1504 971 1515 971 z m 1733 1114 l 1733 1114 q 1706 1119 1722 1114 q 1667 1133 1689 1124 l 1667 1133 q 1604 1154 1625 1154 l 1604 1154 q 1583 1150 1594 1154 q 1560 1135 1571 1146 l 1560 1135 q 1532 1115 1540 1115 l 1532 1115 q 1531 1118 1531 1117 l 1531 1118 q 1588 1181 1531 1142 l 1588 1181 q 1635 1196 1607 1196 l 1635 1196 q 1697 1179 1656 1196 l 1697 1179 q 1733 1167 1718 1171 q 1758 1164 1749 1164 l 1758 1164 q 1814 1196 1789 1164 l 1814 1196 q 1821 1190 1821 1196 l 1821 1190 q 1769 1126 1821 1165 l 1769 1126 q 1733 1114 1753 1114 z "},"Ȁ":{"ha":1417,"x_min":-1,"x_max":1740,"o":"m 213 -161 l 213 -161 q -1 58 -1 -143 l -1 58 q 74 311 -1 178 l 74 311 q 185 468 118 392 q 333 606 253 544 q 497 704 413 668 q 658 740 581 740 l 658 740 q 796 639 796 740 l 796 639 q 754 488 796 571 l 754 488 q 669 382 713 404 l 669 382 q 660 381 665 381 l 660 381 q 656 383 656 381 l 656 383 l 701 458 q 749 594 749 536 l 749 594 q 726 674 749 636 q 647 711 704 711 l 647 711 q 505 672 578 711 q 364 569 432 633 q 240 428 296 506 q 151 276 185 351 l 151 276 q 81 18 81 117 l 81 18 q 232 -131 81 -131 l 232 -131 q 624 56 376 -131 l 624 56 q 770 176 681 99 q 981 365 860 254 l 981 365 q 939 362 964 364 q 881 354 914 360 l 881 354 q 854 349 867 351 q 831 347 842 347 l 831 347 q 807 361 803 350 l 807 361 q 860 413 813 413 l 860 413 q 941 404 903 407 q 1014 401 979 401 l 1014 401 q 1158 541 1068 451 q 1371 761 1247 631 l 1371 761 q 1565 929 1531 929 l 1565 929 q 1581 901 1581 929 l 1581 901 q 1578 874 1581 890 q 1569 835 1575 857 l 1569 835 q 1540 771 1556 782 l 1540 771 q 1469 692 1497 740 q 1411 586 1440 644 l 1411 586 q 1358 480 1382 526 q 1314 397 1333 433 l 1314 397 l 1449 400 q 1499 393 1499 400 l 1499 393 q 1496 389 1499 392 l 1496 389 q 1296 361 1472 374 l 1296 361 q 1167 17 1167 110 l 1167 17 q 1207 -47 1167 -47 l 1207 -47 q 1246 -28 1222 -47 l 1246 -28 q 1274 -10 1268 -10 l 1274 -10 q 1275 -8 1274 -7 q 1274 -10 1276 -10 l 1274 -10 q 1233 -55 1267 -35 q 1161 -75 1199 -75 l 1161 -75 q 1115 -53 1126 -75 q 1104 8 1104 -31 l 1104 8 q 1211 365 1104 149 l 1211 365 l 1044 361 q 671 42 858 179 l 671 42 q 213 -161 372 -175 z m 1069 403 l 1224 401 q 1290 517 1240 433 q 1425 736 1340 601 l 1425 736 l 1069 403 z m 1729 983 l 1729 983 q 1702 997 1721 986 q 1649 1032 1683 1008 l 1649 1032 q 1605 1068 1621 1053 q 1582 1093 1589 1083 l 1582 1093 q 1573 1106 1578 1099 q 1569 1121 1568 1114 l 1569 1121 q 1583 1140 1571 1131 q 1601 1147 1596 1149 l 1601 1147 q 1622 1131 1610 1146 l 1622 1131 l 1736 1000 q 1740 990 1740 997 l 1740 990 q 1729 983 1738 979 z m 1590 983 l 1590 983 q 1561 993 1582 986 q 1503 1018 1540 1000 l 1503 1018 q 1453 1046 1472 1033 q 1426 1065 1433 1058 l 1426 1065 q 1415 1077 1421 1071 q 1408 1092 1408 1083 l 1408 1092 q 1419 1112 1408 1101 q 1436 1122 1431 1122 l 1436 1122 q 1460 1110 1446 1122 l 1460 1110 l 1594 1001 q 1600 992 1600 997 l 1600 992 q 1590 983 1600 981 z "},"Ä":{"ha":1417,"x_min":-1,"x_max":1768,"o":"m 1521 1024 l 1521 1024 q 1501 1038 1511 1024 q 1492 1064 1492 1053 l 1492 1064 q 1532 1114 1492 1085 l 1532 1114 q 1596 1143 1574 1143 l 1596 1143 q 1598 1142 1597 1143 q 1600 1142 1599 1142 l 1600 1142 q 1581 1117 1599 1142 l 1581 1117 l 1558 1061 q 1521 1024 1542 1024 z m 1689 1024 l 1689 1024 q 1669 1038 1679 1024 q 1660 1064 1660 1053 l 1660 1064 q 1700 1114 1660 1085 l 1700 1114 q 1764 1143 1742 1143 l 1764 1143 q 1766 1142 1765 1143 q 1768 1142 1767 1142 l 1768 1142 q 1749 1117 1767 1142 l 1749 1117 l 1726 1061 q 1689 1024 1710 1024 z m 213 -161 l 213 -161 q -1 58 -1 -143 l -1 58 q 74 311 -1 178 l 74 311 q 349 617 174 489 l 349 617 q 658 740 521 740 l 658 740 q 796 639 796 740 l 796 639 q 754 488 796 571 l 754 488 q 669 382 713 404 l 669 382 q 660 381 665 381 l 660 381 q 656 383 656 381 l 656 383 l 701 458 q 749 594 749 532 l 749 594 q 726 674 749 636 q 647 711 704 711 l 647 711 q 394 596 539 711 l 394 596 q 151 276 238 469 l 151 276 q 81 18 81 117 l 81 18 q 232 -131 81 -131 l 232 -131 q 624 56 376 -131 l 624 56 q 770 176 681 99 q 981 365 860 254 l 981 365 q 939 362 964 364 q 881 354 914 360 l 881 354 q 854 349 867 351 q 831 347 842 347 l 831 347 q 807 361 803 350 l 807 361 q 860 413 813 413 l 860 413 q 941 404 903 407 q 1014 401 979 401 l 1014 401 q 1158 541 1068 451 q 1371 761 1247 631 l 1371 761 q 1565 929 1531 929 l 1565 929 q 1581 901 1581 929 l 1581 901 q 1578 874 1581 890 q 1569 835 1575 857 l 1569 835 q 1540 771 1556 782 l 1540 771 q 1472 700 1508 749 l 1472 700 q 1411 586 1453 672 l 1411 586 q 1358 480 1382 526 q 1314 397 1333 433 l 1314 397 l 1449 400 q 1499 393 1499 400 l 1499 393 q 1496 389 1499 392 l 1496 389 q 1296 361 1472 374 l 1296 361 q 1167 17 1167 110 l 1167 17 q 1207 -47 1167 -47 l 1207 -47 q 1246 -28 1222 -47 l 1246 -28 q 1274 -10 1268 -10 l 1274 -10 q 1278 -17 1278 -10 l 1278 -17 q 1235 -58 1271 -42 q 1161 -75 1199 -75 l 1161 -75 q 1149 -74 1156 -75 q 1138 -72 1143 -74 l 1138 -72 q 1104 8 1104 -60 l 1104 8 q 1211 365 1104 149 l 1211 365 q 1174 365 1197 365 q 1119 363 1151 364 l 1119 363 q 1069 361 1088 361 q 1044 361 1050 361 l 1044 361 q 671 42 858 179 l 671 42 q 213 -161 372 -175 z m 1224 401 l 1224 401 q 1290 517 1240 433 q 1425 736 1340 601 l 1425 736 l 1069 403 l 1151 403 q 1192 401 1174 401 q 1224 401 1210 401 z "},"Ạ":{"ha":1417,"x_min":-1,"x_max":1581,"o":"m 213 -161 l 213 -161 q -1 58 -1 -143 l -1 58 q 74 311 -1 178 l 74 311 q 185 468 118 392 q 333 606 253 544 q 497 704 413 668 q 658 740 581 740 l 658 740 q 796 639 796 740 l 796 639 q 754 488 796 571 l 754 488 q 669 382 713 404 l 669 382 q 660 381 665 381 l 660 381 q 656 383 656 381 l 656 383 l 701 458 q 749 594 749 536 l 749 594 q 726 674 749 636 q 647 711 704 711 l 647 711 q 505 672 578 711 q 364 569 432 633 q 240 428 296 506 q 151 276 185 351 l 151 276 q 81 18 81 117 l 81 18 q 232 -131 81 -131 l 232 -131 q 624 56 376 -131 l 624 56 q 770 176 681 99 q 981 365 860 254 l 981 365 q 939 362 964 364 q 881 354 914 360 l 881 354 q 854 349 867 351 q 831 347 842 347 l 831 347 q 807 361 803 350 l 807 361 q 860 413 813 413 l 860 413 q 941 404 903 407 q 1014 401 979 401 l 1014 401 q 1158 541 1068 451 q 1371 761 1247 631 l 1371 761 q 1565 929 1531 929 l 1565 929 q 1581 901 1581 929 l 1581 901 q 1578 874 1581 890 q 1569 835 1575 857 l 1569 835 q 1540 771 1556 782 l 1540 771 q 1469 692 1497 740 q 1411 586 1440 644 l 1411 586 q 1358 480 1382 526 q 1314 397 1333 433 l 1314 397 l 1449 400 q 1499 393 1499 400 l 1499 393 q 1496 389 1499 392 l 1496 389 q 1296 361 1472 374 l 1296 361 q 1167 17 1167 110 l 1167 17 q 1207 -47 1167 -47 l 1207 -47 q 1246 -28 1222 -47 l 1246 -28 q 1274 -10 1268 -10 l 1274 -10 q 1275 -8 1274 -7 q 1274 -10 1276 -10 l 1274 -10 q 1233 -55 1267 -35 q 1161 -75 1199 -75 l 1161 -75 q 1115 -53 1126 -75 q 1104 8 1104 -31 l 1104 8 q 1211 365 1104 149 l 1211 365 l 1044 361 q 671 42 858 179 l 671 42 q 213 -161 372 -175 z m 1069 403 l 1224 401 q 1290 517 1240 433 q 1425 736 1340 601 l 1425 736 l 1069 403 z m 764 -193 l 764 -193 q 744 -178 754 -193 q 735 -153 735 -164 l 735 -153 q 775 -103 735 -132 l 775 -103 q 817 -87 803 -86 q 824 -100 831 -89 l 824 -100 l 801 -156 q 764 -193 785 -193 z "},"À":{"ha":1417,"x_min":-1,"x_max":1694,"o":"m 213 -161 l 213 -161 q -1 58 -1 -143 l -1 58 q 74 311 -1 178 l 74 311 q 185 468 118 392 q 333 606 253 544 q 497 704 413 668 q 658 740 581 740 l 658 740 q 796 639 796 740 l 796 639 q 754 488 796 571 l 754 488 q 669 382 713 404 l 669 382 q 660 381 665 381 l 660 381 q 656 383 656 381 l 656 383 l 701 458 q 749 594 749 536 l 749 594 q 726 674 749 636 q 647 711 704 711 l 647 711 q 505 672 578 711 q 364 569 432 633 q 240 428 296 506 q 151 276 185 351 l 151 276 q 81 18 81 117 l 81 18 q 232 -131 81 -131 l 232 -131 q 624 56 376 -131 l 624 56 q 770 176 681 99 q 981 365 860 254 l 981 365 q 939 362 964 364 q 881 354 914 360 l 881 354 q 854 349 867 351 q 831 347 842 347 l 831 347 q 807 361 803 350 l 807 361 q 860 413 813 413 l 860 413 q 941 404 903 407 q 1014 401 979 401 l 1014 401 q 1158 541 1068 451 q 1371 761 1247 631 l 1371 761 q 1565 929 1531 929 l 1565 929 q 1581 901 1581 929 l 1581 901 q 1578 874 1581 890 q 1569 835 1575 857 l 1569 835 q 1540 771 1556 782 l 1540 771 q 1469 692 1497 740 q 1411 586 1440 644 l 1411 586 q 1358 480 1382 526 q 1314 397 1333 433 l 1314 397 l 1449 400 q 1499 393 1499 400 l 1499 393 q 1496 389 1499 392 l 1496 389 q 1296 361 1472 374 l 1296 361 q 1167 17 1167 110 l 1167 17 q 1207 -47 1167 -47 l 1207 -47 q 1246 -28 1222 -47 l 1246 -28 q 1274 -10 1268 -10 l 1274 -10 q 1275 -8 1274 -7 q 1274 -10 1276 -10 l 1274 -10 q 1233 -55 1267 -35 q 1161 -75 1199 -75 l 1161 -75 q 1115 -53 1126 -75 q 1104 8 1104 -31 l 1104 8 q 1211 365 1104 149 l 1211 365 l 1044 361 q 671 42 858 179 l 671 42 q 213 -161 372 -175 z m 1069 403 l 1224 401 q 1290 517 1240 433 q 1425 736 1340 601 l 1425 736 l 1069 403 z m 1683 990 l 1683 990 q 1594 1001 1646 990 l 1594 1001 q 1539 1015 1560 1008 q 1508 1026 1518 1022 l 1508 1026 q 1492 1035 1501 1029 q 1483 1050 1483 1040 l 1483 1050 q 1490 1073 1483 1061 q 1506 1085 1497 1085 l 1506 1085 q 1518 1083 1510 1085 q 1539 1075 1526 1082 l 1539 1075 q 1604 1044 1568 1061 q 1681 1011 1640 1028 l 1681 1011 q 1694 999 1694 1006 l 1694 999 q 1683 990 1694 990 z "},"Ả":{"ha":1417,"x_min":-1,"x_max":1688,"o":"m 213 -161 l 213 -161 q -1 58 -1 -143 l -1 58 q 74 311 -1 178 l 74 311 q 185 468 118 392 q 333 606 253 544 q 497 704 413 668 q 658 740 581 740 l 658 740 q 796 639 796 740 l 796 639 q 754 488 796 571 l 754 488 q 669 382 713 404 l 669 382 q 660 381 665 381 l 660 381 q 656 383 656 381 l 656 383 l 701 458 q 749 594 749 536 l 749 594 q 726 674 749 636 q 647 711 704 711 l 647 711 q 505 672 578 711 q 364 569 432 633 q 240 428 296 506 q 151 276 185 351 l 151 276 q 81 18 81 117 l 81 18 q 232 -131 81 -131 l 232 -131 q 624 56 376 -131 l 624 56 q 770 176 681 99 q 981 365 860 254 l 981 365 q 939 362 964 364 q 881 354 914 360 l 881 354 q 854 349 867 351 q 831 347 842 347 l 831 347 q 807 361 803 350 l 807 361 q 860 413 813 413 l 860 413 q 941 404 903 407 q 1014 401 979 401 l 1014 401 q 1158 541 1068 451 q 1371 761 1247 631 l 1371 761 q 1565 929 1531 929 l 1565 929 q 1581 901 1581 929 l 1581 901 q 1578 874 1581 890 q 1569 835 1575 857 l 1569 835 q 1540 771 1556 782 l 1540 771 q 1469 692 1497 740 q 1411 586 1440 644 l 1411 586 q 1358 480 1382 526 q 1314 397 1333 433 l 1314 397 l 1449 400 q 1499 393 1499 400 l 1499 393 q 1496 389 1499 392 l 1496 389 q 1296 361 1472 374 l 1296 361 q 1167 17 1167 110 l 1167 17 q 1207 -47 1167 -47 l 1207 -47 q 1246 -28 1222 -47 l 1246 -28 q 1274 -10 1268 -10 l 1274 -10 q 1275 -8 1274 -7 q 1274 -10 1276 -10 l 1274 -10 q 1233 -55 1267 -35 q 1161 -75 1199 -75 l 1161 -75 q 1115 -53 1126 -75 q 1104 8 1104 -31 l 1104 8 q 1211 365 1104 149 l 1211 365 l 1044 361 q 671 42 858 179 l 671 42 q 213 -161 372 -175 z m 1069 403 l 1224 401 q 1290 517 1240 433 q 1425 736 1340 601 l 1425 736 l 1069 403 z m 1582 988 l 1578 988 q 1571 992 1572 988 q 1572 997 1569 996 l 1572 997 q 1622 1033 1600 1017 q 1644 1071 1644 1049 l 1644 1071 q 1621 1092 1644 1092 l 1621 1092 q 1587 1083 1607 1092 q 1551 1060 1567 1075 l 1551 1060 q 1551 1059 1551 1060 q 1549 1058 1550 1058 l 1549 1058 q 1546 1061 1547 1058 q 1546 1067 1544 1064 l 1546 1067 q 1585 1115 1557 1099 q 1650 1129 1614 1132 l 1650 1129 q 1678 1115 1668 1128 q 1688 1086 1688 1101 l 1688 1086 q 1677 1050 1688 1065 q 1649 1024 1667 1035 l 1649 1024 q 1606 997 1622 1007 q 1582 988 1589 988 l 1582 988 z "},"Ȃ":{"ha":1417,"x_min":-1,"x_max":1774,"o":"m 213 -161 l 213 -161 q -1 58 -1 -143 l -1 58 q 74 311 -1 178 l 74 311 q 185 468 118 392 q 333 606 253 544 q 497 704 413 668 q 658 740 581 740 l 658 740 q 796 639 796 740 l 796 639 q 754 488 796 571 l 754 488 q 669 382 713 404 l 669 382 q 660 381 665 381 l 660 381 q 656 383 656 381 l 656 383 l 701 458 q 749 594 749 536 l 749 594 q 726 674 749 636 q 647 711 704 711 l 647 711 q 505 672 578 711 q 364 569 432 633 q 240 428 296 506 q 151 276 185 351 l 151 276 q 81 18 81 117 l 81 18 q 232 -131 81 -131 l 232 -131 q 624 56 376 -131 l 624 56 q 770 176 681 99 q 981 365 860 254 l 981 365 q 939 362 964 364 q 881 354 914 360 l 881 354 q 854 349 867 351 q 831 347 842 347 l 831 347 q 807 361 803 350 l 807 361 q 860 413 813 413 l 860 413 q 941 404 903 407 q 1014 401 979 401 l 1014 401 q 1158 541 1068 451 q 1371 761 1247 631 l 1371 761 q 1565 929 1531 929 l 1565 929 q 1581 901 1581 929 l 1581 901 q 1578 874 1581 890 q 1569 835 1575 857 l 1569 835 q 1540 771 1556 782 l 1540 771 q 1469 692 1497 740 q 1411 586 1440 644 l 1411 586 q 1358 480 1382 526 q 1314 397 1333 433 l 1314 397 l 1449 400 q 1499 393 1499 400 l 1499 393 q 1496 389 1499 392 l 1496 389 q 1296 361 1472 374 l 1296 361 q 1167 17 1167 110 l 1167 17 q 1207 -47 1167 -47 l 1207 -47 q 1246 -28 1222 -47 l 1246 -28 q 1274 -10 1268 -10 l 1274 -10 q 1275 -8 1274 -7 q 1274 -10 1276 -10 l 1274 -10 q 1233 -55 1267 -35 q 1161 -75 1199 -75 l 1161 -75 q 1115 -53 1126 -75 q 1104 8 1104 -31 l 1104 8 q 1211 365 1104 149 l 1211 365 l 1044 361 q 671 42 858 179 l 671 42 q 213 -161 372 -175 z m 1069 403 l 1224 401 q 1290 517 1240 433 q 1425 736 1340 601 l 1425 736 l 1069 403 z m 1696 1150 l 1696 1150 q 1755 1127 1736 1150 q 1771 1065 1774 1104 l 1771 1065 q 1764 1031 1769 1049 q 1744 1014 1758 1014 l 1744 1014 q 1732 1023 1735 1014 q 1729 1040 1729 1032 l 1729 1040 q 1671 1096 1725 1096 l 1671 1096 q 1597 1081 1635 1096 q 1526 1038 1560 1065 l 1526 1038 q 1489 1014 1497 1014 l 1489 1014 q 1482 1019 1482 1014 l 1482 1019 q 1490 1033 1482 1022 q 1521 1065 1499 1043 l 1521 1065 q 1601 1124 1554 1099 q 1696 1150 1647 1150 z "},"Ā":{"ha":1417,"x_min":-1,"x_max":1746,"o":"m 213 -161 l 213 -161 q -1 58 -1 -143 l -1 58 q 74 311 -1 178 l 74 311 q 185 468 118 392 q 333 606 253 544 q 497 704 413 668 q 658 740 581 740 l 658 740 q 796 639 796 740 l 796 639 q 754 488 796 571 l 754 488 q 669 382 713 404 l 669 382 q 660 381 665 381 l 660 381 q 656 383 656 381 l 656 383 l 701 458 q 749 594 749 536 l 749 594 q 726 674 749 636 q 647 711 704 711 l 647 711 q 505 672 578 711 q 364 569 432 633 q 240 428 296 506 q 151 276 185 351 l 151 276 q 81 18 81 117 l 81 18 q 232 -131 81 -131 l 232 -131 q 624 56 376 -131 l 624 56 q 770 176 681 99 q 981 365 860 254 l 981 365 q 939 362 964 364 q 881 354 914 360 l 881 354 q 854 349 867 351 q 831 347 842 347 l 831 347 q 807 361 803 350 l 807 361 q 860 413 813 413 l 860 413 q 941 404 903 407 q 1014 401 979 401 l 1014 401 q 1158 541 1068 451 q 1371 761 1247 631 l 1371 761 q 1565 929 1531 929 l 1565 929 q 1581 901 1581 929 l 1581 901 q 1578 874 1581 890 q 1569 835 1575 857 l 1569 835 q 1540 771 1556 782 l 1540 771 q 1469 692 1497 740 q 1411 586 1440 644 l 1411 586 q 1358 480 1382 526 q 1314 397 1333 433 l 1314 397 l 1449 400 q 1499 393 1499 400 l 1499 393 q 1496 389 1499 392 l 1496 389 q 1296 361 1472 374 l 1296 361 q 1167 17 1167 110 l 1167 17 q 1207 -47 1167 -47 l 1207 -47 q 1246 -28 1222 -47 l 1246 -28 q 1274 -10 1268 -10 l 1274 -10 q 1275 -8 1274 -7 q 1274 -10 1276 -10 l 1274 -10 q 1233 -55 1267 -35 q 1161 -75 1199 -75 l 1161 -75 q 1115 -53 1126 -75 q 1104 8 1104 -31 l 1104 8 q 1211 365 1104 149 l 1211 365 l 1044 361 q 671 42 858 179 l 671 42 q 213 -161 372 -175 z m 1069 403 l 1224 401 q 1290 517 1240 433 q 1425 736 1340 601 l 1425 736 l 1069 403 z m 1486 997 l 1486 997 q 1469 1013 1479 997 q 1457 1038 1458 1029 l 1457 1038 l 1460 1039 q 1508 1047 1474 1046 q 1594 1049 1542 1049 l 1594 1049 q 1742 1032 1708 1049 l 1742 1032 q 1746 1028 1746 1031 l 1746 1028 q 1744 1019 1746 1025 q 1738 1014 1742 1014 l 1738 1014 q 1611 1006 1694 1014 l 1611 1006 q 1486 997 1528 997 z "},"Ą":{"ha":1417,"x_min":-1,"x_max":1581,"o":"m 213 -161 l 213 -161 q -1 58 -1 -143 l -1 58 q 74 311 -1 178 l 74 311 q 185 468 118 392 q 333 606 253 544 q 497 704 413 668 q 658 740 581 740 l 658 740 q 796 639 796 740 l 796 639 q 754 488 796 571 l 754 488 q 669 382 713 404 l 669 382 q 660 381 665 381 l 660 381 q 656 383 656 381 l 656 383 l 701 458 q 749 594 749 536 l 749 594 q 726 674 749 636 q 647 711 704 711 l 647 711 q 505 672 578 711 q 364 569 432 633 q 240 428 296 506 q 151 276 185 351 l 151 276 q 81 18 81 117 l 81 18 q 232 -131 81 -131 l 232 -131 q 624 56 376 -131 l 624 56 q 770 176 681 99 q 981 365 860 254 l 981 365 q 939 362 964 364 q 881 354 914 360 l 881 354 q 854 349 867 351 q 831 347 842 347 l 831 347 q 807 361 803 350 l 807 361 q 860 413 813 413 l 860 413 q 941 404 903 407 q 1014 401 979 401 l 1014 401 q 1158 541 1068 451 q 1371 761 1247 631 l 1371 761 q 1565 929 1531 929 l 1565 929 q 1581 901 1581 929 l 1581 901 q 1578 874 1581 890 q 1569 835 1575 857 l 1569 835 q 1540 771 1556 782 l 1540 771 q 1469 692 1497 740 q 1411 586 1440 644 l 1411 586 q 1358 480 1382 526 q 1314 397 1333 433 l 1314 397 l 1449 400 q 1499 393 1499 400 l 1499 393 q 1496 389 1499 392 l 1496 389 q 1296 361 1472 374 l 1296 361 q 1167 17 1167 110 l 1167 17 q 1207 -47 1167 -47 l 1207 -47 q 1246 -28 1222 -47 l 1246 -28 q 1274 -10 1268 -10 l 1274 -10 q 1275 -8 1274 -7 q 1274 -10 1276 -10 l 1274 -10 q 1233 -55 1267 -35 q 1161 -75 1199 -75 l 1161 -75 q 1115 -53 1126 -75 q 1104 8 1104 -31 l 1104 8 q 1211 365 1104 149 l 1211 365 l 1044 361 q 671 42 858 179 l 671 42 q 213 -161 372 -175 z m 1069 403 l 1224 401 q 1290 517 1240 433 q 1425 736 1340 601 l 1425 736 l 1069 403 z m 1294 -215 l 1294 -215 q 1228 -278 1294 -256 l 1228 -278 q 1179 -290 1200 -287 q 1144 -293 1158 -293 l 1144 -293 q 1068 -235 1068 -293 l 1068 -235 q 1094 -139 1068 -197 l 1094 -139 q 1156 -71 1125 -72 l 1156 -71 l 1160 -75 q 1113 -197 1113 -140 l 1113 -197 q 1175 -254 1113 -254 l 1175 -254 q 1244 -239 1207 -254 q 1294 -215 1281 -224 z "},"Å":{"ha":1417,"x_min":-1,"x_max":1704,"o":"m 213 -161 l 213 -161 q -1 58 -1 -143 l -1 58 q 74 311 -1 178 l 74 311 q 349 617 174 489 l 349 617 q 658 740 521 740 l 658 740 q 796 639 796 740 l 796 639 q 754 488 796 571 l 754 488 q 669 382 713 404 l 669 382 q 660 381 665 381 l 660 381 q 656 383 656 381 l 656 383 l 701 458 q 749 594 749 532 l 749 594 q 726 674 749 636 q 647 711 704 711 l 647 711 q 394 596 539 711 l 394 596 q 151 276 238 469 l 151 276 q 81 18 81 117 l 81 18 q 232 -131 81 -131 l 232 -131 q 624 56 376 -131 l 624 56 q 770 176 681 99 q 981 365 860 254 l 981 365 q 939 362 964 364 q 881 354 914 360 l 881 354 q 854 349 867 351 q 831 347 842 347 l 831 347 q 807 361 803 350 l 807 361 q 860 413 813 413 l 860 413 q 941 404 903 407 q 1014 401 979 401 l 1014 401 q 1158 541 1068 451 q 1371 761 1247 631 l 1371 761 q 1542 919 1492 889 l 1542 919 q 1519 965 1519 932 l 1519 965 q 1533 1026 1519 997 l 1533 1026 q 1574 1071 1550 1064 l 1574 1071 q 1644 1115 1597 1115 l 1644 1115 q 1688 1094 1671 1115 q 1704 1043 1704 1072 l 1704 1043 q 1665 953 1704 993 l 1665 953 q 1579 913 1625 913 l 1579 913 q 1581 901 1581 908 l 1581 901 q 1578 874 1581 890 q 1569 835 1575 857 l 1569 835 q 1540 771 1556 782 l 1540 771 q 1472 700 1508 749 l 1472 700 q 1411 586 1453 672 l 1411 586 q 1358 480 1382 526 q 1314 397 1333 433 l 1314 397 l 1449 400 q 1499 393 1499 400 l 1499 393 q 1496 389 1499 392 l 1496 389 q 1296 361 1472 374 l 1296 361 q 1167 17 1167 110 l 1167 17 q 1207 -47 1167 -47 l 1207 -47 q 1246 -28 1222 -47 l 1246 -28 q 1274 -10 1268 -10 l 1274 -10 q 1278 -17 1278 -10 l 1278 -17 q 1235 -58 1271 -42 q 1161 -75 1199 -75 l 1161 -75 q 1149 -74 1156 -75 q 1138 -72 1143 -74 l 1138 -72 q 1104 8 1104 -60 l 1104 8 q 1211 365 1104 149 l 1211 365 q 1174 365 1197 365 q 1119 363 1151 364 l 1119 363 q 1069 361 1088 361 q 1044 361 1050 361 l 1044 361 q 671 42 858 179 l 671 42 q 213 -161 372 -175 z m 1592 939 l 1592 939 q 1648 972 1625 939 q 1671 1040 1671 1006 l 1671 1040 q 1640 1090 1671 1090 l 1640 1090 q 1600 1072 1624 1090 l 1600 1072 l 1615 1064 q 1606 1048 1614 1058 q 1588 1019 1599 1038 l 1588 1019 q 1571 967 1571 994 l 1571 967 q 1592 939 1571 939 z m 1224 401 l 1224 401 q 1290 517 1240 433 q 1425 736 1340 601 l 1425 736 l 1069 403 l 1151 403 q 1192 401 1174 401 q 1224 401 1210 401 z "},"Ǻ":{"ha":1417,"x_min":-1,"x_max":1803,"o":"m 213 -161 l 213 -161 q -1 58 -1 -143 l -1 58 q 74 311 -1 178 l 74 311 q 185 468 118 392 q 333 606 253 544 q 497 704 413 668 q 658 740 581 740 l 658 740 q 796 639 796 740 l 796 639 q 754 488 796 571 l 754 488 q 669 382 713 404 l 669 382 q 660 381 665 381 l 660 381 q 656 383 656 381 l 656 383 l 701 458 q 749 594 749 536 l 749 594 q 726 674 749 636 q 647 711 704 711 l 647 711 q 505 672 578 711 q 364 569 432 633 q 240 428 296 506 q 151 276 185 351 l 151 276 q 81 18 81 117 l 81 18 q 232 -131 81 -131 l 232 -131 q 624 56 376 -131 l 624 56 q 770 176 681 99 q 981 365 860 254 l 981 365 q 939 362 964 364 q 881 354 914 360 l 881 354 q 854 349 867 351 q 831 347 842 347 l 831 347 q 807 361 803 350 l 807 361 q 860 413 813 413 l 860 413 q 941 404 903 407 q 1014 401 979 401 l 1014 401 q 1158 541 1068 451 q 1371 761 1247 631 l 1371 761 q 1565 929 1531 929 l 1565 929 q 1581 901 1581 929 l 1581 901 q 1578 874 1581 890 q 1569 835 1575 857 l 1569 835 q 1540 771 1556 782 l 1540 771 q 1469 692 1497 740 q 1411 586 1440 644 l 1411 586 q 1358 480 1382 526 q 1314 397 1333 433 l 1314 397 l 1449 400 q 1499 393 1499 400 l 1499 393 q 1496 389 1499 392 l 1496 389 q 1296 361 1472 374 l 1296 361 q 1167 17 1167 110 l 1167 17 q 1207 -47 1167 -47 l 1207 -47 q 1246 -28 1222 -47 l 1246 -28 q 1274 -10 1268 -10 l 1274 -10 q 1275 -8 1274 -7 q 1274 -10 1276 -10 l 1274 -10 q 1233 -55 1267 -35 q 1161 -75 1199 -75 l 1161 -75 q 1115 -53 1126 -75 q 1104 8 1104 -31 l 1104 8 q 1211 365 1104 149 l 1211 365 l 1044 361 q 671 42 858 179 l 671 42 q 213 -161 372 -175 z m 1069 403 l 1224 401 q 1290 517 1240 433 q 1425 736 1340 601 l 1425 736 l 1069 403 z m 1588 985 l 1588 985 q 1531 1038 1531 985 l 1531 1038 q 1544 1099 1531 1069 l 1544 1099 q 1585 1143 1561 1136 l 1585 1143 q 1656 1188 1608 1188 l 1656 1188 q 1699 1166 1682 1188 q 1715 1115 1715 1144 l 1715 1115 q 1676 1025 1715 1065 l 1676 1025 q 1588 985 1636 985 z m 1603 1011 l 1603 1011 q 1659 1044 1636 1011 q 1682 1113 1682 1078 l 1682 1113 q 1651 1163 1682 1163 l 1651 1163 q 1611 1144 1635 1163 l 1611 1144 l 1626 1136 q 1617 1120 1625 1131 q 1599 1092 1610 1110 l 1599 1092 q 1582 1039 1582 1067 l 1582 1039 q 1603 1011 1582 1011 z m 1603 1242 l 1603 1242 q 1592 1250 1592 1242 l 1592 1250 q 1606 1263 1592 1257 l 1606 1263 q 1682 1296 1646 1279 q 1747 1326 1718 1313 l 1747 1326 q 1768 1335 1760 1333 q 1781 1336 1776 1336 l 1781 1336 q 1796 1324 1789 1336 q 1803 1301 1803 1313 l 1803 1301 q 1794 1286 1803 1292 q 1778 1278 1785 1281 l 1778 1278 q 1747 1267 1768 1274 q 1692 1253 1726 1260 l 1692 1253 q 1603 1242 1640 1242 z "},"Ã":{"ha":1417,"x_min":-1,"x_max":1768,"o":"m 213 -161 l 213 -161 q -1 58 -1 -143 l -1 58 q 74 311 -1 178 l 74 311 q 185 468 118 392 q 333 606 253 544 q 497 704 413 668 q 658 740 581 740 l 658 740 q 796 639 796 740 l 796 639 q 754 488 796 571 l 754 488 q 669 382 713 404 l 669 382 q 660 381 665 381 l 660 381 q 656 383 656 381 l 656 383 l 701 458 q 749 594 749 536 l 749 594 q 726 674 749 636 q 647 711 704 711 l 647 711 q 505 672 578 711 q 364 569 432 633 q 240 428 296 506 q 151 276 185 351 l 151 276 q 81 18 81 117 l 81 18 q 232 -131 81 -131 l 232 -131 q 624 56 376 -131 l 624 56 q 770 176 681 99 q 981 365 860 254 l 981 365 q 939 362 964 364 q 881 354 914 360 l 881 354 q 854 349 867 351 q 831 347 842 347 l 831 347 q 807 361 803 350 l 807 361 q 860 413 813 413 l 860 413 q 941 404 903 407 q 1014 401 979 401 l 1014 401 q 1158 541 1068 451 q 1371 761 1247 631 l 1371 761 q 1565 929 1531 929 l 1565 929 q 1581 901 1581 929 l 1581 901 q 1578 874 1581 890 q 1569 835 1575 857 l 1569 835 q 1540 771 1556 782 l 1540 771 q 1469 692 1497 740 q 1411 586 1440 644 l 1411 586 q 1358 480 1382 526 q 1314 397 1333 433 l 1314 397 l 1449 400 q 1499 393 1499 400 l 1499 393 q 1496 389 1499 392 l 1496 389 q 1296 361 1472 374 l 1296 361 q 1167 17 1167 110 l 1167 17 q 1207 -47 1167 -47 l 1207 -47 q 1246 -28 1222 -47 l 1246 -28 q 1274 -10 1268 -10 l 1274 -10 q 1275 -8 1274 -7 q 1274 -10 1276 -10 l 1274 -10 q 1233 -55 1267 -35 q 1161 -75 1199 -75 l 1161 -75 q 1115 -53 1126 -75 q 1104 8 1104 -31 l 1104 8 q 1211 365 1104 149 l 1211 365 l 1044 361 q 671 42 858 179 l 671 42 q 213 -161 372 -175 z m 1069 403 l 1224 401 q 1290 517 1240 433 q 1425 736 1340 601 l 1425 736 l 1069 403 z m 1681 994 l 1681 994 q 1653 999 1669 994 q 1614 1014 1636 1004 l 1614 1014 q 1551 1035 1572 1035 l 1551 1035 q 1530 1031 1542 1035 q 1507 1015 1518 1026 l 1507 1015 q 1479 996 1488 996 l 1479 996 q 1478 999 1478 997 l 1478 999 q 1535 1061 1478 1022 l 1535 1061 q 1582 1076 1554 1076 l 1582 1076 q 1644 1060 1603 1076 l 1644 1060 q 1681 1048 1665 1051 q 1706 1044 1696 1044 l 1706 1044 q 1761 1076 1736 1044 l 1761 1076 q 1768 1071 1768 1076 l 1768 1071 q 1717 1007 1768 1046 l 1717 1007 q 1681 994 1700 994 z "},"B":{"ha":1138,"x_min":25,"x_max":1242,"o":"m 589 -65 l 589 -65 q 290 85 369 -65 l 290 85 q 86 -35 147 -35 l 86 -35 q 41 -7 57 -35 q 25 56 25 21 l 25 56 q 89 250 25 139 l 89 250 q 150 339 117 299 q 225 379 183 379 l 225 379 q 286 313 265 379 l 286 313 l 328 179 q 377 237 350 203 q 438 317 404 271 l 438 317 l 561 483 q 860 807 789 779 l 860 807 q 910 817 885 817 l 910 817 q 955 805 938 817 q 972 778 972 793 l 972 778 q 932 749 972 753 l 932 749 q 769 608 890 725 l 769 608 q 680 519 714 554 q 633 465 646 483 l 633 465 q 346 132 478 249 l 346 132 q 600 -36 431 -36 l 600 -36 q 730 -9 664 -36 q 852 63 796 18 q 943 162 908 107 q 978 271 978 217 l 978 271 q 938 374 978 328 q 839 439 897 419 l 839 439 q 818 442 839 439 q 754 450 797 444 l 754 450 q 689 476 689 458 l 689 476 q 705 499 689 489 q 738 508 721 508 l 738 508 q 767 503 750 508 q 797 492 783 497 q 810 488 810 488 l 810 488 q 835 485 821 486 q 863 485 849 485 l 863 485 q 1029 514 954 485 l 1029 514 q 1135 594 1101 543 q 1168 714 1168 646 l 1168 714 q 1124 824 1168 783 q 1009 881 1081 864 q 854 899 938 899 l 854 899 q 545 851 692 899 q 292 694 399 804 l 292 694 q 210 553 210 610 l 210 553 q 231 485 210 513 l 231 485 q 243 471 236 478 q 260 457 250 464 l 260 457 q 251 453 267 453 l 251 453 q 165 568 165 472 l 165 568 q 263 749 165 664 l 263 749 q 434 854 338 814 q 638 913 531 894 q 851 931 746 931 l 851 931 q 996 919 926 931 q 1121 883 1065 908 q 1209 815 1176 857 q 1242 713 1242 774 l 1242 713 q 1196 575 1242 626 q 1072 496 1150 524 l 1072 496 q 875 463 981 464 l 875 463 q 977 432 933 460 q 1045 360 1021 404 q 1069 263 1069 315 l 1069 263 q 1027 131 1069 192 q 914 27 985 71 q 758 -41 843 -17 q 589 -65 674 -65 z m 104 -3 l 104 -3 q 275 124 149 -3 l 275 124 l 271 129 q 182 314 215 314 l 182 314 q 175 311 181 314 l 175 311 q 72 72 72 163 l 72 72 q 80 25 72 53 q 104 -3 88 -3 z "},"C":{"ha":1008,"x_min":43,"x_max":1107,"o":"m 365 -90 l 365 -90 q 127 -8 211 -90 q 43 204 43 74 l 43 204 q 102 438 43 324 q 251 647 161 551 l 251 647 q 420 782 325 725 q 620 871 515 839 q 825 903 725 903 l 825 903 q 968 881 904 903 q 1069 814 1032 860 q 1107 694 1107 768 l 1107 694 q 1076 573 1107 629 q 992 475 1044 517 q 878 410 940 433 q 751 386 815 386 l 751 386 q 611 424 668 386 q 554 521 554 463 l 554 521 q 650 668 554 596 l 650 668 q 676 681 667 681 l 676 681 q 683 675 683 681 l 683 675 q 661 653 683 661 l 661 653 q 583 526 583 590 l 583 526 q 625 449 583 481 q 729 418 667 418 l 729 418 q 841 442 785 418 q 944 506 897 465 q 1020 597 992 546 q 1049 703 1049 647 l 1049 703 q 988 835 1049 793 q 832 876 926 876 l 832 876 q 620 836 725 876 q 424 725 515 796 q 260 563 332 654 l 260 563 q 115 221 115 381 l 115 221 q 154 77 115 136 q 262 -12 193 18 q 419 -43 331 -43 l 419 -43 q 675 15 551 -43 q 886 169 799 72 l 886 169 q 921 194 910 194 l 921 194 q 929 182 929 194 l 929 182 q 914 150 929 165 l 914 150 q 801 57 867 100 q 662 -19 736 14 q 511 -72 588 -53 q 365 -90 435 -90 z "},"Ć":{"ha":1008,"x_min":43,"x_max":1107,"o":"m 365 -90 l 365 -90 q 127 -8 211 -90 q 43 204 43 74 l 43 204 q 102 438 43 324 q 251 647 161 551 l 251 647 q 420 782 325 725 q 620 871 515 839 q 825 903 725 903 l 825 903 q 968 881 904 903 q 1069 814 1032 860 q 1107 694 1107 768 l 1107 694 q 1076 573 1107 629 q 992 475 1044 517 q 878 410 940 433 q 751 386 815 386 l 751 386 q 611 424 668 386 q 554 521 554 463 l 554 521 q 650 668 554 596 l 650 668 q 676 681 667 681 l 676 681 q 683 675 683 681 l 683 675 q 661 653 683 661 l 661 653 q 583 526 583 590 l 583 526 q 625 449 583 481 q 729 418 667 418 l 729 418 q 841 442 785 418 q 944 506 897 465 q 1020 597 992 546 q 1049 703 1049 647 l 1049 703 q 988 835 1049 793 q 832 876 926 876 l 832 876 q 620 836 725 876 q 424 725 515 796 q 260 563 332 654 l 260 563 q 115 221 115 381 l 115 221 q 154 77 115 136 q 262 -12 193 18 q 419 -43 331 -43 l 419 -43 q 675 15 551 -43 q 886 169 799 72 l 886 169 q 921 194 910 194 l 921 194 q 929 182 929 194 l 929 182 q 914 150 929 165 l 914 150 q 801 57 867 100 q 662 -19 736 14 q 511 -72 588 -53 q 365 -90 435 -90 z m 814 964 l 814 964 q 804 972 804 961 l 804 972 q 810 982 804 978 l 810 982 l 944 1090 q 968 1103 960 1103 l 968 1103 q 985 1094 975 1103 q 996 1075 996 1085 l 996 1075 q 990 1059 996 1065 q 978 1047 985 1053 l 978 1047 q 950 1030 969 1042 q 894 1000 931 1018 l 894 1000 q 842 976 863 985 q 814 964 822 967 z "},"Č":{"ha":1008,"x_min":43,"x_max":1107,"o":"m 365 -90 l 365 -90 q 127 -8 211 -90 q 43 204 43 74 l 43 204 q 102 438 43 324 q 251 647 161 551 l 251 647 q 420 782 325 725 q 620 871 515 839 q 825 903 725 903 l 825 903 q 968 881 904 903 q 1069 814 1032 860 q 1107 694 1107 768 l 1107 694 q 1076 573 1107 629 q 992 475 1044 517 q 878 410 940 433 q 751 386 815 386 l 751 386 q 611 424 668 386 q 554 521 554 463 l 554 521 q 650 668 554 596 l 650 668 q 676 681 667 681 l 676 681 q 683 675 683 681 l 683 675 q 661 653 683 661 l 661 653 q 583 526 583 590 l 583 526 q 625 449 583 481 q 729 418 667 418 l 729 418 q 841 442 785 418 q 944 506 897 465 q 1020 597 992 546 q 1049 703 1049 647 l 1049 703 q 988 835 1049 793 q 832 876 926 876 l 832 876 q 620 836 725 876 q 424 725 515 796 q 260 563 332 654 l 260 563 q 115 221 115 381 l 115 221 q 154 77 115 136 q 262 -12 193 18 q 419 -43 331 -43 l 419 -43 q 675 15 551 -43 q 886 169 799 72 l 886 169 q 921 194 910 194 l 921 194 q 929 182 929 194 l 929 182 q 914 150 929 165 l 914 150 q 801 57 867 100 q 662 -19 736 14 q 511 -72 588 -53 q 365 -90 435 -90 z m 775 1090 l 775 1090 q 791 1076 782 1090 q 815 1042 800 1063 l 815 1042 q 825 1026 822 1035 q 832 1008 828 1017 l 832 1008 q 892 1040 856 1019 q 950 1069 928 1060 l 950 1069 q 980 1083 961 1075 q 1008 1090 999 1090 l 1008 1090 q 1022 1082 1022 1090 l 1022 1082 q 1013 1067 1022 1076 q 996 1051 1004 1057 l 996 1051 q 926 1017 965 1038 q 856 980 888 996 q 814 964 824 964 l 814 964 q 785 981 797 964 q 763 1021 774 997 l 763 1021 q 757 1040 760 1031 q 754 1058 754 1049 l 754 1058 q 775 1090 754 1090 z "},"Ç":{"ha":1008,"x_min":43,"x_max":1107,"o":"m 365 -90 l 365 -90 q 127 -8 211 -90 q 43 204 43 74 l 43 204 q 102 438 43 324 q 251 647 161 551 l 251 647 q 420 782 325 725 q 620 871 515 839 q 825 903 725 903 l 825 903 q 968 881 904 903 q 1069 814 1032 860 q 1107 694 1107 768 l 1107 694 q 1076 573 1107 629 q 992 475 1044 517 q 878 410 940 433 q 751 386 815 386 l 751 386 q 611 424 668 386 q 554 521 554 463 l 554 521 q 650 668 554 596 l 650 668 q 676 681 667 681 l 676 681 q 683 675 683 681 l 683 675 q 661 653 683 661 l 661 653 q 583 526 583 590 l 583 526 q 625 449 583 481 q 729 418 667 418 l 729 418 q 841 442 785 418 q 944 506 897 465 q 1020 597 992 546 q 1049 703 1049 647 l 1049 703 q 988 835 1049 793 q 832 876 926 876 l 832 876 q 620 836 725 876 q 424 725 515 796 q 260 563 332 654 l 260 563 q 115 221 115 381 l 115 221 q 154 77 115 136 q 262 -12 193 18 q 419 -43 331 -43 l 419 -43 q 675 15 551 -43 q 886 169 799 72 l 886 169 q 921 194 910 194 l 921 194 q 929 182 929 194 l 929 182 q 914 150 929 165 l 914 150 q 801 57 867 100 q 662 -19 736 14 q 511 -72 588 -53 q 365 -90 435 -90 z m 356 -82 l 356 -82 q 341 -102 346 -93 q 336 -126 336 -111 l 336 -126 q 378 -187 336 -139 l 378 -187 q 419 -268 419 -235 l 419 -268 q 343 -362 419 -326 l 343 -362 q 207 -390 281 -390 l 207 -390 q 193 -378 193 -390 l 193 -378 q 207 -368 193 -369 l 207 -368 q 258 -360 232 -364 q 310 -354 283 -357 l 310 -354 q 360 -282 360 -342 l 360 -282 q 350 -257 360 -272 q 322 -219 340 -242 l 322 -219 q 285 -149 285 -174 l 285 -149 q 301 -96 285 -121 q 343 -71 317 -71 l 343 -71 q 354 -75 353 -71 q 356 -82 356 -79 z "},"Ĉ":{"ha":1008,"x_min":43,"x_max":1107,"o":"m 365 -90 l 365 -90 q 127 -8 211 -90 q 43 204 43 74 l 43 204 q 102 438 43 324 q 251 647 161 551 l 251 647 q 420 782 325 725 q 620 871 515 839 q 825 903 725 903 l 825 903 q 968 881 904 903 q 1069 814 1032 860 q 1107 694 1107 768 l 1107 694 q 1076 573 1107 629 q 992 475 1044 517 q 878 410 940 433 q 751 386 815 386 l 751 386 q 611 424 668 386 q 554 521 554 463 l 554 521 q 650 668 554 596 l 650 668 q 676 681 667 681 l 676 681 q 683 675 683 681 l 683 675 q 661 653 683 661 l 661 653 q 583 526 583 590 l 583 526 q 625 449 583 481 q 729 418 667 418 l 729 418 q 841 442 785 418 q 944 506 897 465 q 1020 597 992 546 q 1049 703 1049 647 l 1049 703 q 988 835 1049 793 q 832 876 926 876 l 832 876 q 620 836 725 876 q 424 725 515 796 q 260 563 332 654 l 260 563 q 115 221 115 381 l 115 221 q 154 77 115 136 q 262 -12 193 18 q 419 -43 331 -43 l 419 -43 q 675 15 551 -43 q 886 169 799 72 l 886 169 q 921 194 910 194 l 921 194 q 929 182 929 194 l 929 182 q 914 150 929 165 l 914 150 q 801 57 867 100 q 662 -19 736 14 q 511 -72 588 -53 q 365 -90 435 -90 z m 754 944 l 754 944 q 749 953 751 944 q 751 964 746 961 l 751 964 q 775 981 758 969 q 814 1008 792 993 l 814 1008 q 866 1042 846 1028 q 900 1057 886 1057 l 900 1057 q 921 1049 913 1057 q 939 1029 929 1040 l 939 1029 q 959 1009 950 1018 q 978 990 968 1000 l 978 990 q 992 975 985 983 q 999 958 999 967 l 999 958 q 992 947 999 953 q 972 939 986 940 l 972 939 q 953 946 963 939 q 933 963 944 953 l 933 963 q 910 988 922 974 q 888 1013 897 1001 l 888 1013 q 824 978 867 1001 l 824 978 q 783 954 800 964 q 754 944 765 944 z "},"Ċ":{"ha":1008,"x_min":43,"x_max":1107,"o":"m 365 -90 l 365 -90 q 127 -8 211 -90 q 43 204 43 74 l 43 204 q 102 438 43 324 q 251 647 161 551 l 251 647 q 420 782 325 725 q 620 871 515 839 q 825 903 725 903 l 825 903 q 968 881 904 903 q 1069 814 1032 860 q 1107 694 1107 768 l 1107 694 q 1076 573 1107 629 q 992 475 1044 517 q 878 410 940 433 q 751 386 815 386 l 751 386 q 611 424 668 386 q 554 521 554 463 l 554 521 q 650 668 554 596 l 650 668 q 676 681 667 681 l 676 681 q 683 675 683 681 l 683 675 q 661 653 683 661 l 661 653 q 583 526 583 590 l 583 526 q 625 449 583 481 q 729 418 667 418 l 729 418 q 841 442 785 418 q 944 506 897 465 q 1020 597 992 546 q 1049 703 1049 647 l 1049 703 q 988 835 1049 793 q 832 876 926 876 l 832 876 q 620 836 725 876 q 424 725 515 796 q 260 563 332 654 l 260 563 q 115 221 115 381 l 115 221 q 154 77 115 136 q 262 -12 193 18 q 419 -43 331 -43 l 419 -43 q 675 15 551 -43 q 886 169 799 72 l 886 169 q 921 194 910 194 l 921 194 q 929 182 929 194 l 929 182 q 914 150 929 165 l 914 150 q 801 57 867 100 q 662 -19 736 14 q 511 -72 588 -53 q 365 -90 435 -90 z m 835 961 l 835 961 q 815 976 825 961 q 806 1001 806 990 l 806 1001 q 847 1051 806 1022 l 847 1051 q 911 1081 889 1081 l 911 1081 q 915 1079 914 1081 l 915 1079 q 896 1054 914 1079 l 896 1054 l 872 999 q 835 961 856 961 z "},"D":{"ha":1279,"x_min":21,"x_max":1286,"o":"m 593 -81 l 593 -81 q 260 35 361 -92 l 260 35 q 81 -60 138 -60 l 81 -60 q 35 -30 50 -60 q 21 35 21 0 l 21 35 q 72 226 21 101 l 72 226 q 185 368 133 368 l 185 368 q 225 285 211 368 l 225 285 q 268 113 249 160 l 268 113 q 383 244 314 161 q 542 446 451 328 l 542 446 q 840 769 767 742 l 840 769 q 890 779 865 779 l 890 779 q 935 767 918 779 q 953 740 953 756 l 953 740 q 913 713 953 717 l 913 713 q 841 660 883 697 q 752 574 799 622 q 665 480 706 526 q 600 400 625 433 l 600 400 q 303 69 451 193 l 303 69 l 294 63 q 401 -28 339 -3 q 540 -53 464 -53 l 540 -53 q 781 -15 667 -53 q 988 99 896 24 q 1140 285 1081 175 l 1140 285 q 1206 513 1206 404 l 1206 513 q 1174 652 1206 586 q 1088 765 1142 718 q 969 826 1035 813 l 969 826 q 810 843 893 843 l 810 843 q 415 744 596 843 l 415 744 q 225 511 225 640 l 225 511 q 246 451 225 476 l 246 451 q 269 429 263 432 l 269 429 l 261 429 q 194 468 222 436 q 167 539 167 500 l 167 539 q 212 672 167 611 q 343 782 257 732 l 343 782 q 750 881 515 881 l 750 881 q 856 875 803 881 q 960 858 908 869 l 960 858 q 1124 785 1050 839 q 1242 653 1197 731 q 1286 485 1286 575 l 1286 485 q 1225 269 1286 381 l 1225 269 q 1067 81 1164 157 q 850 -34 971 6 q 593 -81 729 -74 z m 88 -35 l 88 -35 q 232 75 147 -8 l 232 75 q 179 188 192 142 l 179 188 q 167 281 171 218 l 167 281 q 71 40 71 143 l 71 40 q 88 -35 71 -3 z "},"Ď":{"ha":1279,"x_min":21,"x_max":1286,"o":"m 593 -81 l 593 -81 q 260 35 361 -92 l 260 35 q 81 -60 138 -60 l 81 -60 q 35 -30 50 -60 q 21 35 21 0 l 21 35 q 72 226 21 101 l 72 226 q 185 368 133 368 l 185 368 q 225 285 211 368 l 225 285 q 268 113 249 160 l 268 113 q 383 244 314 161 q 542 446 451 328 l 542 446 q 840 769 767 742 l 840 769 q 890 779 865 779 l 890 779 q 935 767 918 779 q 953 740 953 756 l 953 740 q 913 713 953 717 l 913 713 q 841 660 883 697 q 752 574 799 622 q 665 480 706 526 q 600 400 625 433 l 600 400 q 303 69 451 193 l 303 69 l 294 63 q 401 -28 339 -3 q 540 -53 464 -53 l 540 -53 q 781 -15 667 -53 q 988 99 896 24 q 1140 285 1081 175 l 1140 285 q 1206 513 1206 404 l 1206 513 q 1174 652 1206 586 q 1088 765 1142 718 q 969 826 1035 813 l 969 826 q 810 843 893 843 l 810 843 q 415 744 596 843 l 415 744 q 225 511 225 640 l 225 511 q 246 451 225 476 l 246 451 q 269 429 263 432 l 269 429 l 261 429 q 194 468 222 436 q 167 539 167 500 l 167 539 q 212 672 167 611 q 343 782 257 732 l 343 782 q 750 881 515 881 l 750 881 q 856 875 803 881 q 960 858 908 869 l 960 858 q 1124 785 1050 839 q 1242 653 1197 731 q 1286 485 1286 575 l 1286 485 q 1225 269 1286 381 l 1225 269 q 1067 81 1164 157 q 850 -34 971 6 q 593 -81 729 -74 z m 88 -35 l 88 -35 q 232 75 147 -8 l 232 75 q 179 188 192 142 l 179 188 q 167 281 171 218 l 167 281 q 71 40 71 143 l 71 40 q 88 -35 71 -3 z m 868 1046 l 868 1046 q 884 1032 875 1046 q 908 997 893 1018 l 908 997 q 918 981 915 990 q 925 964 921 972 l 925 964 q 985 995 949 975 q 1043 1025 1021 1015 l 1043 1025 q 1073 1038 1054 1031 q 1101 1046 1092 1046 l 1101 1046 q 1115 1038 1115 1046 l 1115 1038 q 1106 1022 1115 1032 q 1089 1007 1097 1013 l 1089 1007 q 1019 972 1058 993 q 949 935 981 951 q 907 919 917 919 l 907 919 q 878 936 890 919 q 856 976 867 953 l 856 976 q 850 995 853 986 q 847 1014 847 1004 l 847 1014 q 868 1046 847 1046 z "},"Đ":{"ha":1279,"x_min":21,"x_max":1286,"o":"m 593 -81 l 593 -81 q 260 35 361 -92 l 260 35 q 81 -60 138 -60 l 81 -60 q 33 -26 50 -60 l 33 -26 q 21 35 21 1 l 21 35 q 72 226 21 101 l 72 226 q 185 368 133 368 l 185 368 q 225 285 211 368 l 225 285 q 268 113 249 160 l 268 113 q 344 198 300 146 q 442 318 388 250 l 442 318 q 404 322 425 318 l 404 322 q 360 351 360 331 l 360 351 q 372 376 360 367 q 394 385 385 385 l 394 385 q 399 385 396 385 q 408 386 403 385 l 408 386 l 444 386 q 469 387 456 386 q 496 386 482 388 l 496 386 l 542 446 q 840 769 767 742 l 840 769 q 890 779 865 779 l 890 779 q 935 767 918 779 q 953 740 953 756 l 953 740 q 913 713 953 717 l 913 713 q 763 585 864 686 l 763 585 q 670 487 711 533 q 600 400 629 440 l 600 400 l 589 385 q 729 389 682 385 l 729 389 q 621 344 740 365 l 621 344 l 551 335 q 427 188 490 254 q 303 69 364 121 l 303 69 l 294 63 q 539 -53 372 -53 l 539 -53 q 566 -52 553 -53 q 593 -50 579 -51 l 593 -50 q 1140 285 979 -14 l 1140 285 q 1206 513 1206 404 l 1206 513 q 1121 731 1206 638 l 1121 731 q 969 826 1053 807 l 969 826 q 810 843 893 843 l 810 843 q 415 744 596 843 l 415 744 q 225 524 235 646 l 225 524 q 246 451 221 481 l 246 451 q 269 429 263 432 l 269 429 l 261 429 q 197 465 225 436 l 197 465 q 167 544 165 503 l 167 544 q 343 782 174 685 l 343 782 q 750 881 515 881 l 750 881 q 856 875 803 881 q 960 858 908 869 l 960 858 q 1179 736 1086 831 l 1179 736 q 1286 485 1286 625 l 1286 485 q 1225 269 1286 381 l 1225 269 q 910 -11 1119 78 l 910 -11 q 593 -81 764 -72 z m 88 -35 l 88 -35 q 232 75 147 -8 l 232 75 q 179 188 192 142 l 179 188 q 167 281 171 218 l 167 281 q 71 40 71 143 l 71 40 q 88 -35 71 -3 z "},"∆":{"ha":628,"x_min":35,"x_max":594,"o":"m 35 -3 l 35 -3 q 92 99 60 43 q 160 215 125 156 q 229 328 196 274 l 229 328 l 419 638 q 431 660 422 643 q 452 696 440 676 q 474 729 464 715 q 490 743 485 743 l 490 743 q 496 733 496 743 l 496 733 q 510 564 500 660 q 533 365 519 468 q 562 167 546 263 q 594 -3 578 71 l 594 -3 q 555 -2 594 -3 q 448 -1 515 -1 q 297 0 381 0 l 297 0 q 168 0 235 0 q 35 -3 101 0 z m 319 42 l 319 42 q 461 44 399 42 q 533 46 524 46 l 533 46 q 526 115 532 64 q 513 236 521 167 q 496 380 504 306 q 479 517 488 454 q 465 620 471 581 q 457 660 460 660 l 457 660 q 450 653 453 660 l 450 653 q 363 510 410 588 q 267 354 315 433 q 176 201 219 275 q 101 64 133 126 l 101 64 q 99 58 100 61 q 97 51 97 54 l 97 51 q 123 45 97 47 q 186 42 149 43 q 260 42 224 42 q 319 42 297 42 z "},"ǅ":{"ha":1815,"x_min":21,"x_max":1839,"o":"m 593 -81 l 593 -81 q 260 35 361 -92 l 260 35 q 81 -60 138 -60 l 81 -60 q 35 -30 50 -60 q 21 35 21 0 l 21 35 q 72 226 21 101 l 72 226 q 185 368 133 368 l 185 368 q 225 285 211 368 l 225 285 q 268 113 249 160 l 268 113 q 383 244 314 161 q 542 446 451 328 l 542 446 q 840 769 767 742 l 840 769 q 890 779 865 779 l 890 779 q 935 767 918 779 q 953 740 953 756 l 953 740 q 913 713 953 717 l 913 713 q 841 660 883 697 q 752 574 799 622 q 665 480 706 526 q 600 400 625 433 l 600 400 q 303 69 451 193 l 303 69 l 294 63 q 401 -28 339 -3 q 540 -53 464 -53 l 540 -53 q 781 -15 667 -53 q 988 99 896 24 q 1140 285 1081 175 l 1140 285 q 1206 513 1206 404 l 1206 513 q 1174 652 1206 586 q 1088 765 1142 718 q 969 826 1035 813 l 969 826 q 810 843 893 843 l 810 843 q 415 744 596 843 l 415 744 q 225 511 225 640 l 225 511 q 246 451 225 476 l 246 451 q 269 429 263 432 l 269 429 l 261 429 q 194 468 222 436 q 167 539 167 500 l 167 539 q 212 672 167 611 q 343 782 257 732 l 343 782 q 750 881 515 881 l 750 881 q 856 875 803 881 q 960 858 908 869 l 960 858 q 1124 785 1050 839 q 1242 653 1197 731 q 1286 485 1286 575 l 1286 485 q 1225 269 1286 381 l 1225 269 q 1067 81 1164 157 q 850 -34 971 6 q 593 -81 729 -74 z m 88 -35 l 88 -35 q 232 75 147 -8 l 232 75 q 179 188 192 142 l 179 188 q 167 281 171 218 l 167 281 q 71 40 71 143 l 71 40 q 88 -35 71 -3 z m 1600 -31 l 1600 -31 q 1520 -22 1560 -31 q 1449 4 1481 -14 l 1449 4 q 1420 22 1439 10 q 1372 57 1401 35 l 1372 57 q 1331 30 1350 42 q 1293 18 1311 18 l 1293 18 q 1261 53 1261 18 l 1261 53 q 1269 83 1261 64 q 1286 101 1276 101 l 1286 101 q 1293 92 1293 101 l 1293 92 q 1292 81 1293 85 l 1292 81 q 1291 77 1292 79 q 1290 74 1290 75 l 1290 74 q 1304 60 1290 60 l 1304 60 q 1344 76 1322 60 l 1344 76 l 1292 117 q 1289 124 1289 119 l 1289 124 q 1303 147 1289 133 q 1328 160 1317 160 l 1328 160 q 1392 113 1332 160 l 1392 113 q 1507 236 1447 175 l 1507 236 q 1585 317 1551 283 q 1644 368 1619 350 l 1644 368 q 1482 401 1535 401 l 1482 401 q 1428 387 1449 401 q 1407 350 1407 372 l 1407 350 q 1426 317 1407 332 l 1426 317 q 1438 303 1438 308 l 1438 303 q 1431 294 1438 294 l 1431 294 q 1393 322 1417 294 l 1393 322 q 1371 379 1371 350 l 1371 379 q 1392 424 1371 408 q 1446 444 1414 439 q 1508 450 1478 450 l 1508 450 q 1606 433 1553 450 q 1710 400 1658 417 l 1710 400 q 1751 411 1729 411 l 1751 411 q 1810 376 1810 411 l 1810 376 q 1792 351 1810 363 q 1750 339 1775 339 l 1750 339 q 1703 349 1724 339 l 1703 349 q 1419 90 1572 268 l 1419 90 l 1469 51 q 1540 20 1501 28 q 1615 13 1578 13 l 1615 13 q 1719 35 1676 13 q 1763 101 1763 57 l 1763 101 q 1757 132 1763 119 l 1757 132 q 1754 142 1754 140 l 1754 142 q 1768 151 1754 151 l 1768 151 q 1778 144 1775 151 l 1778 144 q 1789 97 1789 119 l 1789 97 q 1737 6 1789 42 q 1600 -31 1685 -31 z m 1592 632 l 1592 632 q 1608 618 1599 632 q 1632 583 1617 604 l 1632 583 q 1642 567 1639 576 q 1649 550 1644 558 l 1649 550 q 1708 581 1672 561 q 1767 611 1744 601 l 1767 611 q 1797 624 1778 617 q 1825 632 1815 632 l 1825 632 q 1839 624 1839 632 l 1839 624 q 1830 608 1839 618 q 1813 593 1821 599 l 1813 593 q 1743 558 1782 579 q 1672 522 1704 538 q 1631 506 1640 506 l 1631 506 q 1602 522 1614 506 q 1579 563 1590 539 l 1579 563 q 1574 581 1576 572 q 1571 600 1571 590 l 1571 600 q 1592 632 1571 632 z "},"E":{"ha":960,"x_min":4,"x_max":1078,"o":"m 356 -111 l 356 -111 q 183 -87 263 -111 q 53 -15 103 -64 q 4 107 4 33 l 4 107 q 40 221 4 164 l 40 221 q 476 522 168 424 l 476 522 q 431 642 431 575 l 431 642 q 460 735 431 696 l 460 735 q 632 864 517 813 l 632 864 q 765 907 697 892 q 901 922 832 922 l 901 922 q 1033 894 988 922 q 1078 817 1078 867 l 1078 817 q 1059 753 1078 782 q 1013 708 1040 725 q 956 690 985 690 l 956 690 q 913 711 913 690 l 913 711 q 931 724 913 724 l 931 724 q 945 722 936 724 q 958 719 954 719 l 958 719 q 1010 750 988 719 q 1032 811 1032 781 l 1032 811 q 990 875 1032 856 q 894 894 947 894 l 894 894 q 636 810 763 894 l 636 810 q 503 613 503 722 l 503 613 q 531 538 503 572 l 531 538 q 622 559 579 553 q 703 565 664 565 l 703 565 q 836 514 836 565 l 836 514 q 817 473 836 490 q 767 447 797 456 q 707 438 738 438 l 707 438 q 636 446 675 438 q 561 468 597 454 q 500 500 525 482 l 500 500 q 269 384 369 463 q 119 208 168 306 l 119 208 q 93 106 93 156 l 93 106 q 128 6 93 44 q 220 -51 163 -33 q 347 -69 278 -69 l 347 -69 q 576 -33 463 -69 q 771 76 690 4 l 771 76 q 881 281 881 174 l 881 281 q 799 365 881 365 l 799 365 q 703 344 756 365 q 603 286 650 322 q 526 207 557 250 q 496 119 496 164 l 496 119 q 535 65 496 75 l 535 65 q 549 51 549 60 l 549 51 q 528 40 549 40 l 528 40 q 454 122 454 40 l 454 122 q 486 225 454 176 q 569 311 518 274 q 679 370 619 349 q 794 392 739 392 l 794 392 q 896 363 860 392 q 932 271 932 335 l 932 271 q 789 28 932 142 l 789 28 q 589 -78 699 -46 q 356 -111 479 -111 z m 694 468 l 694 468 q 769 511 769 468 l 769 511 q 694 531 769 531 l 694 531 q 626 526 661 531 q 554 515 590 522 l 554 515 q 694 468 614 468 z "},"É":{"ha":960,"x_min":4,"x_max":1078,"o":"m 356 -111 l 356 -111 q 183 -87 263 -111 q 53 -15 103 -64 q 4 107 4 33 l 4 107 q 40 221 4 164 l 40 221 q 476 522 168 424 l 476 522 q 431 642 431 575 l 431 642 q 460 735 431 696 l 460 735 q 632 864 517 813 l 632 864 q 765 907 697 892 q 901 922 832 922 l 901 922 q 1033 894 988 922 q 1078 817 1078 867 l 1078 817 q 1059 753 1078 782 q 1013 708 1040 725 q 956 690 985 690 l 956 690 q 913 711 913 690 l 913 711 q 931 724 913 724 l 931 724 q 945 722 936 724 q 958 719 954 719 l 958 719 q 1010 750 988 719 q 1032 811 1032 781 l 1032 811 q 990 875 1032 856 q 894 894 947 894 l 894 894 q 636 810 763 894 l 636 810 q 503 613 503 722 l 503 613 q 531 538 503 572 l 531 538 q 622 559 579 553 q 703 565 664 565 l 703 565 q 836 514 836 565 l 836 514 q 817 473 836 490 q 767 447 797 456 q 707 438 738 438 l 707 438 q 636 446 675 438 q 561 468 597 454 q 500 500 525 482 l 500 500 q 269 384 369 463 q 119 208 168 306 l 119 208 q 93 106 93 156 l 93 106 q 128 6 93 44 q 220 -51 163 -33 q 347 -69 278 -69 l 347 -69 q 576 -33 463 -69 q 771 76 690 4 l 771 76 q 881 281 881 174 l 881 281 q 799 365 881 365 l 799 365 q 703 344 756 365 q 603 286 650 322 q 526 207 557 250 q 496 119 496 164 l 496 119 q 535 65 496 75 l 535 65 q 549 51 549 60 l 549 51 q 528 40 549 40 l 528 40 q 454 122 454 40 l 454 122 q 486 225 454 176 q 569 311 518 274 q 679 370 619 349 q 794 392 739 392 l 794 392 q 896 363 860 392 q 932 271 932 335 l 932 271 q 789 28 932 142 l 789 28 q 589 -78 699 -46 q 356 -111 479 -111 z m 694 468 l 694 468 q 769 511 769 468 l 769 511 q 694 531 769 531 l 694 531 q 626 526 661 531 q 554 515 590 522 l 554 515 q 694 468 614 468 z m 846 992 l 846 992 q 835 1000 835 992 l 835 1000 q 849 1013 835 1007 l 849 1013 q 925 1046 889 1029 q 990 1076 961 1063 l 990 1076 q 1011 1085 1003 1083 q 1024 1086 1019 1086 l 1024 1086 q 1039 1074 1032 1086 q 1046 1051 1046 1063 l 1046 1051 q 1037 1036 1046 1042 q 1021 1028 1028 1031 l 1021 1028 q 990 1017 1011 1024 q 935 1003 969 1010 l 935 1003 q 846 992 883 992 z "},"Ĕ":{"ha":960,"x_min":4,"x_max":1078,"o":"m 356 -111 l 356 -111 q 183 -87 263 -111 q 53 -15 103 -64 q 4 107 4 33 l 4 107 q 40 221 4 164 l 40 221 q 476 522 168 424 l 476 522 q 431 642 431 575 l 431 642 q 460 735 431 696 l 460 735 q 632 864 517 813 l 632 864 q 765 907 697 892 q 901 922 832 922 l 901 922 q 1033 894 988 922 q 1078 817 1078 867 l 1078 817 q 1059 753 1078 782 q 1013 708 1040 725 q 956 690 985 690 l 956 690 q 913 711 913 690 l 913 711 q 931 724 913 724 l 931 724 q 945 722 936 724 q 958 719 954 719 l 958 719 q 1010 750 988 719 q 1032 811 1032 781 l 1032 811 q 990 875 1032 856 q 894 894 947 894 l 894 894 q 636 810 763 894 l 636 810 q 503 613 503 722 l 503 613 q 531 538 503 572 l 531 538 q 622 559 579 553 q 703 565 664 565 l 703 565 q 836 514 836 565 l 836 514 q 817 473 836 490 q 767 447 797 456 q 707 438 738 438 l 707 438 q 636 446 675 438 q 561 468 597 454 q 500 500 525 482 l 500 500 q 269 384 369 463 q 119 208 168 306 l 119 208 q 93 106 93 156 l 93 106 q 128 6 93 44 q 220 -51 163 -33 q 347 -69 278 -69 l 347 -69 q 576 -33 463 -69 q 771 76 690 4 l 771 76 q 881 281 881 174 l 881 281 q 799 365 881 365 l 799 365 q 703 344 756 365 q 603 286 650 322 q 526 207 557 250 q 496 119 496 164 l 496 119 q 535 65 496 75 l 535 65 q 549 51 549 60 l 549 51 q 528 40 549 40 l 528 40 q 454 122 454 40 l 454 122 q 486 225 454 176 q 569 311 518 274 q 679 370 619 349 q 794 392 739 392 l 794 392 q 896 363 860 392 q 932 271 932 335 l 932 271 q 789 28 932 142 l 789 28 q 589 -78 699 -46 q 356 -111 479 -111 z m 694 468 l 694 468 q 769 511 769 468 l 769 511 q 694 531 769 531 l 694 531 q 626 526 661 531 q 554 515 590 522 l 554 515 q 694 468 614 468 z m 882 996 l 882 996 q 836 1010 856 996 q 817 1061 817 1025 l 817 1061 q 817 1074 817 1063 q 823 1095 818 1085 q 838 1106 828 1106 l 838 1106 q 847 1098 844 1106 q 853 1079 850 1090 l 853 1079 q 865 1056 857 1063 q 899 1050 874 1050 l 899 1050 q 943 1057 922 1050 q 994 1089 964 1064 l 994 1089 q 1017 1107 1001 1096 q 1033 1107 1033 1118 l 1033 1107 q 1018 1071 1033 1092 l 1018 1071 q 958 1018 996 1040 q 882 996 919 996 z "},"Ě":{"ha":960,"x_min":4,"x_max":1078,"o":"m 356 -111 l 356 -111 q 183 -87 263 -111 q 53 -15 103 -64 q 4 107 4 33 l 4 107 q 40 221 4 164 l 40 221 q 476 522 168 424 l 476 522 q 431 642 431 575 l 431 642 q 460 735 431 696 l 460 735 q 632 864 517 813 l 632 864 q 765 907 697 892 q 901 922 832 922 l 901 922 q 1033 894 988 922 q 1078 817 1078 867 l 1078 817 q 1059 753 1078 782 q 1013 708 1040 725 q 956 690 985 690 l 956 690 q 913 711 913 690 l 913 711 q 931 724 913 724 l 931 724 q 945 722 936 724 q 958 719 954 719 l 958 719 q 1010 750 988 719 q 1032 811 1032 781 l 1032 811 q 990 875 1032 856 q 894 894 947 894 l 894 894 q 636 810 763 894 l 636 810 q 503 613 503 722 l 503 613 q 531 538 503 572 l 531 538 q 622 559 579 553 q 703 565 664 565 l 703 565 q 836 514 836 565 l 836 514 q 817 473 836 490 q 767 447 797 456 q 707 438 738 438 l 707 438 q 636 446 675 438 q 561 468 597 454 q 500 500 525 482 l 500 500 q 269 384 369 463 q 119 208 168 306 l 119 208 q 93 106 93 156 l 93 106 q 128 6 93 44 q 220 -51 163 -33 q 347 -69 278 -69 l 347 -69 q 576 -33 463 -69 q 771 76 690 4 l 771 76 q 881 281 881 174 l 881 281 q 799 365 881 365 l 799 365 q 703 344 756 365 q 603 286 650 322 q 526 207 557 250 q 496 119 496 164 l 496 119 q 535 65 496 75 l 535 65 q 549 51 549 60 l 549 51 q 528 40 549 40 l 528 40 q 454 122 454 40 l 454 122 q 486 225 454 176 q 569 311 518 274 q 679 370 619 349 q 794 392 739 392 l 794 392 q 896 363 860 392 q 932 271 932 335 l 932 271 q 789 28 932 142 l 789 28 q 589 -78 699 -46 q 356 -111 479 -111 z m 694 468 l 694 468 q 769 511 769 468 l 769 511 q 694 531 769 531 l 694 531 q 626 526 661 531 q 554 515 590 522 l 554 515 q 694 468 614 468 z m 817 1118 l 817 1118 q 833 1104 824 1118 q 857 1069 842 1090 l 857 1069 q 867 1053 864 1063 q 874 1036 869 1044 l 874 1036 q 933 1067 897 1047 q 992 1097 969 1088 l 992 1097 q 1022 1110 1003 1103 q 1050 1118 1040 1118 l 1050 1118 q 1064 1110 1064 1118 l 1064 1110 q 1055 1094 1064 1104 q 1038 1079 1046 1085 l 1038 1079 q 968 1044 1007 1065 q 897 1008 929 1024 q 856 992 865 992 l 856 992 q 827 1008 839 992 q 804 1049 815 1025 l 804 1049 q 799 1067 801 1058 q 796 1086 796 1076 l 796 1086 q 817 1118 796 1118 z "},"Ê":{"ha":960,"x_min":4,"x_max":1078,"o":"m 356 -111 l 356 -111 q 183 -87 263 -111 q 53 -15 103 -64 q 4 107 4 33 l 4 107 q 40 221 4 164 l 40 221 q 476 522 168 424 l 476 522 q 431 642 431 575 l 431 642 q 460 735 431 696 l 460 735 q 632 864 517 813 l 632 864 q 765 907 697 892 q 901 922 832 922 l 901 922 q 1033 894 988 922 q 1078 817 1078 867 l 1078 817 q 1059 753 1078 782 q 1013 708 1040 725 q 956 690 985 690 l 956 690 q 913 711 913 690 l 913 711 q 931 724 913 724 l 931 724 q 945 722 936 724 q 958 719 954 719 l 958 719 q 1010 750 988 719 q 1032 811 1032 781 l 1032 811 q 990 875 1032 856 q 894 894 947 894 l 894 894 q 636 810 763 894 l 636 810 q 503 613 503 722 l 503 613 q 531 538 503 572 l 531 538 q 622 559 579 553 q 703 565 664 565 l 703 565 q 836 514 836 565 l 836 514 q 817 473 836 490 q 767 447 797 456 q 707 438 738 438 l 707 438 q 636 446 675 438 q 561 468 597 454 q 500 500 525 482 l 500 500 q 269 384 369 463 q 119 208 168 306 l 119 208 q 93 106 93 156 l 93 106 q 128 6 93 44 q 220 -51 163 -33 q 347 -69 278 -69 l 347 -69 q 576 -33 463 -69 q 771 76 690 4 l 771 76 q 881 281 881 174 l 881 281 q 799 365 881 365 l 799 365 q 703 344 756 365 q 603 286 650 322 q 526 207 557 250 q 496 119 496 164 l 496 119 q 535 65 496 75 l 535 65 q 549 51 549 60 l 549 51 q 528 40 549 40 l 528 40 q 454 122 454 40 l 454 122 q 486 225 454 176 q 569 311 518 274 q 679 370 619 349 q 794 392 739 392 l 794 392 q 896 363 860 392 q 932 271 932 335 l 932 271 q 789 28 932 142 l 789 28 q 589 -78 699 -46 q 356 -111 479 -111 z m 694 468 l 694 468 q 769 511 769 468 l 769 511 q 694 531 769 531 l 694 531 q 626 526 661 531 q 554 515 590 522 l 554 515 q 694 468 614 468 z m 796 972 l 796 972 q 790 981 793 972 q 793 992 788 989 l 793 992 q 817 1009 800 997 q 856 1036 833 1021 l 856 1036 q 908 1070 888 1056 q 942 1085 928 1085 l 942 1085 q 963 1076 954 1085 q 981 1057 971 1068 l 981 1057 q 1001 1037 992 1046 q 1019 1018 1010 1028 l 1019 1018 q 1033 1003 1026 1011 q 1040 986 1040 994 l 1040 986 q 1034 974 1040 981 q 1014 967 1028 968 l 1014 967 q 995 974 1004 967 q 975 990 986 981 l 975 990 q 951 1015 964 1001 q 929 1040 939 1029 l 929 1040 q 865 1006 908 1029 l 865 1006 q 824 982 842 992 q 796 972 807 972 z "},"Ế":{"ha":960,"x_min":4,"x_max":1078,"o":"m 356 -111 l 356 -111 q 183 -87 263 -111 q 53 -15 103 -64 q 4 107 4 33 l 4 107 q 40 221 4 164 l 40 221 q 476 522 168 424 l 476 522 q 431 642 431 575 l 431 642 q 460 735 431 696 l 460 735 q 632 864 517 813 l 632 864 q 765 907 697 892 q 901 922 832 922 l 901 922 q 1033 894 988 922 q 1078 817 1078 867 l 1078 817 q 1059 753 1078 782 q 1013 708 1040 725 q 956 690 985 690 l 956 690 q 913 711 913 690 l 913 711 q 931 724 913 724 l 931 724 q 945 722 936 724 q 958 719 954 719 l 958 719 q 1010 750 988 719 q 1032 811 1032 781 l 1032 811 q 990 875 1032 856 q 894 894 947 894 l 894 894 q 636 810 763 894 l 636 810 q 503 613 503 722 l 503 613 q 531 538 503 572 l 531 538 q 622 559 579 553 q 703 565 664 565 l 703 565 q 836 514 836 565 l 836 514 q 817 473 836 490 q 767 447 797 456 q 707 438 738 438 l 707 438 q 636 446 675 438 q 561 468 597 454 q 500 500 525 482 l 500 500 q 269 384 369 463 q 119 208 168 306 l 119 208 q 93 106 93 156 l 93 106 q 128 6 93 44 q 220 -51 163 -33 q 347 -69 278 -69 l 347 -69 q 576 -33 463 -69 q 771 76 690 4 l 771 76 q 881 281 881 174 l 881 281 q 799 365 881 365 l 799 365 q 703 344 756 365 q 603 286 650 322 q 526 207 557 250 q 496 119 496 164 l 496 119 q 535 65 496 75 l 535 65 q 549 51 549 60 l 549 51 q 528 40 549 40 l 528 40 q 454 122 454 40 l 454 122 q 486 225 454 176 q 569 311 518 274 q 679 370 619 349 q 794 392 739 392 l 794 392 q 896 363 860 392 q 932 271 932 335 l 932 271 q 789 28 932 142 l 789 28 q 589 -78 699 -46 q 356 -111 479 -111 z m 694 468 l 694 468 q 769 511 769 468 l 769 511 q 694 531 769 531 l 694 531 q 626 526 661 531 q 554 515 590 522 l 554 515 q 694 468 614 468 z m 796 972 l 796 972 q 790 981 793 972 q 793 992 788 989 l 793 992 q 817 1009 800 997 q 856 1036 833 1021 l 856 1036 q 908 1070 888 1056 q 942 1085 928 1085 l 942 1085 q 963 1076 954 1085 q 981 1057 971 1068 l 981 1057 q 1001 1037 992 1046 q 1019 1018 1010 1028 l 1019 1018 q 1033 1003 1026 1011 q 1040 986 1040 994 l 1040 986 q 1034 974 1040 981 q 1014 967 1028 968 l 1014 967 q 995 974 1004 967 q 975 990 986 981 l 975 990 q 951 1015 964 1001 q 929 1040 939 1029 l 929 1040 q 865 1006 908 1029 l 865 1006 q 824 982 842 992 q 796 972 807 972 z m 854 1113 l 854 1113 q 843 1121 843 1113 l 843 1121 q 857 1133 843 1128 l 857 1133 q 933 1167 897 1150 q 999 1197 969 1183 l 999 1197 q 1019 1206 1011 1204 q 1032 1207 1028 1207 l 1032 1207 q 1047 1195 1040 1207 q 1054 1172 1054 1183 l 1054 1172 q 1045 1157 1054 1163 q 1029 1149 1036 1151 l 1029 1149 q 999 1138 1019 1144 q 943 1124 978 1131 l 943 1124 q 854 1113 892 1113 z "},"Ệ":{"ha":960,"x_min":4,"x_max":1078,"o":"m 356 -111 l 356 -111 q 183 -87 263 -111 q 53 -15 103 -64 q 4 107 4 33 l 4 107 q 40 221 4 164 l 40 221 q 476 522 168 424 l 476 522 q 431 642 431 575 l 431 642 q 460 735 431 696 l 460 735 q 632 864 517 813 l 632 864 q 765 907 697 892 q 901 922 832 922 l 901 922 q 1033 894 988 922 q 1078 817 1078 867 l 1078 817 q 1059 753 1078 782 q 1013 708 1040 725 q 956 690 985 690 l 956 690 q 913 711 913 690 l 913 711 q 931 724 913 724 l 931 724 q 945 722 936 724 q 958 719 954 719 l 958 719 q 1010 750 988 719 q 1032 811 1032 781 l 1032 811 q 990 875 1032 856 q 894 894 947 894 l 894 894 q 636 810 763 894 l 636 810 q 503 613 503 722 l 503 613 q 531 538 503 572 l 531 538 q 622 559 579 553 q 703 565 664 565 l 703 565 q 836 514 836 565 l 836 514 q 817 473 836 490 q 767 447 797 456 q 707 438 738 438 l 707 438 q 636 446 675 438 q 561 468 597 454 q 500 500 525 482 l 500 500 q 269 384 369 463 q 119 208 168 306 l 119 208 q 93 106 93 156 l 93 106 q 128 6 93 44 q 220 -51 163 -33 q 347 -69 278 -69 l 347 -69 q 576 -33 463 -69 q 771 76 690 4 l 771 76 q 881 281 881 174 l 881 281 q 799 365 881 365 l 799 365 q 703 344 756 365 q 603 286 650 322 q 526 207 557 250 q 496 119 496 164 l 496 119 q 535 65 496 75 l 535 65 q 549 51 549 60 l 549 51 q 528 40 549 40 l 528 40 q 454 122 454 40 l 454 122 q 486 225 454 176 q 569 311 518 274 q 679 370 619 349 q 794 392 739 392 l 794 392 q 896 363 860 392 q 932 271 932 335 l 932 271 q 789 28 932 142 l 789 28 q 589 -78 699 -46 q 356 -111 479 -111 z m 694 468 l 694 468 q 769 511 769 468 l 769 511 q 694 531 769 531 l 694 531 q 626 526 661 531 q 554 515 590 522 l 554 515 q 694 468 614 468 z m 239 -276 l 239 -276 q 219 -262 229 -276 q 210 -236 210 -247 l 210 -236 q 250 -186 210 -215 l 250 -186 q 292 -171 278 -169 q 299 -183 306 -172 l 299 -183 l 276 -239 q 239 -276 260 -276 z m 796 972 l 796 972 q 790 981 793 972 q 793 992 788 989 l 793 992 q 817 1009 800 997 q 856 1036 833 1021 l 856 1036 q 908 1070 888 1056 q 942 1085 928 1085 l 942 1085 q 963 1076 954 1085 q 981 1057 971 1068 l 981 1057 q 1001 1037 992 1046 q 1019 1018 1010 1028 l 1019 1018 q 1033 1003 1026 1011 q 1040 986 1040 994 l 1040 986 q 1034 974 1040 981 q 1014 967 1028 968 l 1014 967 q 995 974 1004 967 q 975 990 986 981 l 975 990 q 951 1015 964 1001 q 929 1040 939 1029 l 929 1040 q 865 1006 908 1029 l 865 1006 q 824 982 842 992 q 796 972 807 972 z "},"Ề":{"ha":960,"x_min":4,"x_max":1078,"o":"m 356 -111 l 356 -111 q 183 -87 263 -111 q 53 -15 103 -64 q 4 107 4 33 l 4 107 q 40 221 4 164 l 40 221 q 476 522 168 424 l 476 522 q 431 642 431 575 l 431 642 q 460 735 431 696 l 460 735 q 632 864 517 813 l 632 864 q 765 907 697 892 q 901 922 832 922 l 901 922 q 1033 894 988 922 q 1078 817 1078 867 l 1078 817 q 1059 753 1078 782 q 1013 708 1040 725 q 956 690 985 690 l 956 690 q 913 711 913 690 l 913 711 q 931 724 913 724 l 931 724 q 945 722 936 724 q 958 719 954 719 l 958 719 q 1010 750 988 719 q 1032 811 1032 781 l 1032 811 q 990 875 1032 856 q 894 894 947 894 l 894 894 q 636 810 763 894 l 636 810 q 503 613 503 722 l 503 613 q 531 538 503 572 l 531 538 q 622 559 579 553 q 703 565 664 565 l 703 565 q 836 514 836 565 l 836 514 q 817 473 836 490 q 767 447 797 456 q 707 438 738 438 l 707 438 q 636 446 675 438 q 561 468 597 454 q 500 500 525 482 l 500 500 q 269 384 369 463 q 119 208 168 306 l 119 208 q 93 106 93 156 l 93 106 q 128 6 93 44 q 220 -51 163 -33 q 347 -69 278 -69 l 347 -69 q 576 -33 463 -69 q 771 76 690 4 l 771 76 q 881 281 881 174 l 881 281 q 799 365 881 365 l 799 365 q 703 344 756 365 q 603 286 650 322 q 526 207 557 250 q 496 119 496 164 l 496 119 q 535 65 496 75 l 535 65 q 549 51 549 60 l 549 51 q 528 40 549 40 l 528 40 q 454 122 454 40 l 454 122 q 486 225 454 176 q 569 311 518 274 q 679 370 619 349 q 794 392 739 392 l 794 392 q 896 363 860 392 q 932 271 932 335 l 932 271 q 789 28 932 142 l 789 28 q 589 -78 699 -46 q 356 -111 479 -111 z m 694 468 l 694 468 q 769 511 769 468 l 769 511 q 694 531 769 531 l 694 531 q 626 526 661 531 q 554 515 590 522 l 554 515 q 694 468 614 468 z m 796 972 l 796 972 q 790 981 793 972 q 793 992 788 989 l 793 992 q 817 1009 800 997 q 856 1036 833 1021 l 856 1036 q 908 1070 888 1056 q 942 1085 928 1085 l 942 1085 q 963 1076 954 1085 q 981 1057 971 1068 l 981 1057 q 1001 1037 992 1046 q 1019 1018 1010 1028 l 1019 1018 q 1033 1003 1026 1011 q 1040 986 1040 994 l 1040 986 q 1034 974 1040 981 q 1014 967 1028 968 l 1014 967 q 995 974 1004 967 q 975 990 986 981 l 975 990 q 951 1015 964 1001 q 929 1040 939 1029 l 929 1040 q 865 1006 908 1029 l 865 1006 q 824 982 842 992 q 796 972 807 972 z m 1060 1124 l 1060 1124 q 971 1135 1022 1124 l 971 1135 q 915 1149 936 1142 q 885 1160 894 1156 l 885 1160 q 869 1168 878 1163 q 860 1183 860 1174 l 860 1183 q 867 1206 860 1194 q 882 1218 874 1218 l 882 1218 q 894 1217 886 1218 q 915 1208 903 1215 l 915 1208 q 981 1178 944 1194 q 1057 1144 1017 1161 l 1057 1144 q 1071 1132 1071 1139 l 1071 1132 q 1060 1124 1071 1124 z "},"Ể":{"ha":960,"x_min":4,"x_max":1221,"o":"m 356 -111 l 356 -111 q 183 -87 263 -111 q 53 -15 103 -64 q 4 107 4 33 l 4 107 q 40 221 4 164 l 40 221 q 476 522 168 424 l 476 522 q 431 642 431 575 l 431 642 q 460 735 431 696 l 460 735 q 632 864 517 813 l 632 864 q 765 907 697 892 q 901 922 832 922 l 901 922 q 1033 894 988 922 q 1078 817 1078 867 l 1078 817 q 1059 753 1078 782 q 1013 708 1040 725 q 956 690 985 690 l 956 690 q 913 711 913 690 l 913 711 q 931 724 913 724 l 931 724 q 945 722 936 724 q 958 719 954 719 l 958 719 q 1010 750 988 719 q 1032 811 1032 781 l 1032 811 q 990 875 1032 856 q 894 894 947 894 l 894 894 q 636 810 763 894 l 636 810 q 503 613 503 722 l 503 613 q 531 538 503 572 l 531 538 q 622 559 579 553 q 703 565 664 565 l 703 565 q 836 514 836 565 l 836 514 q 817 473 836 490 q 767 447 797 456 q 707 438 738 438 l 707 438 q 636 446 675 438 q 561 468 597 454 q 500 500 525 482 l 500 500 q 269 384 369 463 q 119 208 168 306 l 119 208 q 93 106 93 156 l 93 106 q 128 6 93 44 q 220 -51 163 -33 q 347 -69 278 -69 l 347 -69 q 576 -33 463 -69 q 771 76 690 4 l 771 76 q 881 281 881 174 l 881 281 q 799 365 881 365 l 799 365 q 703 344 756 365 q 603 286 650 322 q 526 207 557 250 q 496 119 496 164 l 496 119 q 535 65 496 75 l 535 65 q 549 51 549 60 l 549 51 q 528 40 549 40 l 528 40 q 454 122 454 40 l 454 122 q 486 225 454 176 q 569 311 518 274 q 679 370 619 349 q 794 392 739 392 l 794 392 q 896 363 860 392 q 932 271 932 335 l 932 271 q 789 28 932 142 l 789 28 q 589 -78 699 -46 q 356 -111 479 -111 z m 694 468 l 694 468 q 769 511 769 468 l 769 511 q 694 531 769 531 l 694 531 q 626 526 661 531 q 554 515 590 522 l 554 515 q 694 468 614 468 z m 796 972 l 796 972 q 790 981 793 972 q 793 992 788 989 l 793 992 q 817 1009 800 997 q 856 1036 833 1021 l 856 1036 q 908 1070 888 1056 q 942 1085 928 1085 l 942 1085 q 963 1076 954 1085 q 981 1057 971 1068 l 981 1057 q 1001 1037 992 1046 q 1019 1018 1010 1028 l 1019 1018 q 1033 1003 1026 1011 q 1040 986 1040 994 l 1040 986 q 1034 974 1040 981 q 1014 967 1028 968 l 1014 967 q 995 974 1004 967 q 975 990 986 981 l 975 990 q 951 1015 964 1001 q 929 1040 939 1029 l 929 1040 q 865 1006 908 1029 l 865 1006 q 824 982 842 992 q 796 972 807 972 z m 1115 1071 l 1111 1071 q 1104 1075 1106 1071 q 1106 1081 1103 1079 l 1106 1081 q 1156 1116 1133 1100 q 1178 1154 1178 1132 l 1178 1154 q 1154 1175 1178 1175 l 1154 1175 q 1120 1167 1140 1175 q 1085 1143 1100 1158 l 1085 1143 q 1084 1142 1085 1143 q 1082 1142 1083 1142 l 1082 1142 q 1079 1144 1081 1142 q 1079 1150 1078 1147 l 1079 1150 q 1119 1199 1090 1182 q 1183 1213 1147 1215 l 1183 1213 q 1211 1198 1201 1211 q 1221 1169 1221 1185 l 1221 1169 q 1210 1133 1221 1149 q 1182 1107 1200 1118 l 1182 1107 q 1139 1081 1156 1090 q 1115 1071 1122 1071 l 1115 1071 z "},"Ễ":{"ha":960,"x_min":4,"x_max":1113,"o":"m 356 -111 l 356 -111 q 183 -87 263 -111 q 53 -15 103 -64 q 4 107 4 33 l 4 107 q 40 221 4 164 l 40 221 q 476 522 168 424 l 476 522 q 431 642 431 575 l 431 642 q 460 735 431 696 l 460 735 q 632 864 517 813 l 632 864 q 765 907 697 892 q 901 922 832 922 l 901 922 q 1033 894 988 922 q 1078 817 1078 867 l 1078 817 q 1059 753 1078 782 q 1013 708 1040 725 q 956 690 985 690 l 956 690 q 913 711 913 690 l 913 711 q 931 724 913 724 l 931 724 q 945 722 936 724 q 958 719 954 719 l 958 719 q 1010 750 988 719 q 1032 811 1032 781 l 1032 811 q 990 875 1032 856 q 894 894 947 894 l 894 894 q 636 810 763 894 l 636 810 q 503 613 503 722 l 503 613 q 531 538 503 572 l 531 538 q 622 559 579 553 q 703 565 664 565 l 703 565 q 836 514 836 565 l 836 514 q 817 473 836 490 q 767 447 797 456 q 707 438 738 438 l 707 438 q 636 446 675 438 q 561 468 597 454 q 500 500 525 482 l 500 500 q 269 384 369 463 q 119 208 168 306 l 119 208 q 93 106 93 156 l 93 106 q 128 6 93 44 q 220 -51 163 -33 q 347 -69 278 -69 l 347 -69 q 576 -33 463 -69 q 771 76 690 4 l 771 76 q 881 281 881 174 l 881 281 q 799 365 881 365 l 799 365 q 703 344 756 365 q 603 286 650 322 q 526 207 557 250 q 496 119 496 164 l 496 119 q 535 65 496 75 l 535 65 q 549 51 549 60 l 549 51 q 528 40 549 40 l 528 40 q 454 122 454 40 l 454 122 q 486 225 454 176 q 569 311 518 274 q 679 370 619 349 q 794 392 739 392 l 794 392 q 896 363 860 392 q 932 271 932 335 l 932 271 q 789 28 932 142 l 789 28 q 589 -78 699 -46 q 356 -111 479 -111 z m 694 468 l 694 468 q 769 511 769 468 l 769 511 q 694 531 769 531 l 694 531 q 626 526 661 531 q 554 515 590 522 l 554 515 q 694 468 614 468 z m 796 972 l 796 972 q 790 981 793 972 q 793 992 788 989 l 793 992 q 817 1009 800 997 q 856 1036 833 1021 l 856 1036 q 908 1070 888 1056 q 942 1085 928 1085 l 942 1085 q 963 1076 954 1085 q 981 1057 971 1068 l 981 1057 q 1001 1037 992 1046 q 1019 1018 1010 1028 l 1019 1018 q 1033 1003 1026 1011 q 1040 986 1040 994 l 1040 986 q 1034 974 1040 981 q 1014 967 1028 968 l 1014 967 q 995 974 1004 967 q 975 990 986 981 l 975 990 q 951 1015 964 1001 q 929 1040 939 1029 l 929 1040 q 865 1006 908 1029 l 865 1006 q 824 982 842 992 q 796 972 807 972 z m 1025 1115 l 1025 1115 q 997 1120 1014 1115 q 958 1135 981 1125 l 958 1135 q 896 1156 917 1156 l 896 1156 q 874 1151 886 1156 q 851 1136 863 1147 l 851 1136 q 824 1117 832 1117 l 824 1117 q 822 1119 822 1118 l 822 1119 q 879 1182 822 1143 l 879 1182 q 926 1197 899 1197 l 926 1197 q 989 1181 947 1197 l 989 1181 q 1025 1169 1010 1172 q 1050 1165 1040 1165 l 1050 1165 q 1106 1197 1081 1165 l 1106 1197 q 1113 1192 1113 1197 l 1113 1192 q 1061 1128 1113 1167 l 1061 1128 q 1025 1115 1044 1115 z "},"Ȅ":{"ha":960,"x_min":4,"x_max":1078,"o":"m 356 -111 l 356 -111 q 183 -87 263 -111 q 53 -15 103 -64 q 4 107 4 33 l 4 107 q 40 221 4 164 l 40 221 q 476 522 168 424 l 476 522 q 431 642 431 575 l 431 642 q 460 735 431 696 l 460 735 q 632 864 517 813 l 632 864 q 765 907 697 892 q 901 922 832 922 l 901 922 q 1033 894 988 922 q 1078 817 1078 867 l 1078 817 q 1059 753 1078 782 q 1013 708 1040 725 q 956 690 985 690 l 956 690 q 913 711 913 690 l 913 711 q 931 724 913 724 l 931 724 q 945 722 936 724 q 958 719 954 719 l 958 719 q 1010 750 988 719 q 1032 811 1032 781 l 1032 811 q 990 875 1032 856 q 894 894 947 894 l 894 894 q 636 810 763 894 l 636 810 q 503 613 503 722 l 503 613 q 531 538 503 572 l 531 538 q 622 559 579 553 q 703 565 664 565 l 703 565 q 836 514 836 565 l 836 514 q 817 473 836 490 q 767 447 797 456 q 707 438 738 438 l 707 438 q 636 446 675 438 q 561 468 597 454 q 500 500 525 482 l 500 500 q 269 384 369 463 q 119 208 168 306 l 119 208 q 93 106 93 156 l 93 106 q 128 6 93 44 q 220 -51 163 -33 q 347 -69 278 -69 l 347 -69 q 576 -33 463 -69 q 771 76 690 4 l 771 76 q 881 281 881 174 l 881 281 q 799 365 881 365 l 799 365 q 703 344 756 365 q 603 286 650 322 q 526 207 557 250 q 496 119 496 164 l 496 119 q 535 65 496 75 l 535 65 q 549 51 549 60 l 549 51 q 528 40 549 40 l 528 40 q 454 122 454 40 l 454 122 q 486 225 454 176 q 569 311 518 274 q 679 370 619 349 q 794 392 739 392 l 794 392 q 896 363 860 392 q 932 271 932 335 l 932 271 q 789 28 932 142 l 789 28 q 589 -78 699 -46 q 356 -111 479 -111 z m 694 468 l 694 468 q 769 511 769 468 l 769 511 q 694 531 769 531 l 694 531 q 626 526 661 531 q 554 515 590 522 l 554 515 q 694 468 614 468 z m 1021 985 l 1021 985 q 994 999 1013 988 q 940 1033 975 1010 l 940 1033 q 897 1069 913 1054 q 874 1094 881 1085 l 874 1094 q 865 1108 869 1100 q 861 1122 860 1115 l 861 1122 q 875 1141 863 1132 q 893 1149 888 1150 l 893 1149 q 914 1132 901 1147 l 914 1132 l 1028 1001 q 1032 992 1032 999 l 1032 992 q 1021 985 1029 981 z m 882 985 l 882 985 q 853 994 874 988 q 794 1019 832 1001 l 794 1019 q 744 1047 764 1035 q 718 1067 725 1060 l 718 1067 q 706 1078 713 1072 q 700 1093 700 1085 l 700 1093 q 711 1113 700 1103 q 728 1124 722 1124 l 728 1124 q 751 1111 738 1124 l 751 1111 l 886 1003 q 892 993 892 999 l 892 993 q 882 985 892 982 z "},"Ë":{"ha":960,"x_min":4,"x_max":1138,"o":"m 890 983 l 890 983 q 871 998 881 983 q 861 1024 861 1013 l 861 1024 q 901 1074 861 1044 l 901 1074 q 965 1103 943 1103 l 965 1103 q 967 1102 967 1103 q 969 1101 968 1101 l 969 1101 q 950 1076 968 1101 l 950 1076 l 928 1021 q 890 983 911 983 z m 1058 983 l 1058 983 q 1039 998 1049 983 q 1029 1024 1029 1013 l 1029 1024 q 1069 1074 1029 1044 l 1069 1074 q 1133 1103 1111 1103 l 1133 1103 q 1135 1102 1135 1103 q 1138 1101 1136 1101 l 1138 1101 q 1118 1076 1136 1101 l 1118 1076 l 1096 1021 q 1058 983 1079 983 z m 407 -110 l 407 -110 q 99 -51 207 -119 l 99 -51 q 4 107 4 10 l 4 107 q 40 221 4 164 l 40 221 q 476 522 168 424 l 476 522 q 431 642 431 575 l 431 642 q 460 735 431 696 l 460 735 q 632 864 517 813 l 632 864 q 863 921 744 913 l 863 921 q 1026 898 972 928 q 1078 810 1081 868 l 1078 810 q 1038 726 1075 761 l 1038 726 q 956 690 999 690 l 956 690 q 913 711 913 690 l 913 711 q 931 724 913 724 l 931 724 q 945 722 936 724 q 958 719 954 719 l 958 719 q 1010 750 988 719 q 1032 811 1032 781 l 1032 811 q 978 881 1032 858 l 978 881 q 869 893 935 897 l 869 893 q 636 810 751 888 l 636 810 q 503 613 503 722 l 503 613 q 531 538 503 572 l 531 538 q 628 560 582 553 q 714 565 674 567 l 714 565 q 836 514 836 564 l 836 514 q 828 489 836 504 l 828 489 q 707 438 794 438 l 707 438 q 588 458 650 438 l 588 458 q 500 500 532 478 l 500 500 q 269 384 369 463 q 119 208 168 306 l 119 208 q 93 106 93 156 l 93 106 q 154 -18 93 28 l 154 -18 q 347 -69 222 -69 l 347 -69 q 419 -65 382 -69 l 419 -65 q 771 76 640 -42 l 771 76 q 881 281 881 174 l 881 281 q 799 365 881 365 l 799 365 q 572 260 700 365 l 572 260 q 518 193 540 233 q 496 119 496 153 l 496 119 q 535 65 496 75 l 535 65 q 549 51 549 60 l 549 51 q 521 40 549 38 l 521 40 q 454 122 454 43 l 454 122 q 542 289 454 214 l 542 289 q 794 392 661 392 l 794 392 q 921 329 894 392 l 921 329 q 932 271 932 300 l 932 271 q 789 28 932 142 l 789 28 q 407 -110 633 -99 z m 694 468 l 694 468 q 769 511 769 468 l 769 511 q 694 531 769 531 l 694 531 q 626 526 661 531 q 554 515 590 522 l 554 515 q 611 483 582 493 l 611 483 q 694 468 653 468 z "},"Ė":{"ha":960,"x_min":4,"x_max":1078,"o":"m 356 -111 l 356 -111 q 183 -87 263 -111 q 53 -15 103 -64 q 4 107 4 33 l 4 107 q 40 221 4 164 l 40 221 q 476 522 168 424 l 476 522 q 431 642 431 575 l 431 642 q 460 735 431 696 l 460 735 q 632 864 517 813 l 632 864 q 765 907 697 892 q 901 922 832 922 l 901 922 q 1033 894 988 922 q 1078 817 1078 867 l 1078 817 q 1059 753 1078 782 q 1013 708 1040 725 q 956 690 985 690 l 956 690 q 913 711 913 690 l 913 711 q 931 724 913 724 l 931 724 q 945 722 936 724 q 958 719 954 719 l 958 719 q 1010 750 988 719 q 1032 811 1032 781 l 1032 811 q 990 875 1032 856 q 894 894 947 894 l 894 894 q 636 810 763 894 l 636 810 q 503 613 503 722 l 503 613 q 531 538 503 572 l 531 538 q 622 559 579 553 q 703 565 664 565 l 703 565 q 836 514 836 565 l 836 514 q 817 473 836 490 q 767 447 797 456 q 707 438 738 438 l 707 438 q 636 446 675 438 q 561 468 597 454 q 500 500 525 482 l 500 500 q 269 384 369 463 q 119 208 168 306 l 119 208 q 93 106 93 156 l 93 106 q 128 6 93 44 q 220 -51 163 -33 q 347 -69 278 -69 l 347 -69 q 576 -33 463 -69 q 771 76 690 4 l 771 76 q 881 281 881 174 l 881 281 q 799 365 881 365 l 799 365 q 703 344 756 365 q 603 286 650 322 q 526 207 557 250 q 496 119 496 164 l 496 119 q 535 65 496 75 l 535 65 q 549 51 549 60 l 549 51 q 528 40 549 40 l 528 40 q 454 122 454 40 l 454 122 q 486 225 454 176 q 569 311 518 274 q 679 370 619 349 q 794 392 739 392 l 794 392 q 896 363 860 392 q 932 271 932 335 l 932 271 q 789 28 932 142 l 789 28 q 589 -78 699 -46 q 356 -111 479 -111 z m 694 468 l 694 468 q 769 511 769 468 l 769 511 q 694 531 769 531 l 694 531 q 626 526 661 531 q 554 515 590 522 l 554 515 q 694 468 614 468 z m 876 989 l 876 989 q 857 1003 867 989 q 847 1029 847 1018 l 847 1029 q 889 1079 847 1050 l 889 1079 q 953 1108 931 1108 l 953 1108 q 957 1107 956 1108 l 957 1107 q 938 1082 956 1107 l 938 1082 l 914 1026 q 876 989 897 989 z "},"Ẹ":{"ha":960,"x_min":4,"x_max":1078,"o":"m 356 -111 l 356 -111 q 183 -87 263 -111 q 53 -15 103 -64 q 4 107 4 33 l 4 107 q 40 221 4 164 l 40 221 q 476 522 168 424 l 476 522 q 431 642 431 575 l 431 642 q 460 735 431 696 l 460 735 q 632 864 517 813 l 632 864 q 765 907 697 892 q 901 922 832 922 l 901 922 q 1033 894 988 922 q 1078 817 1078 867 l 1078 817 q 1059 753 1078 782 q 1013 708 1040 725 q 956 690 985 690 l 956 690 q 913 711 913 690 l 913 711 q 931 724 913 724 l 931 724 q 945 722 936 724 q 958 719 954 719 l 958 719 q 1010 750 988 719 q 1032 811 1032 781 l 1032 811 q 990 875 1032 856 q 894 894 947 894 l 894 894 q 636 810 763 894 l 636 810 q 503 613 503 722 l 503 613 q 531 538 503 572 l 531 538 q 622 559 579 553 q 703 565 664 565 l 703 565 q 836 514 836 565 l 836 514 q 817 473 836 490 q 767 447 797 456 q 707 438 738 438 l 707 438 q 636 446 675 438 q 561 468 597 454 q 500 500 525 482 l 500 500 q 269 384 369 463 q 119 208 168 306 l 119 208 q 93 106 93 156 l 93 106 q 128 6 93 44 q 220 -51 163 -33 q 347 -69 278 -69 l 347 -69 q 576 -33 463 -69 q 771 76 690 4 l 771 76 q 881 281 881 174 l 881 281 q 799 365 881 365 l 799 365 q 703 344 756 365 q 603 286 650 322 q 526 207 557 250 q 496 119 496 164 l 496 119 q 535 65 496 75 l 535 65 q 549 51 549 60 l 549 51 q 528 40 549 40 l 528 40 q 454 122 454 40 l 454 122 q 486 225 454 176 q 569 311 518 274 q 679 370 619 349 q 794 392 739 392 l 794 392 q 896 363 860 392 q 932 271 932 335 l 932 271 q 789 28 932 142 l 789 28 q 589 -78 699 -46 q 356 -111 479 -111 z m 694 468 l 694 468 q 769 511 769 468 l 769 511 q 694 531 769 531 l 694 531 q 626 526 661 531 q 554 515 590 522 l 554 515 q 694 468 614 468 z m 239 -276 l 239 -276 q 219 -262 229 -276 q 210 -236 210 -247 l 210 -236 q 250 -186 210 -215 l 250 -186 q 292 -171 278 -169 q 299 -183 306 -172 l 299 -183 l 276 -239 q 239 -276 260 -276 z "},"È":{"ha":960,"x_min":4,"x_max":1078,"o":"m 356 -111 l 356 -111 q 183 -87 263 -111 q 53 -15 103 -64 q 4 107 4 33 l 4 107 q 40 221 4 164 l 40 221 q 476 522 168 424 l 476 522 q 431 642 431 575 l 431 642 q 460 735 431 696 l 460 735 q 632 864 517 813 l 632 864 q 765 907 697 892 q 901 922 832 922 l 901 922 q 1033 894 988 922 q 1078 817 1078 867 l 1078 817 q 1059 753 1078 782 q 1013 708 1040 725 q 956 690 985 690 l 956 690 q 913 711 913 690 l 913 711 q 931 724 913 724 l 931 724 q 945 722 936 724 q 958 719 954 719 l 958 719 q 1010 750 988 719 q 1032 811 1032 781 l 1032 811 q 990 875 1032 856 q 894 894 947 894 l 894 894 q 636 810 763 894 l 636 810 q 503 613 503 722 l 503 613 q 531 538 503 572 l 531 538 q 622 559 579 553 q 703 565 664 565 l 703 565 q 836 514 836 565 l 836 514 q 817 473 836 490 q 767 447 797 456 q 707 438 738 438 l 707 438 q 636 446 675 438 q 561 468 597 454 q 500 500 525 482 l 500 500 q 269 384 369 463 q 119 208 168 306 l 119 208 q 93 106 93 156 l 93 106 q 128 6 93 44 q 220 -51 163 -33 q 347 -69 278 -69 l 347 -69 q 576 -33 463 -69 q 771 76 690 4 l 771 76 q 881 281 881 174 l 881 281 q 799 365 881 365 l 799 365 q 703 344 756 365 q 603 286 650 322 q 526 207 557 250 q 496 119 496 164 l 496 119 q 535 65 496 75 l 535 65 q 549 51 549 60 l 549 51 q 528 40 549 40 l 528 40 q 454 122 454 40 l 454 122 q 486 225 454 176 q 569 311 518 274 q 679 370 619 349 q 794 392 739 392 l 794 392 q 896 363 860 392 q 932 271 932 335 l 932 271 q 789 28 932 142 l 789 28 q 589 -78 699 -46 q 356 -111 479 -111 z m 694 468 l 694 468 q 769 511 769 468 l 769 511 q 694 531 769 531 l 694 531 q 626 526 661 531 q 554 515 590 522 l 554 515 q 694 468 614 468 z m 975 992 l 975 992 q 886 1003 938 992 l 886 1003 q 831 1017 851 1010 q 800 1028 810 1024 l 800 1028 q 784 1036 793 1031 q 775 1051 775 1042 l 775 1051 q 782 1074 775 1063 q 797 1086 789 1086 l 797 1086 q 810 1085 801 1086 q 831 1076 818 1083 l 831 1076 q 896 1046 860 1063 q 972 1013 932 1029 l 972 1013 q 986 1000 986 1007 l 986 1000 q 975 992 986 992 z "},"Ẻ":{"ha":960,"x_min":4,"x_max":1078,"o":"m 356 -111 l 356 -111 q 183 -87 263 -111 q 53 -15 103 -64 q 4 107 4 33 l 4 107 q 40 221 4 164 l 40 221 q 476 522 168 424 l 476 522 q 431 642 431 575 l 431 642 q 460 735 431 696 l 460 735 q 632 864 517 813 l 632 864 q 765 907 697 892 q 901 922 832 922 l 901 922 q 1033 894 988 922 q 1078 817 1078 867 l 1078 817 q 1059 753 1078 782 q 1013 708 1040 725 q 956 690 985 690 l 956 690 q 913 711 913 690 l 913 711 q 931 724 913 724 l 931 724 q 945 722 936 724 q 958 719 954 719 l 958 719 q 1010 750 988 719 q 1032 811 1032 781 l 1032 811 q 990 875 1032 856 q 894 894 947 894 l 894 894 q 636 810 763 894 l 636 810 q 503 613 503 722 l 503 613 q 531 538 503 572 l 531 538 q 622 559 579 553 q 703 565 664 565 l 703 565 q 836 514 836 565 l 836 514 q 817 473 836 490 q 767 447 797 456 q 707 438 738 438 l 707 438 q 636 446 675 438 q 561 468 597 454 q 500 500 525 482 l 500 500 q 269 384 369 463 q 119 208 168 306 l 119 208 q 93 106 93 156 l 93 106 q 128 6 93 44 q 220 -51 163 -33 q 347 -69 278 -69 l 347 -69 q 576 -33 463 -69 q 771 76 690 4 l 771 76 q 881 281 881 174 l 881 281 q 799 365 881 365 l 799 365 q 703 344 756 365 q 603 286 650 322 q 526 207 557 250 q 496 119 496 164 l 496 119 q 535 65 496 75 l 535 65 q 549 51 549 60 l 549 51 q 528 40 549 40 l 528 40 q 454 122 454 40 l 454 122 q 486 225 454 176 q 569 311 518 274 q 679 370 619 349 q 794 392 739 392 l 794 392 q 896 363 860 392 q 932 271 932 335 l 932 271 q 789 28 932 142 l 789 28 q 589 -78 699 -46 q 356 -111 479 -111 z m 694 468 l 694 468 q 769 511 769 468 l 769 511 q 694 531 769 531 l 694 531 q 626 526 661 531 q 554 515 590 522 l 554 515 q 694 468 614 468 z m 874 989 l 869 989 q 863 993 864 989 q 864 999 861 997 l 864 999 q 914 1034 892 1018 q 936 1072 936 1050 l 936 1072 q 913 1093 936 1093 l 913 1093 q 878 1085 899 1093 q 843 1061 858 1076 l 843 1061 q 842 1060 843 1061 q 840 1060 842 1060 l 840 1060 q 838 1063 839 1060 q 838 1068 836 1065 l 838 1068 q 877 1117 849 1100 q 942 1131 906 1133 l 942 1131 q 969 1116 960 1129 q 979 1088 979 1103 l 979 1088 q 969 1051 979 1067 q 940 1025 958 1036 l 940 1025 q 897 999 914 1008 q 874 989 881 989 l 874 989 z "},"Ȇ":{"ha":960,"x_min":4,"x_max":1078,"o":"m 356 -111 l 356 -111 q 183 -87 263 -111 q 53 -15 103 -64 q 4 107 4 33 l 4 107 q 40 221 4 164 l 40 221 q 476 522 168 424 l 476 522 q 431 642 431 575 l 431 642 q 460 735 431 696 l 460 735 q 632 864 517 813 l 632 864 q 765 907 697 892 q 901 922 832 922 l 901 922 q 1033 894 988 922 q 1078 817 1078 867 l 1078 817 q 1059 753 1078 782 q 1013 708 1040 725 q 956 690 985 690 l 956 690 q 913 711 913 690 l 913 711 q 931 724 913 724 l 931 724 q 945 722 936 724 q 958 719 954 719 l 958 719 q 1010 750 988 719 q 1032 811 1032 781 l 1032 811 q 990 875 1032 856 q 894 894 947 894 l 894 894 q 636 810 763 894 l 636 810 q 503 613 503 722 l 503 613 q 531 538 503 572 l 531 538 q 622 559 579 553 q 703 565 664 565 l 703 565 q 836 514 836 565 l 836 514 q 817 473 836 490 q 767 447 797 456 q 707 438 738 438 l 707 438 q 636 446 675 438 q 561 468 597 454 q 500 500 525 482 l 500 500 q 269 384 369 463 q 119 208 168 306 l 119 208 q 93 106 93 156 l 93 106 q 128 6 93 44 q 220 -51 163 -33 q 347 -69 278 -69 l 347 -69 q 576 -33 463 -69 q 771 76 690 4 l 771 76 q 881 281 881 174 l 881 281 q 799 365 881 365 l 799 365 q 703 344 756 365 q 603 286 650 322 q 526 207 557 250 q 496 119 496 164 l 496 119 q 535 65 496 75 l 535 65 q 549 51 549 60 l 549 51 q 528 40 549 40 l 528 40 q 454 122 454 40 l 454 122 q 486 225 454 176 q 569 311 518 274 q 679 370 619 349 q 794 392 739 392 l 794 392 q 896 363 860 392 q 932 271 932 335 l 932 271 q 789 28 932 142 l 789 28 q 589 -78 699 -46 q 356 -111 479 -111 z m 694 468 l 694 468 q 769 511 769 468 l 769 511 q 694 531 769 531 l 694 531 q 626 526 661 531 q 554 515 590 522 l 554 515 q 694 468 614 468 z m 988 1151 l 988 1151 q 1047 1128 1028 1151 q 1063 1067 1065 1106 l 1063 1067 q 1056 1033 1061 1050 q 1036 1015 1050 1015 l 1036 1015 q 1024 1024 1026 1015 q 1021 1042 1021 1033 l 1021 1042 q 963 1097 1017 1097 l 963 1097 q 889 1082 926 1097 q 818 1039 851 1067 l 818 1039 q 781 1015 789 1015 l 781 1015 q 774 1021 774 1015 l 774 1021 q 782 1034 774 1024 q 813 1067 790 1044 l 813 1067 q 892 1126 846 1100 q 988 1151 939 1151 z "},"Ē":{"ha":960,"x_min":4,"x_max":1078,"o":"m 356 -111 l 356 -111 q 183 -87 263 -111 q 53 -15 103 -64 q 4 107 4 33 l 4 107 q 40 221 4 164 l 40 221 q 476 522 168 424 l 476 522 q 431 642 431 575 l 431 642 q 460 735 431 696 l 460 735 q 632 864 517 813 l 632 864 q 765 907 697 892 q 901 922 832 922 l 901 922 q 1033 894 988 922 q 1078 817 1078 867 l 1078 817 q 1059 753 1078 782 q 1013 708 1040 725 q 956 690 985 690 l 956 690 q 913 711 913 690 l 913 711 q 931 724 913 724 l 931 724 q 945 722 936 724 q 958 719 954 719 l 958 719 q 1010 750 988 719 q 1032 811 1032 781 l 1032 811 q 990 875 1032 856 q 894 894 947 894 l 894 894 q 636 810 763 894 l 636 810 q 503 613 503 722 l 503 613 q 531 538 503 572 l 531 538 q 622 559 579 553 q 703 565 664 565 l 703 565 q 836 514 836 565 l 836 514 q 817 473 836 490 q 767 447 797 456 q 707 438 738 438 l 707 438 q 636 446 675 438 q 561 468 597 454 q 500 500 525 482 l 500 500 q 269 384 369 463 q 119 208 168 306 l 119 208 q 93 106 93 156 l 93 106 q 128 6 93 44 q 220 -51 163 -33 q 347 -69 278 -69 l 347 -69 q 576 -33 463 -69 q 771 76 690 4 l 771 76 q 881 281 881 174 l 881 281 q 799 365 881 365 l 799 365 q 703 344 756 365 q 603 286 650 322 q 526 207 557 250 q 496 119 496 164 l 496 119 q 535 65 496 75 l 535 65 q 549 51 549 60 l 549 51 q 528 40 549 40 l 528 40 q 454 122 454 40 l 454 122 q 486 225 454 176 q 569 311 518 274 q 679 370 619 349 q 794 392 739 392 l 794 392 q 896 363 860 392 q 932 271 932 335 l 932 271 q 789 28 932 142 l 789 28 q 589 -78 699 -46 q 356 -111 479 -111 z m 694 468 l 694 468 q 769 511 769 468 l 769 511 q 694 531 769 531 l 694 531 q 626 526 661 531 q 554 515 590 522 l 554 515 q 694 468 614 468 z m 778 999 l 778 999 q 760 1015 771 999 q 749 1039 750 1031 l 749 1039 l 751 1040 q 799 1049 765 1047 q 886 1050 833 1050 l 886 1050 q 1033 1033 1000 1050 l 1033 1033 q 1038 1029 1038 1032 l 1038 1029 q 1035 1021 1038 1026 q 1029 1015 1033 1015 l 1029 1015 q 903 1007 986 1015 l 903 1007 q 778 999 819 999 z "},"Ŋ":{"ha":1285,"x_min":3,"x_max":1536,"o":"m 490 -399 l 490 -399 q 482 -340 481 -367 q 482 -304 483 -314 l 482 -304 q 489 -299 485 -299 l 489 -299 q 513 -320 500 -299 q 539 -379 526 -342 l 539 -379 q 583 -464 558 -440 q 635 -483 608 -487 q 690 -454 663 -478 q 744 -397 718 -431 q 792 -329 769 -364 l 792 -329 q 833 -259 806 -308 q 896 -143 860 -210 q 970 -5 932 -76 q 1043 133 1008 67 q 1103 250 1078 200 l 1103 250 q 1169 372 1128 299 q 1261 527 1210 444 q 1368 688 1313 610 l 1368 688 q 890 396 1183 671 l 890 396 q 697 206 775 286 q 574 51 619 126 l 574 51 q 547 8 560 28 q 517 -32 533 -12 l 517 -32 q 494 -44 508 -40 q 467 -49 481 -49 l 467 -49 q 434 -40 442 -49 q 431 -24 426 -31 l 431 -24 q 468 38 438 -8 q 542 147 499 83 l 542 147 q 660 325 614 251 q 728 438 706 399 l 728 438 q 822 706 822 607 l 822 706 q 807 778 822 744 l 807 778 q 693 828 785 828 l 693 828 q 342 676 528 828 l 342 676 q 217 559 272 619 q 124 435 163 499 l 124 435 q 54 224 54 317 l 54 224 q 178 88 54 90 l 178 88 q 438 203 350 83 l 438 203 q 471 289 471 249 l 471 289 q 456 321 471 313 l 456 321 q 454 325 454 322 l 454 325 q 463 331 454 331 l 463 331 q 499 283 499 331 l 499 283 q 475 210 499 254 l 475 210 q 379 115 443 154 l 379 115 q 201 65 299 65 l 201 65 q 57 119 111 65 q 3 265 3 174 l 3 265 q 300 721 3 482 l 300 721 q 494 821 375 781 l 494 821 q 714 861 615 861 l 714 861 q 856 821 811 861 l 856 821 q 892 722 892 788 l 892 722 q 811 461 892 624 l 811 461 q 765 378 793 425 q 700 274 738 331 l 700 274 q 840 411 743 328 l 840 411 q 1164 653 1015 558 q 1435 793 1313 749 l 1435 793 q 1463 799 1447 799 l 1463 799 q 1529 739 1515 799 l 1529 739 q 1463 640 1536 715 l 1463 640 q 1351 508 1404 582 q 1249 354 1297 433 q 1158 201 1201 275 l 1158 201 q 1138 163 1157 197 q 1089 73 1118 128 q 1026 -47 1060 18 q 958 -174 992 -111 q 896 -290 924 -237 q 852 -372 868 -342 q 838 -399 836 -401 l 838 -399 q 766 -483 807 -456 q 681 -513 725 -510 q 597 -502 638 -517 q 528 -460 557 -487 q 490 -399 500 -432 z "},"Ę":{"ha":960,"x_min":4,"x_max":1078,"o":"m 356 -111 l 356 -111 q 183 -87 263 -111 q 53 -15 103 -64 q 4 107 4 33 l 4 107 q 40 221 4 164 l 40 221 q 476 522 168 424 l 476 522 q 431 642 431 575 l 431 642 q 460 735 431 696 l 460 735 q 632 864 517 813 l 632 864 q 765 907 697 892 q 901 922 832 922 l 901 922 q 1033 894 988 922 q 1078 817 1078 867 l 1078 817 q 1059 753 1078 782 q 1013 708 1040 725 q 956 690 985 690 l 956 690 q 913 711 913 690 l 913 711 q 931 724 913 724 l 931 724 q 945 722 936 724 q 958 719 954 719 l 958 719 q 1010 750 988 719 q 1032 811 1032 781 l 1032 811 q 990 875 1032 856 q 894 894 947 894 l 894 894 q 636 810 763 894 l 636 810 q 503 613 503 722 l 503 613 q 531 538 503 572 l 531 538 q 622 559 579 553 q 703 565 664 565 l 703 565 q 836 514 836 565 l 836 514 q 817 473 836 490 q 767 447 797 456 q 707 438 738 438 l 707 438 q 636 446 675 438 q 561 468 597 454 q 500 500 525 482 l 500 500 q 269 384 369 463 q 119 208 168 306 l 119 208 q 93 106 93 156 l 93 106 q 128 6 93 44 q 220 -51 163 -33 q 347 -69 278 -69 l 347 -69 q 576 -33 463 -69 q 771 76 690 4 l 771 76 q 881 281 881 174 l 881 281 q 799 365 881 365 l 799 365 q 703 344 756 365 q 603 286 650 322 q 526 207 557 250 q 496 119 496 164 l 496 119 q 535 65 496 75 l 535 65 q 549 51 549 60 l 549 51 q 528 40 549 40 l 528 40 q 454 122 454 40 l 454 122 q 486 225 454 176 q 569 311 518 274 q 679 370 619 349 q 794 392 739 392 l 794 392 q 896 363 860 392 q 932 271 932 335 l 932 271 q 789 28 932 142 l 789 28 q 589 -78 699 -46 q 356 -111 479 -111 z m 694 468 l 694 468 q 769 511 769 468 l 769 511 q 694 531 769 531 l 694 531 q 626 526 661 531 q 554 515 590 522 l 554 515 q 694 468 614 468 z m 468 -256 l 468 -256 q 401 -318 468 -296 l 401 -318 q 353 -331 374 -328 q 318 -333 332 -333 l 318 -333 q 242 -275 242 -333 l 242 -275 q 268 -179 242 -237 l 268 -179 q 329 -111 299 -112 l 329 -111 l 333 -115 q 286 -237 286 -181 l 286 -237 q 349 -294 286 -294 l 349 -294 q 417 -279 381 -294 q 468 -256 454 -264 z "},"Ð":{"ha":1279,"x_min":21,"x_max":1286,"o":"m 593 -81 l 593 -81 q 260 35 361 -92 l 260 35 q 81 -60 138 -60 l 81 -60 q 33 -26 50 -60 l 33 -26 q 21 35 21 1 l 21 35 q 72 226 21 101 l 72 226 q 185 368 133 368 l 185 368 q 225 285 211 368 l 225 285 q 268 113 249 160 l 268 113 q 344 198 300 146 q 442 318 388 250 l 442 318 q 404 322 425 318 l 404 322 q 360 351 360 331 l 360 351 q 372 376 360 367 q 394 385 385 385 l 394 385 q 399 385 396 385 q 408 386 403 385 l 408 386 l 444 386 q 469 387 456 386 q 496 386 482 388 l 496 386 l 542 446 q 840 769 767 742 l 840 769 q 890 779 865 779 l 890 779 q 935 767 918 779 q 953 740 953 756 l 953 740 q 913 713 953 717 l 913 713 q 763 585 864 686 l 763 585 q 670 487 711 533 q 600 400 629 440 l 600 400 l 589 385 q 729 389 682 385 l 729 389 q 621 344 740 365 l 621 344 l 551 335 q 427 188 490 254 q 303 69 364 121 l 303 69 l 294 63 q 539 -53 372 -53 l 539 -53 q 566 -52 553 -53 q 593 -50 579 -51 l 593 -50 q 1140 285 979 -14 l 1140 285 q 1206 513 1206 404 l 1206 513 q 1121 731 1206 638 l 1121 731 q 969 826 1053 807 l 969 826 q 810 843 893 843 l 810 843 q 415 744 596 843 l 415 744 q 225 524 235 646 l 225 524 q 246 451 221 481 l 246 451 q 269 429 263 432 l 269 429 l 261 429 q 197 465 225 436 l 197 465 q 167 544 165 503 l 167 544 q 343 782 174 685 l 343 782 q 750 881 515 881 l 750 881 q 856 875 803 881 q 960 858 908 869 l 960 858 q 1179 736 1086 831 l 1179 736 q 1286 485 1286 625 l 1286 485 q 1225 269 1286 381 l 1225 269 q 910 -11 1119 78 l 910 -11 q 593 -81 764 -72 z m 88 -35 l 88 -35 q 232 75 147 -8 l 232 75 q 179 188 192 142 l 179 188 q 167 281 171 218 l 167 281 q 71 40 71 143 l 71 40 q 88 -35 71 -3 z "},"Ẽ":{"ha":960,"x_min":4,"x_max":1078,"o":"m 356 -111 l 356 -111 q 183 -87 263 -111 q 53 -15 103 -64 q 4 107 4 33 l 4 107 q 40 221 4 164 l 40 221 q 476 522 168 424 l 476 522 q 431 642 431 575 l 431 642 q 460 735 431 696 l 460 735 q 632 864 517 813 l 632 864 q 765 907 697 892 q 901 922 832 922 l 901 922 q 1033 894 988 922 q 1078 817 1078 867 l 1078 817 q 1059 753 1078 782 q 1013 708 1040 725 q 956 690 985 690 l 956 690 q 913 711 913 690 l 913 711 q 931 724 913 724 l 931 724 q 945 722 936 724 q 958 719 954 719 l 958 719 q 1010 750 988 719 q 1032 811 1032 781 l 1032 811 q 990 875 1032 856 q 894 894 947 894 l 894 894 q 636 810 763 894 l 636 810 q 503 613 503 722 l 503 613 q 531 538 503 572 l 531 538 q 622 559 579 553 q 703 565 664 565 l 703 565 q 836 514 836 565 l 836 514 q 817 473 836 490 q 767 447 797 456 q 707 438 738 438 l 707 438 q 636 446 675 438 q 561 468 597 454 q 500 500 525 482 l 500 500 q 269 384 369 463 q 119 208 168 306 l 119 208 q 93 106 93 156 l 93 106 q 128 6 93 44 q 220 -51 163 -33 q 347 -69 278 -69 l 347 -69 q 576 -33 463 -69 q 771 76 690 4 l 771 76 q 881 281 881 174 l 881 281 q 799 365 881 365 l 799 365 q 703 344 756 365 q 603 286 650 322 q 526 207 557 250 q 496 119 496 164 l 496 119 q 535 65 496 75 l 535 65 q 549 51 549 60 l 549 51 q 528 40 549 40 l 528 40 q 454 122 454 40 l 454 122 q 486 225 454 176 q 569 311 518 274 q 679 370 619 349 q 794 392 739 392 l 794 392 q 896 363 860 392 q 932 271 932 335 l 932 271 q 789 28 932 142 l 789 28 q 589 -78 699 -46 q 356 -111 479 -111 z m 694 468 l 694 468 q 769 511 769 468 l 769 511 q 694 531 769 531 l 694 531 q 626 526 661 531 q 554 515 590 522 l 554 515 q 694 468 614 468 z m 972 996 l 972 996 q 944 1001 961 996 q 906 1015 928 1006 l 906 1015 q 843 1036 864 1036 l 843 1036 q 822 1032 833 1036 q 799 1017 810 1028 l 799 1017 q 771 997 779 997 l 771 997 q 769 1000 769 999 l 769 1000 q 826 1063 769 1024 l 826 1063 q 874 1078 846 1078 l 874 1078 q 936 1061 894 1078 l 936 1061 q 972 1049 957 1053 q 997 1046 988 1046 l 997 1046 q 1053 1078 1028 1046 l 1053 1078 q 1060 1072 1060 1078 l 1060 1072 q 1008 1008 1060 1047 l 1008 1008 q 972 996 992 996 z "},"F":{"ha":878,"x_min":-17,"x_max":1011,"o":"m 353 -124 l 353 -124 q 326 -108 326 -124 l 326 -108 q 425 63 326 -78 l 425 63 q 520 188 469 124 q 626 319 571 253 l 626 319 q 536 306 575 310 q 474 301 497 301 l 474 301 q 468 308 468 303 l 468 308 q 485 332 468 318 q 513 346 501 346 l 513 346 q 533 346 515 346 q 581 347 550 346 l 581 347 l 651 347 q 724 449 672 375 q 861 642 776 522 l 861 642 q 928 800 928 738 l 928 800 q 783 897 928 897 l 783 897 q 598 865 696 897 q 406 780 500 833 q 239 664 313 726 l 239 664 q 96 501 149 588 q 43 346 43 414 l 43 346 q 197 238 43 228 l 197 238 q 363 339 282 244 l 363 339 q 432 497 440 432 l 432 497 q 468 454 468 490 l 468 454 q 393 317 468 394 l 393 317 q 278 235 342 265 q 146 204 215 204 l 146 204 q 26 245 68 204 q -17 354 -17 286 l -17 354 q 183 685 -17 518 l 183 685 q 372 810 271 757 q 581 894 474 864 q 790 924 688 924 l 790 924 q 951 890 892 924 q 1011 790 1011 856 l 1011 790 q 957 653 1011 731 l 957 653 q 883 549 939 625 q 733 349 828 472 l 733 349 l 814 346 q 864 344 846 344 q 885 344 882 343 l 885 344 l 893 344 q 918 335 918 344 l 918 335 q 864 315 918 315 l 864 315 q 849 315 863 315 q 813 317 836 315 l 813 317 q 775 318 792 318 q 746 318 758 318 l 746 318 q 703 311 710 315 l 703 311 q 635 224 672 272 q 557 117 599 175 l 557 117 q 447 -61 447 -35 l 447 -61 q 458 -64 447 -69 q 472 -56 468 -58 l 472 -56 q 488 -60 488 -56 l 488 -60 q 457 -81 488 -67 l 457 -81 l 418 -101 q 353 -124 392 -124 z "},"G":{"ha":1150,"x_min":-21,"x_max":1317,"o":"m 707 -214 l 707 -214 q 696 -196 696 -214 l 696 -196 q 716 -124 696 -171 q 774 -8 736 -78 l 774 -8 l 871 174 q 651 36 782 97 l 651 36 q 475 -29 568 -4 q 296 -54 382 -54 l 296 -54 q 63 15 146 -54 q -21 199 -21 85 l -21 199 q 236 631 -21 411 l 236 631 q 378 731 299 683 q 544 813 457 778 q 719 869 632 849 q 885 889 807 889 l 885 889 q 1008 871 950 889 q 1102 819 1065 853 q 1139 735 1139 785 l 1139 735 q 1111 653 1139 693 q 1040 581 1083 613 q 945 529 996 549 q 847 510 894 510 l 847 510 q 718 646 721 510 l 718 646 q 742 715 715 715 l 742 715 q 760 656 765 715 l 760 656 q 856 542 746 542 l 856 542 q 936 556 893 542 q 1016 594 979 569 q 1076 650 1053 619 q 1100 714 1100 681 l 1100 714 q 1070 781 1100 756 q 994 819 1040 807 q 894 832 947 832 l 894 832 q 668 797 782 832 q 449 698 554 761 q 257 551 343 635 l 257 551 q 58 194 58 357 l 58 194 q 131 40 58 97 q 322 -18 204 -18 l 322 -18 q 515 18 417 -18 q 703 106 614 54 l 703 106 q 974 321 883 207 l 974 321 l 1014 381 q 944 376 996 381 q 803 365 892 372 l 803 365 q 656 352 710 358 q 589 343 603 346 l 589 343 q 556 339 572 339 l 556 339 q 510 361 510 339 l 510 361 q 632 422 510 396 l 632 422 q 765 437 675 432 q 993 442 856 442 l 993 442 q 1304 422 1224 442 l 1304 422 q 1317 415 1317 421 l 1317 415 q 1221 393 1317 401 l 1221 393 l 1153 388 q 1099 383 1114 383 l 1099 383 q 732 -192 957 199 l 732 -192 q 707 -214 719 -214 z "},"Ğ":{"ha":1150,"x_min":-21,"x_max":1317,"o":"m 707 -214 l 707 -214 q 696 -196 696 -214 l 696 -196 q 716 -124 696 -171 q 774 -8 736 -78 l 774 -8 l 871 174 q 651 36 782 97 l 651 36 q 475 -29 568 -4 q 296 -54 382 -54 l 296 -54 q 63 15 146 -54 q -21 199 -21 85 l -21 199 q 236 631 -21 411 l 236 631 q 378 731 299 683 q 544 813 457 778 q 719 869 632 849 q 885 889 807 889 l 885 889 q 1008 871 950 889 q 1102 819 1065 853 q 1139 735 1139 785 l 1139 735 q 1111 653 1139 693 q 1040 581 1083 613 q 945 529 996 549 q 847 510 894 510 l 847 510 q 718 646 721 510 l 718 646 q 742 715 715 715 l 742 715 q 760 656 765 715 l 760 656 q 856 542 746 542 l 856 542 q 936 556 893 542 q 1016 594 979 569 q 1076 650 1053 619 q 1100 714 1100 681 l 1100 714 q 1070 781 1100 756 q 994 819 1040 807 q 894 832 947 832 l 894 832 q 668 797 782 832 q 449 698 554 761 q 257 551 343 635 l 257 551 q 58 194 58 357 l 58 194 q 131 40 58 97 q 322 -18 204 -18 l 322 -18 q 515 18 417 -18 q 703 106 614 54 l 703 106 q 974 321 883 207 l 974 321 l 1014 381 q 944 376 996 381 q 803 365 892 372 l 803 365 q 656 352 710 358 q 589 343 603 346 l 589 343 q 556 339 572 339 l 556 339 q 510 361 510 339 l 510 361 q 632 422 510 396 l 632 422 q 765 437 675 432 q 993 442 856 442 l 993 442 q 1304 422 1224 442 l 1304 422 q 1317 415 1317 421 l 1317 415 q 1221 393 1317 401 l 1221 393 l 1153 388 q 1099 383 1114 383 l 1099 383 q 732 -192 957 199 l 732 -192 q 707 -214 719 -214 z m 899 971 l 899 971 q 839 993 860 971 q 818 1053 818 1015 l 818 1053 q 823 1087 818 1069 q 842 1104 828 1104 l 842 1104 q 855 1095 853 1104 q 858 1078 857 1086 l 858 1078 q 921 1025 867 1025 l 921 1025 q 990 1042 953 1025 q 1071 1104 1028 1060 l 1071 1104 q 1096 1123 1082 1115 q 1110 1122 1110 1131 l 1110 1122 q 1099 1101 1110 1117 l 1099 1101 q 998 1004 1050 1038 q 899 971 946 971 z "},"Ǧ":{"ha":1150,"x_min":-21,"x_max":1317,"o":"m 707 -214 l 707 -214 q 696 -196 696 -214 l 696 -196 q 716 -124 696 -171 q 774 -8 736 -78 l 774 -8 l 871 174 q 651 36 782 97 l 651 36 q 475 -29 568 -4 q 296 -54 382 -54 l 296 -54 q 63 15 146 -54 q -21 199 -21 85 l -21 199 q 236 631 -21 411 l 236 631 q 378 731 299 683 q 544 813 457 778 q 719 869 632 849 q 885 889 807 889 l 885 889 q 1008 871 950 889 q 1102 819 1065 853 q 1139 735 1139 785 l 1139 735 q 1111 653 1139 693 q 1040 581 1083 613 q 945 529 996 549 q 847 510 894 510 l 847 510 q 718 646 721 510 l 718 646 q 742 715 715 715 l 742 715 q 760 656 765 715 l 760 656 q 856 542 746 542 l 856 542 q 936 556 893 542 q 1016 594 979 569 q 1076 650 1053 619 q 1100 714 1100 681 l 1100 714 q 1070 781 1100 756 q 994 819 1040 807 q 894 832 947 832 l 894 832 q 668 797 782 832 q 449 698 554 761 q 257 551 343 635 l 257 551 q 58 194 58 357 l 58 194 q 131 40 58 97 q 322 -18 204 -18 l 322 -18 q 515 18 417 -18 q 703 106 614 54 l 703 106 q 974 321 883 207 l 974 321 l 1014 381 q 944 376 996 381 q 803 365 892 372 l 803 365 q 656 352 710 358 q 589 343 603 346 l 589 343 q 556 339 572 339 l 556 339 q 510 361 510 339 l 510 361 q 632 422 510 396 l 632 422 q 765 437 675 432 q 993 442 856 442 l 993 442 q 1304 422 1224 442 l 1304 422 q 1317 415 1317 421 l 1317 415 q 1221 393 1317 401 l 1221 393 l 1153 388 q 1099 383 1114 383 l 1099 383 q 732 -192 957 199 l 732 -192 q 707 -214 719 -214 z m 818 1093 l 818 1093 q 834 1079 825 1093 q 858 1044 843 1065 l 858 1044 q 868 1028 865 1038 q 875 1011 871 1019 l 875 1011 q 935 1042 899 1022 q 993 1072 971 1063 l 993 1072 q 1023 1085 1004 1078 q 1051 1093 1042 1093 l 1051 1093 q 1065 1085 1065 1093 l 1065 1085 q 1056 1069 1065 1079 q 1039 1054 1047 1060 l 1039 1054 q 969 1019 1008 1040 q 899 983 931 999 q 857 967 867 967 l 857 967 q 828 983 840 967 q 806 1024 817 1000 l 806 1024 q 800 1042 803 1033 q 797 1061 797 1051 l 797 1061 q 818 1093 797 1093 z "},"Ĝ":{"ha":1150,"x_min":-21,"x_max":1317,"o":"m 707 -214 l 707 -214 q 696 -196 696 -214 l 696 -196 q 716 -124 696 -171 q 774 -8 736 -78 l 774 -8 l 871 174 q 651 36 782 97 l 651 36 q 475 -29 568 -4 q 296 -54 382 -54 l 296 -54 q 63 15 146 -54 q -21 199 -21 85 l -21 199 q 236 631 -21 411 l 236 631 q 378 731 299 683 q 544 813 457 778 q 719 869 632 849 q 885 889 807 889 l 885 889 q 1008 871 950 889 q 1102 819 1065 853 q 1139 735 1139 785 l 1139 735 q 1111 653 1139 693 q 1040 581 1083 613 q 945 529 996 549 q 847 510 894 510 l 847 510 q 718 646 721 510 l 718 646 q 742 715 715 715 l 742 715 q 760 656 765 715 l 760 656 q 856 542 746 542 l 856 542 q 936 556 893 542 q 1016 594 979 569 q 1076 650 1053 619 q 1100 714 1100 681 l 1100 714 q 1070 781 1100 756 q 994 819 1040 807 q 894 832 947 832 l 894 832 q 668 797 782 832 q 449 698 554 761 q 257 551 343 635 l 257 551 q 58 194 58 357 l 58 194 q 131 40 58 97 q 322 -18 204 -18 l 322 -18 q 515 18 417 -18 q 703 106 614 54 l 703 106 q 974 321 883 207 l 974 321 l 1014 381 q 944 376 996 381 q 803 365 892 372 l 803 365 q 656 352 710 358 q 589 343 603 346 l 589 343 q 556 339 572 339 l 556 339 q 510 361 510 339 l 510 361 q 632 422 510 396 l 632 422 q 765 437 675 432 q 993 442 856 442 l 993 442 q 1304 422 1224 442 l 1304 422 q 1317 415 1317 421 l 1317 415 q 1221 393 1317 401 l 1221 393 l 1153 388 q 1099 383 1114 383 l 1099 383 q 732 -192 957 199 l 732 -192 q 707 -214 719 -214 z m 797 947 l 797 947 q 792 956 794 947 q 794 967 789 964 l 794 967 q 818 984 801 972 q 857 1011 835 996 l 857 1011 q 909 1045 889 1031 q 943 1060 929 1060 l 943 1060 q 964 1051 956 1060 q 982 1032 972 1043 l 982 1032 q 1002 1012 993 1021 q 1021 993 1011 1003 l 1021 993 q 1035 978 1028 986 q 1042 961 1042 969 l 1042 961 q 1035 949 1042 956 q 1015 942 1029 943 l 1015 942 q 997 949 1006 942 q 976 965 988 956 l 976 965 q 953 990 965 976 q 931 1015 940 1004 l 931 1015 q 867 981 910 1004 l 867 981 q 826 957 843 967 q 797 947 808 947 z "},"Ģ":{"ha":1150,"x_min":-21,"x_max":1317,"o":"m 707 -214 l 707 -214 q 696 -196 696 -214 l 696 -196 q 716 -124 696 -171 q 774 -8 736 -78 l 774 -8 l 871 174 q 651 36 782 97 l 651 36 q 475 -29 568 -4 q 296 -54 382 -54 l 296 -54 q 63 15 146 -54 q -21 199 -21 85 l -21 199 q 236 631 -21 411 l 236 631 q 378 731 299 683 q 544 813 457 778 q 719 869 632 849 q 885 889 807 889 l 885 889 q 1008 871 950 889 q 1102 819 1065 853 q 1139 735 1139 785 l 1139 735 q 1111 653 1139 693 q 1040 581 1083 613 q 945 529 996 549 q 847 510 894 510 l 847 510 q 718 646 721 510 l 718 646 q 742 715 715 715 l 742 715 q 760 656 765 715 l 760 656 q 856 542 746 542 l 856 542 q 936 556 893 542 q 1016 594 979 569 q 1076 650 1053 619 q 1100 714 1100 681 l 1100 714 q 1070 781 1100 756 q 994 819 1040 807 q 894 832 947 832 l 894 832 q 668 797 782 832 q 449 698 554 761 q 257 551 343 635 l 257 551 q 58 194 58 357 l 58 194 q 131 40 58 97 q 322 -18 204 -18 l 322 -18 q 515 18 417 -18 q 703 106 614 54 l 703 106 q 974 321 883 207 l 974 321 l 1014 381 q 944 376 996 381 q 803 365 892 372 l 803 365 q 656 352 710 358 q 589 343 603 346 l 589 343 q 556 339 572 339 l 556 339 q 510 361 510 339 l 510 361 q 632 422 510 396 l 632 422 q 765 437 675 432 q 993 442 856 442 l 993 442 q 1304 422 1224 442 l 1304 422 q 1317 415 1317 421 l 1317 415 q 1221 393 1317 401 l 1221 393 l 1153 388 q 1099 383 1114 383 l 1099 383 q 732 -192 957 199 l 732 -192 q 707 -214 719 -214 z m 183 -306 l 183 -306 q 178 -301 178 -304 l 178 -301 q 210 -264 178 -300 l 210 -264 q 238 -200 242 -228 l 238 -200 q 218 -173 236 -185 q 200 -149 200 -161 l 200 -149 q 240 -107 200 -107 l 240 -107 q 279 -120 260 -107 q 299 -154 299 -133 l 299 -154 q 250 -265 299 -212 l 250 -265 q 183 -306 206 -311 z "},"Ġ":{"ha":1150,"x_min":-21,"x_max":1317,"o":"m 707 -214 l 707 -214 q 696 -196 696 -214 l 696 -196 q 716 -124 696 -171 q 774 -8 736 -78 l 774 -8 l 871 174 q 651 36 782 97 l 651 36 q 475 -29 568 -4 q 296 -54 382 -54 l 296 -54 q 63 15 146 -54 q -21 199 -21 85 l -21 199 q 236 631 -21 411 l 236 631 q 378 731 299 683 q 544 813 457 778 q 719 869 632 849 q 885 889 807 889 l 885 889 q 1008 871 950 889 q 1102 819 1065 853 q 1139 735 1139 785 l 1139 735 q 1111 653 1139 693 q 1040 581 1083 613 q 945 529 996 549 q 847 510 894 510 l 847 510 q 718 646 721 510 l 718 646 q 742 715 715 715 l 742 715 q 760 656 765 715 l 760 656 q 856 542 746 542 l 856 542 q 936 556 893 542 q 1016 594 979 569 q 1076 650 1053 619 q 1100 714 1100 681 l 1100 714 q 1070 781 1100 756 q 994 819 1040 807 q 894 832 947 832 l 894 832 q 668 797 782 832 q 449 698 554 761 q 257 551 343 635 l 257 551 q 58 194 58 357 l 58 194 q 131 40 58 97 q 322 -18 204 -18 l 322 -18 q 515 18 417 -18 q 703 106 614 54 l 703 106 q 974 321 883 207 l 974 321 l 1014 381 q 944 376 996 381 q 803 365 892 372 l 803 365 q 656 352 710 358 q 589 343 603 346 l 589 343 q 556 339 572 339 l 556 339 q 510 361 510 339 l 510 361 q 632 422 510 396 l 632 422 q 765 437 675 432 q 993 442 856 442 l 993 442 q 1304 422 1224 442 l 1304 422 q 1317 415 1317 421 l 1317 415 q 1221 393 1317 401 l 1221 393 l 1153 388 q 1099 383 1114 383 l 1099 383 q 732 -192 957 199 l 732 -192 q 707 -214 719 -214 z m 878 964 l 878 964 q 858 978 868 964 q 849 1004 849 993 l 849 1004 q 890 1054 849 1025 l 890 1054 q 954 1083 932 1083 l 954 1083 q 958 1082 957 1083 l 958 1082 q 939 1057 957 1082 l 939 1057 l 915 1001 q 878 964 899 964 z "},"ẞ":{"ha":807,"x_min":-258,"x_max":836,"o":"m 829 786 l 829 786 q 788 697 825 735 q 698 631 751 660 q 589 575 644 603 l 589 575 q 528 546 561 563 q 471 505 494 529 q 447 443 447 481 l 447 443 q 538 365 447 390 l 538 365 q 643 341 607 351 q 697 324 679 331 q 724 308 714 317 l 724 308 q 759 264 750 288 q 765 217 768 240 l 765 217 q 726 131 758 169 q 644 60 693 92 q 538 7 594 29 q 429 -26 482 -15 q 336 -37 376 -37 l 336 -37 q 269 -28 306 -37 q 203 3 233 -18 q 158 57 172 24 l 158 57 q 147 107 147 88 l 147 107 q 164 144 150 126 q 199 161 178 161 l 199 161 q 218 131 221 161 l 218 131 q 217 119 217 125 q 217 108 217 114 l 217 108 q 226 54 217 82 q 261 8 235 26 q 336 -10 288 -10 l 336 -10 q 451 10 390 -10 q 566 61 513 29 q 653 131 619 93 q 688 207 688 169 l 688 207 q 672 244 688 226 q 624 271 657 263 l 624 271 l 476 308 q 410 347 435 319 q 386 408 386 374 l 386 408 q 416 490 386 456 q 490 550 446 524 q 572 599 533 576 l 572 599 q 652 649 611 621 q 723 710 693 678 q 756 775 753 743 l 756 775 q 735 864 761 836 q 667 892 710 892 l 667 892 q 597 869 635 892 q 523 808 560 846 q 456 728 486 771 l 456 728 q 331 535 396 643 q 192 294 265 428 l 192 294 q 88 106 139 197 q -18 -53 36 15 q -135 -154 -72 -121 l -135 -154 q -183 -172 -160 -167 q -225 -178 -207 -178 l -225 -178 q -258 -167 -258 -178 l -258 -167 q -208 -137 -258 -153 l -208 -137 q -117 -72 -162 -122 q -26 48 -71 -22 q 60 193 19 118 q 136 332 101 268 l 136 332 q 265 579 204 454 q 397 803 326 704 l 397 803 q 482 881 433 851 q 583 922 531 910 q 682 935 636 935 l 682 935 q 792 899 747 935 q 829 786 836 863 z "},"H":{"ha":1321,"x_min":26,"x_max":1754,"o":"m 1050 -92 l 1050 -92 q 990 -61 1011 -92 q 969 11 969 -31 l 969 11 q 1043 231 969 92 l 1043 231 q 940 226 992 226 l 940 226 q 799 231 903 226 l 799 231 l 621 236 q 463 -47 524 81 l 463 -47 q 414 -85 444 -85 l 414 -85 q 393 -65 393 -85 l 393 -65 q 401 -35 393 -51 l 401 -35 q 463 85 425 17 q 553 238 501 153 l 553 238 q 401 228 439 238 l 401 228 q 308 165 339 213 l 308 165 q 290 149 297 150 l 290 149 q 282 156 282 147 l 282 156 q 288 168 282 163 l 288 168 q 394 267 340 239 l 394 267 q 588 292 450 296 l 588 292 q 825 675 674 421 l 825 675 q 882 849 882 782 l 882 849 q 736 957 882 957 l 736 957 q 406 864 558 957 l 406 864 q 254 738 325 814 q 140 577 183 663 q 97 410 97 492 l 97 410 q 218 281 97 281 l 218 281 q 314 306 272 281 q 388 372 356 332 l 388 372 q 450 526 450 450 l 450 526 q 428 597 450 569 l 428 597 q 425 604 425 600 l 425 604 q 436 614 425 614 l 436 614 q 444 610 443 614 l 444 610 q 472 524 472 574 l 472 524 q 403 350 472 439 l 403 350 q 315 273 360 297 q 211 249 269 249 l 211 249 q 75 303 124 249 q 26 444 26 358 l 26 444 q 97 665 26 561 q 274 844 167 769 l 274 844 q 744 986 485 993 l 744 986 q 849 966 800 985 q 927 912 897 947 q 957 824 957 876 l 957 824 q 945 754 957 792 q 906 675 933 717 l 906 675 l 654 289 q 726 284 682 288 q 832 274 771 281 l 832 274 q 918 266 883 268 q 971 264 953 264 l 971 264 q 1026 264 1003 264 q 1063 265 1049 264 l 1063 265 l 1115 353 q 1260 572 1185 468 q 1418 767 1336 675 l 1418 767 q 1736 1019 1604 972 l 1736 1019 q 1746 1021 1740 1021 l 1746 1021 q 1754 1010 1754 1021 l 1754 1010 q 1750 1003 1754 1006 l 1750 1003 q 1645 920 1707 979 q 1501 767 1583 861 l 1501 767 q 1342 567 1415 667 q 1208 365 1268 467 l 1208 365 l 1154 274 q 1246 306 1218 282 l 1246 306 q 1256 301 1251 310 l 1256 301 q 1254 288 1260 292 l 1254 288 q 1136 242 1213 256 l 1136 242 q 1039 -12 1039 61 l 1039 -12 q 1079 -60 1039 -60 l 1079 -60 q 1144 -41 1107 -60 q 1203 1 1181 -22 l 1203 1 q 1207 4 1206 4 l 1207 4 q 1211 -4 1211 4 l 1211 -4 q 1204 -19 1210 -14 l 1204 -19 q 1160 -53 1188 -36 q 1102 -81 1132 -69 q 1050 -92 1072 -92 z "},"Ħ":{"ha":1321,"x_min":26,"x_max":1754,"o":"m 1050 -92 l 1050 -92 q 990 -61 1011 -92 q 969 11 969 -31 l 969 11 q 1043 231 969 92 l 1043 231 q 940 226 992 226 l 940 226 q 799 231 903 226 l 799 231 l 621 236 q 463 -47 524 81 l 463 -47 q 414 -85 444 -85 l 414 -85 q 393 -65 393 -85 l 393 -65 q 401 -35 393 -51 l 401 -35 q 463 85 425 17 q 553 238 501 153 l 553 238 q 401 228 439 238 l 401 228 q 308 165 339 213 l 308 165 q 290 149 297 150 l 290 149 q 282 156 282 147 l 282 156 q 288 168 282 163 l 288 168 q 394 267 340 239 l 394 267 q 588 292 450 296 l 588 292 q 825 675 674 421 l 825 675 q 882 849 882 782 l 882 849 q 736 957 882 957 l 736 957 q 406 864 558 957 l 406 864 q 254 738 325 814 q 140 577 183 663 q 97 410 97 492 l 97 410 q 218 281 97 281 l 218 281 q 314 306 272 281 q 388 372 356 332 l 388 372 q 450 526 450 450 l 450 526 q 428 597 450 569 l 428 597 q 425 604 425 600 l 425 604 q 436 614 425 614 l 436 614 q 444 610 443 614 l 444 610 q 472 524 472 574 l 472 524 q 403 350 472 439 l 403 350 q 315 273 360 297 q 211 249 269 249 l 211 249 q 75 303 124 249 q 26 444 26 358 l 26 444 q 97 665 26 561 q 274 844 167 769 l 274 844 q 744 986 485 993 l 744 986 q 849 966 800 985 q 927 912 897 947 q 957 824 957 876 l 957 824 q 945 754 957 792 q 906 675 933 717 l 906 675 l 654 289 q 726 284 682 288 q 832 274 771 281 l 832 274 q 918 266 883 268 q 971 264 953 264 l 971 264 q 1026 264 1003 264 q 1063 265 1049 264 l 1063 265 l 1115 353 q 1260 572 1185 468 q 1418 767 1336 675 l 1418 767 q 1736 1019 1604 972 l 1736 1019 q 1746 1021 1740 1021 l 1746 1021 q 1754 1010 1754 1021 l 1754 1010 q 1750 1003 1754 1006 l 1750 1003 q 1645 920 1707 979 q 1501 767 1583 861 l 1501 767 q 1342 567 1415 667 q 1208 365 1268 467 l 1208 365 l 1154 274 q 1246 306 1218 282 l 1246 306 q 1256 301 1251 310 l 1256 301 q 1254 288 1260 292 l 1254 288 q 1136 242 1213 256 l 1136 242 q 1039 -12 1039 61 l 1039 -12 q 1079 -60 1039 -60 l 1079 -60 q 1144 -41 1107 -60 q 1203 1 1181 -22 l 1203 1 q 1207 4 1206 4 l 1207 4 q 1211 -4 1211 4 l 1211 -4 q 1204 -19 1210 -14 l 1204 -19 q 1160 -53 1188 -36 q 1102 -81 1132 -69 q 1050 -92 1072 -92 z m 899 586 l 899 586 q 838 584 874 583 q 760 588 803 585 l 760 588 q 658 617 658 596 l 658 617 q 688 641 658 632 q 738 650 717 650 l 738 650 q 748 650 740 650 q 769 651 756 650 l 769 651 l 851 651 q 1029 651 921 653 l 1029 651 q 1308 651 1190 650 q 1500 654 1426 651 l 1500 654 q 1253 610 1524 631 l 1253 610 q 1076 599 1165 604 q 899 586 986 593 z "},"Ĥ":{"ha":1321,"x_min":26,"x_max":1754,"o":"m 1050 -92 l 1050 -92 q 990 -61 1011 -92 q 969 11 969 -31 l 969 11 q 1043 231 969 92 l 1043 231 q 940 226 992 226 l 940 226 q 799 231 903 226 l 799 231 l 621 236 q 463 -47 524 81 l 463 -47 q 414 -85 444 -85 l 414 -85 q 393 -65 393 -85 l 393 -65 q 401 -35 393 -51 l 401 -35 q 463 85 425 17 q 553 238 501 153 l 553 238 q 401 228 439 238 l 401 228 q 308 165 339 213 l 308 165 q 290 149 297 150 l 290 149 q 282 156 282 147 l 282 156 q 288 168 282 163 l 288 168 q 394 267 340 239 l 394 267 q 588 292 450 296 l 588 292 q 825 675 674 421 l 825 675 q 882 849 882 782 l 882 849 q 736 957 882 957 l 736 957 q 406 864 558 957 l 406 864 q 254 738 325 814 q 140 577 183 663 q 97 410 97 492 l 97 410 q 218 281 97 281 l 218 281 q 314 306 272 281 q 388 372 356 332 l 388 372 q 450 526 450 450 l 450 526 q 428 597 450 569 l 428 597 q 425 604 425 600 l 425 604 q 436 614 425 614 l 436 614 q 444 610 443 614 l 444 610 q 472 524 472 574 l 472 524 q 403 350 472 439 l 403 350 q 315 273 360 297 q 211 249 269 249 l 211 249 q 75 303 124 249 q 26 444 26 358 l 26 444 q 97 665 26 561 q 274 844 167 769 l 274 844 q 744 986 485 993 l 744 986 q 849 966 800 985 q 927 912 897 947 q 957 824 957 876 l 957 824 q 945 754 957 792 q 906 675 933 717 l 906 675 l 654 289 q 726 284 682 288 q 832 274 771 281 l 832 274 q 918 266 883 268 q 971 264 953 264 l 971 264 q 1026 264 1003 264 q 1063 265 1049 264 l 1063 265 l 1115 353 q 1260 572 1185 468 q 1418 767 1336 675 l 1418 767 q 1736 1019 1604 972 l 1736 1019 q 1746 1021 1740 1021 l 1746 1021 q 1754 1010 1754 1021 l 1754 1010 q 1750 1003 1754 1006 l 1750 1003 q 1645 920 1707 979 q 1501 767 1583 861 l 1501 767 q 1342 567 1415 667 q 1208 365 1268 467 l 1208 365 l 1154 274 q 1246 306 1218 282 l 1246 306 q 1256 301 1251 310 l 1256 301 q 1254 288 1260 292 l 1254 288 q 1136 242 1213 256 l 1136 242 q 1039 -12 1039 61 l 1039 -12 q 1079 -60 1039 -60 l 1079 -60 q 1144 -41 1107 -60 q 1203 1 1181 -22 l 1203 1 q 1207 4 1206 4 l 1207 4 q 1211 -4 1211 4 l 1211 -4 q 1204 -19 1210 -14 l 1204 -19 q 1160 -53 1188 -36 q 1102 -81 1132 -69 q 1050 -92 1072 -92 z m 1163 1014 l 1163 1014 q 1157 1022 1160 1014 q 1160 1033 1154 1031 l 1160 1033 q 1183 1051 1167 1039 q 1222 1078 1200 1063 l 1222 1078 q 1274 1112 1254 1097 q 1308 1126 1294 1126 l 1308 1126 q 1329 1118 1321 1126 q 1347 1099 1338 1110 l 1347 1099 q 1367 1078 1358 1088 q 1386 1060 1376 1069 l 1386 1060 q 1400 1044 1393 1053 q 1407 1028 1407 1036 l 1407 1028 q 1401 1016 1407 1022 q 1381 1008 1394 1010 l 1381 1008 q 1362 1015 1371 1008 q 1342 1032 1353 1022 l 1342 1032 q 1318 1057 1331 1043 q 1296 1082 1306 1071 l 1296 1082 q 1232 1047 1275 1071 l 1232 1047 q 1191 1024 1208 1033 q 1163 1014 1174 1014 z "},"I":{"ha":800,"x_min":29,"x_max":1217,"o":"m 246 -96 l 246 -96 q 29 160 29 -96 l 29 160 q 142 500 29 371 l 142 500 q 358 611 236 611 l 358 611 q 466 575 426 611 q 506 471 506 539 l 506 471 q 422 251 506 363 l 422 251 q 247 136 336 136 l 247 136 q 172 167 196 136 q 147 240 147 197 l 147 240 q 158 301 147 268 l 158 301 q 190 342 174 342 l 190 342 q 203 329 203 342 l 203 329 q 190 293 203 322 l 190 293 q 181 250 181 272 l 181 250 q 199 203 181 221 q 249 186 218 186 l 249 186 q 403 290 331 186 l 403 290 q 471 483 471 388 l 471 483 q 447 560 471 533 q 381 588 422 588 l 381 588 q 183 451 282 588 l 183 451 q 88 131 82 306 l 88 131 q 130 -1 90 53 q 236 -56 169 -56 l 236 -56 q 715 443 424 -56 l 715 443 q 563 624 563 489 l 563 624 q 611 787 563 714 q 744 910 660 860 l 744 910 q 969 976 860 976 l 969 976 q 1085 962 1029 976 q 1179 916 1142 947 q 1217 835 1217 885 l 1217 835 q 1209 803 1217 818 q 1193 788 1201 788 l 1193 788 q 1181 797 1194 788 q 1150 806 1167 806 l 1150 806 q 826 454 1032 806 l 826 454 q 838 453 832 453 q 849 453 843 453 l 849 453 q 916 465 883 453 q 970 500 949 478 q 992 550 992 522 l 992 550 q 987 573 992 561 q 982 588 982 585 l 982 588 q 993 599 982 599 l 993 599 q 1004 594 999 599 l 1004 594 q 1036 536 1036 571 l 1036 536 q 1010 475 1036 501 q 942 434 983 449 q 860 419 901 419 l 860 419 q 813 424 836 419 l 813 424 q 579 99 717 247 l 579 99 q 246 -96 396 -96 z m 739 478 l 739 478 q 925 715 815 603 l 925 715 q 1138 851 1057 851 l 1138 851 q 1174 842 1158 851 l 1174 842 q 1149 890 1172 868 q 1092 924 1125 911 q 1031 938 1060 936 l 1031 938 q 836 896 939 942 l 836 896 q 692 778 749 857 q 636 597 636 700 l 636 597 q 739 478 636 497 z "},"Ĳ":{"ha":1908,"x_min":25,"x_max":2242,"o":"m 996 -181 l 996 -181 q 800 -111 867 -181 l 800 -111 q 742 40 742 -50 l 742 40 q 772 167 742 110 l 772 167 q 985 388 846 308 l 985 388 q 1186 447 1094 451 l 1186 447 q 1326 399 1275 443 q 1376 286 1376 356 l 1376 286 q 1372 250 1376 269 l 1372 250 q 1321 150 1361 194 l 1321 150 q 1265 111 1286 111 l 1265 111 q 1260 117 1260 111 l 1260 117 q 1264 129 1260 121 l 1264 129 q 1314 271 1314 203 l 1314 271 q 1278 369 1314 329 q 1185 413 1243 408 l 1185 413 q 1017 357 1108 418 l 1017 357 q 846 153 913 289 l 846 153 q 811 21 811 85 l 811 21 q 865 -107 811 -61 l 865 -107 q 1032 -151 925 -157 l 1032 -151 q 1749 468 1376 -132 l 1749 468 q 1985 921 1979 838 l 1985 921 l 1903 925 q 1739 893 1836 926 l 1739 893 q 1597 800 1628 853 l 1597 800 q 1585 760 1585 779 l 1585 760 q 1611 699 1585 729 l 1611 699 q 1638 663 1638 668 l 1638 663 q 1621 653 1638 656 l 1621 653 q 1554 678 1586 647 l 1554 678 q 1524 753 1524 708 l 1524 753 q 1549 824 1524 790 l 1549 824 q 1725 926 1601 896 l 1725 926 q 1817 944 1769 938 q 1914 949 1865 950 l 1914 949 q 1982 944 1926 949 l 1982 944 q 1997 978 1979 963 q 2036 994 2014 994 l 2036 994 q 2076 935 2078 994 l 2076 935 q 2235 854 2226 908 l 2235 854 q 2221 806 2242 806 l 2221 806 q 2210 839 2204 806 l 2210 839 q 2072 911 2175 890 l 2072 911 q 1811 422 2047 799 l 1811 422 q 1446 8 1654 175 l 1446 8 q 996 -181 1207 -181 z m 246 -96 l 246 -96 q 29 169 25 -96 l 29 169 q 142 500 31 372 l 142 500 q 358 611 236 611 l 358 611 q 392 608 376 611 q 424 600 408 606 l 424 600 q 506 471 506 568 l 506 471 q 422 251 506 363 l 422 251 q 247 136 336 136 l 247 136 q 174 164 197 136 l 174 164 q 149 227 151 188 q 158 301 146 267 l 158 301 q 190 342 174 342 l 190 342 q 203 329 203 342 l 203 329 q 190 293 203 322 l 190 293 q 178 244 178 267 l 178 244 q 200 206 178 225 q 249 186 222 186 l 249 186 q 403 290 331 186 l 403 290 q 471 483 471 388 l 471 483 q 418 581 471 557 l 418 581 q 381 588 400 588 l 381 588 q 183 451 282 588 l 183 451 q 88 131 82 306 l 88 131 q 125 4 89 57 l 125 4 q 229 -56 165 -54 l 229 -56 q 715 443 417 -65 l 715 443 q 563 624 563 489 l 563 624 q 611 787 563 714 q 744 910 660 860 l 744 910 q 976 976 864 979 l 976 976 q 1053 969 1017 975 q 1121 949 1089 963 l 1121 949 q 1217 835 1217 911 l 1217 835 q 1209 803 1217 818 q 1193 788 1201 788 l 1193 788 q 1181 797 1194 788 q 1150 806 1167 806 l 1150 806 q 826 454 1032 806 l 826 454 q 939 476 888 447 l 939 476 q 992 550 992 508 l 992 550 q 987 573 992 561 q 982 588 982 585 l 982 588 q 993 599 982 599 l 993 599 q 1004 594 999 599 l 1004 594 q 1036 536 1036 571 l 1036 536 q 988 457 1036 493 l 988 457 q 860 419 936 419 l 860 419 q 813 424 836 419 l 813 424 q 579 99 717 247 l 579 99 q 246 -96 396 -96 z m 739 478 l 739 478 q 925 715 815 603 l 925 715 q 1138 851 1057 851 l 1138 851 q 1174 842 1158 851 l 1174 842 q 1119 910 1172 881 l 1119 910 q 1075 930 1097 924 q 1031 938 1053 936 l 1031 938 q 836 896 939 942 l 836 896 q 692 778 749 857 q 636 597 636 700 l 636 597 q 739 478 636 497 z "},"Í":{"ha":800,"x_min":29,"x_max":1267,"o":"m 246 -96 l 246 -96 q 29 160 29 -96 l 29 160 q 142 500 29 371 l 142 500 q 358 611 236 611 l 358 611 q 466 575 426 611 q 506 471 506 539 l 506 471 q 422 251 506 363 l 422 251 q 247 136 336 136 l 247 136 q 172 167 196 136 q 147 240 147 197 l 147 240 q 158 301 147 268 l 158 301 q 190 342 174 342 l 190 342 q 203 329 203 342 l 203 329 q 190 293 203 322 l 190 293 q 181 250 181 272 l 181 250 q 199 203 181 221 q 249 186 218 186 l 249 186 q 403 290 331 186 l 403 290 q 471 483 471 388 l 471 483 q 447 560 471 533 q 381 588 422 588 l 381 588 q 183 451 282 588 l 183 451 q 88 131 82 306 l 88 131 q 130 -1 90 53 q 236 -56 169 -56 l 236 -56 q 715 443 424 -56 l 715 443 q 563 624 563 489 l 563 624 q 611 787 563 714 q 744 910 660 860 l 744 910 q 969 976 860 976 l 969 976 q 1085 962 1029 976 q 1179 916 1142 947 q 1217 835 1217 885 l 1217 835 q 1209 803 1217 818 q 1193 788 1201 788 l 1193 788 q 1181 797 1194 788 q 1150 806 1167 806 l 1150 806 q 826 454 1032 806 l 826 454 q 838 453 832 453 q 849 453 843 453 l 849 453 q 916 465 883 453 q 970 500 949 478 q 992 550 992 522 l 992 550 q 987 573 992 561 q 982 588 982 585 l 982 588 q 993 599 982 599 l 993 599 q 1004 594 999 599 l 1004 594 q 1036 536 1036 571 l 1036 536 q 1010 475 1036 501 q 942 434 983 449 q 860 419 901 419 l 860 419 q 813 424 836 419 l 813 424 q 579 99 717 247 l 579 99 q 246 -96 396 -96 z m 739 478 l 739 478 q 925 715 815 603 l 925 715 q 1138 851 1057 851 l 1138 851 q 1174 842 1158 851 l 1174 842 q 1149 890 1172 868 q 1092 924 1125 911 q 1031 938 1060 936 l 1031 938 q 836 896 939 942 l 836 896 q 692 778 749 857 q 636 597 636 700 l 636 597 q 739 478 636 497 z m 1067 1038 l 1067 1038 q 1056 1046 1056 1038 l 1056 1046 q 1069 1058 1056 1053 l 1069 1058 q 1146 1092 1110 1075 q 1211 1122 1182 1108 l 1211 1122 q 1232 1131 1224 1129 q 1244 1132 1240 1132 l 1244 1132 q 1260 1120 1253 1132 q 1267 1097 1267 1108 l 1267 1097 q 1258 1082 1267 1088 q 1242 1074 1249 1076 l 1242 1074 q 1211 1063 1232 1069 q 1156 1049 1190 1056 l 1156 1049 q 1067 1038 1104 1038 z "},"Ĭ":{"ha":800,"x_min":29,"x_max":1254,"o":"m 246 -96 l 246 -96 q 29 160 29 -96 l 29 160 q 142 500 29 371 l 142 500 q 358 611 236 611 l 358 611 q 466 575 426 611 q 506 471 506 539 l 506 471 q 422 251 506 363 l 422 251 q 247 136 336 136 l 247 136 q 172 167 196 136 q 147 240 147 197 l 147 240 q 158 301 147 268 l 158 301 q 190 342 174 342 l 190 342 q 203 329 203 342 l 203 329 q 190 293 203 322 l 190 293 q 181 250 181 272 l 181 250 q 199 203 181 221 q 249 186 218 186 l 249 186 q 403 290 331 186 l 403 290 q 471 483 471 388 l 471 483 q 447 560 471 533 q 381 588 422 588 l 381 588 q 183 451 282 588 l 183 451 q 88 131 82 306 l 88 131 q 130 -1 90 53 q 236 -56 169 -56 l 236 -56 q 715 443 424 -56 l 715 443 q 563 624 563 489 l 563 624 q 611 787 563 714 q 744 910 660 860 l 744 910 q 969 976 860 976 l 969 976 q 1085 962 1029 976 q 1179 916 1142 947 q 1217 835 1217 885 l 1217 835 q 1209 803 1217 818 q 1193 788 1201 788 l 1193 788 q 1181 797 1194 788 q 1150 806 1167 806 l 1150 806 q 826 454 1032 806 l 826 454 q 838 453 832 453 q 849 453 843 453 l 849 453 q 916 465 883 453 q 970 500 949 478 q 992 550 992 522 l 992 550 q 987 573 992 561 q 982 588 982 585 l 982 588 q 993 599 982 599 l 993 599 q 1004 594 999 599 l 1004 594 q 1036 536 1036 571 l 1036 536 q 1010 475 1036 501 q 942 434 983 449 q 860 419 901 419 l 860 419 q 813 424 836 419 l 813 424 q 579 99 717 247 l 579 99 q 246 -96 396 -96 z m 739 478 l 739 478 q 925 715 815 603 l 925 715 q 1138 851 1057 851 l 1138 851 q 1174 842 1158 851 l 1174 842 q 1149 890 1172 868 q 1092 924 1125 911 q 1031 938 1060 936 l 1031 938 q 836 896 939 942 l 836 896 q 692 778 749 857 q 636 597 636 700 l 636 597 q 739 478 636 497 z m 1103 1042 l 1103 1042 q 1057 1056 1076 1042 q 1038 1107 1038 1071 l 1038 1107 q 1038 1119 1038 1108 q 1044 1141 1039 1131 q 1058 1151 1049 1151 l 1058 1151 q 1068 1144 1065 1151 q 1074 1125 1071 1136 l 1074 1125 q 1086 1102 1078 1108 q 1119 1096 1094 1096 l 1119 1096 q 1164 1103 1143 1096 q 1215 1135 1185 1110 l 1215 1135 q 1238 1153 1222 1142 q 1254 1153 1254 1164 l 1254 1153 q 1239 1117 1254 1138 l 1239 1117 q 1178 1064 1217 1086 q 1103 1042 1140 1042 z "},"Î":{"ha":800,"x_min":25,"x_max":1257,"o":"m 1244 985 l 1244 985 q 1163 1050 1235 985 l 1163 1050 q 1107 1092 1138 1074 l 1107 1092 q 1063 1064 1092 1082 q 989 1017 1033 1046 l 989 1017 q 944 993 956 994 l 944 993 q 917 994 926 988 q 928 1019 907 1001 l 928 1019 q 992 1060 968 1044 q 1035 1090 1017 1076 q 1076 1121 1054 1104 l 1076 1121 q 1106 1142 1092 1132 q 1139 1136 1121 1151 l 1139 1136 q 1165 1113 1150 1126 q 1197 1079 1179 1100 l 1197 1079 q 1243 1027 1229 1044 q 1257 999 1257 1010 l 1257 999 q 1244 985 1257 985 z m 246 -96 l 246 -96 q 29 169 25 -96 l 29 169 q 142 500 31 372 l 142 500 q 358 611 236 611 l 358 611 q 392 608 376 611 q 424 600 408 606 l 424 600 q 506 471 506 568 l 506 471 q 422 251 506 363 l 422 251 q 247 136 336 136 l 247 136 q 174 164 197 136 l 174 164 q 149 227 151 188 q 158 301 146 267 l 158 301 q 190 342 174 342 l 190 342 q 203 329 203 342 l 203 329 q 190 293 203 322 l 190 293 q 178 244 178 267 l 178 244 q 200 206 178 225 q 249 186 222 186 l 249 186 q 403 290 331 186 l 403 290 q 471 483 471 388 l 471 483 q 418 581 471 557 l 418 581 q 381 588 400 588 l 381 588 q 183 451 282 588 l 183 451 q 88 131 82 306 l 88 131 q 125 4 89 57 l 125 4 q 229 -56 165 -54 l 229 -56 q 715 443 417 -65 l 715 443 q 563 624 563 489 l 563 624 q 611 787 563 714 q 744 910 660 860 l 744 910 q 976 976 864 979 l 976 976 q 1053 969 1017 975 q 1121 949 1089 963 l 1121 949 q 1217 835 1217 911 l 1217 835 q 1209 803 1217 818 q 1193 788 1201 788 l 1193 788 q 1181 797 1194 788 q 1150 806 1167 806 l 1150 806 q 826 454 1032 806 l 826 454 q 939 476 888 447 l 939 476 q 992 550 992 508 l 992 550 q 987 573 992 561 q 982 588 982 585 l 982 588 q 993 599 982 599 l 993 599 q 1004 594 999 599 l 1004 594 q 1036 536 1036 571 l 1036 536 q 988 457 1036 493 l 988 457 q 860 419 936 419 l 860 419 q 813 424 836 419 l 813 424 q 579 99 717 247 l 579 99 q 246 -96 396 -96 z m 739 478 l 739 478 q 925 715 815 603 l 925 715 q 1138 851 1057 851 l 1138 851 q 1174 842 1158 851 l 1174 842 q 1119 910 1172 881 l 1119 910 q 1075 930 1097 924 q 1031 938 1053 936 l 1031 938 q 836 896 939 942 l 836 896 q 692 778 749 857 q 636 597 636 700 l 636 597 q 739 478 636 497 z "},"Ȉ":{"ha":800,"x_min":29,"x_max":1253,"o":"m 246 -96 l 246 -96 q 29 160 29 -96 l 29 160 q 142 500 29 371 l 142 500 q 358 611 236 611 l 358 611 q 466 575 426 611 q 506 471 506 539 l 506 471 q 422 251 506 363 l 422 251 q 247 136 336 136 l 247 136 q 172 167 196 136 q 147 240 147 197 l 147 240 q 158 301 147 268 l 158 301 q 190 342 174 342 l 190 342 q 203 329 203 342 l 203 329 q 190 293 203 322 l 190 293 q 181 250 181 272 l 181 250 q 199 203 181 221 q 249 186 218 186 l 249 186 q 403 290 331 186 l 403 290 q 471 483 471 388 l 471 483 q 447 560 471 533 q 381 588 422 588 l 381 588 q 183 451 282 588 l 183 451 q 88 131 82 306 l 88 131 q 130 -1 90 53 q 236 -56 169 -56 l 236 -56 q 715 443 424 -56 l 715 443 q 563 624 563 489 l 563 624 q 611 787 563 714 q 744 910 660 860 l 744 910 q 969 976 860 976 l 969 976 q 1085 962 1029 976 q 1179 916 1142 947 q 1217 835 1217 885 l 1217 835 q 1209 803 1217 818 q 1193 788 1201 788 l 1193 788 q 1181 797 1194 788 q 1150 806 1167 806 l 1150 806 q 826 454 1032 806 l 826 454 q 838 453 832 453 q 849 453 843 453 l 849 453 q 916 465 883 453 q 970 500 949 478 q 992 550 992 522 l 992 550 q 987 573 992 561 q 982 588 982 585 l 982 588 q 993 599 982 599 l 993 599 q 1004 594 999 599 l 1004 594 q 1036 536 1036 571 l 1036 536 q 1010 475 1036 501 q 942 434 983 449 q 860 419 901 419 l 860 419 q 813 424 836 419 l 813 424 q 579 99 717 247 l 579 99 q 246 -96 396 -96 z m 739 478 l 739 478 q 925 715 815 603 l 925 715 q 1138 851 1057 851 l 1138 851 q 1174 842 1158 851 l 1174 842 q 1149 890 1172 868 q 1092 924 1125 911 q 1031 938 1060 936 l 1031 938 q 836 896 939 942 l 836 896 q 692 778 749 857 q 636 597 636 700 l 636 597 q 739 478 636 497 z m 1242 1031 l 1242 1031 q 1215 1044 1233 1033 q 1161 1079 1196 1056 l 1161 1079 q 1117 1115 1133 1100 q 1094 1140 1101 1131 l 1094 1140 q 1085 1153 1090 1146 q 1082 1168 1081 1161 l 1082 1168 q 1096 1187 1083 1178 q 1114 1194 1108 1196 l 1114 1194 q 1135 1178 1122 1193 l 1135 1178 l 1249 1047 q 1253 1038 1253 1044 l 1253 1038 q 1242 1031 1250 1026 z m 1103 1031 l 1103 1031 q 1074 1040 1094 1033 q 1015 1065 1053 1047 l 1015 1065 q 965 1093 985 1081 q 939 1113 946 1106 l 939 1113 q 927 1124 933 1118 q 921 1139 921 1131 l 921 1139 q 932 1159 921 1149 q 949 1169 943 1169 l 949 1169 q 972 1157 958 1169 l 972 1157 l 1107 1049 q 1113 1039 1113 1044 l 1113 1039 q 1103 1031 1113 1028 z "},"Ï":{"ha":800,"x_min":25,"x_max":1219,"o":"m 972 1026 l 972 1026 q 953 1041 963 1026 q 943 1067 943 1056 l 943 1067 q 983 1117 943 1088 l 983 1117 q 1047 1146 1025 1146 l 1047 1146 q 1049 1145 1049 1146 q 1051 1144 1050 1144 l 1051 1144 q 1032 1119 1050 1144 l 1032 1119 l 1010 1064 q 972 1026 993 1026 z m 1140 1026 l 1140 1026 q 1121 1041 1131 1026 q 1111 1067 1111 1056 l 1111 1067 q 1151 1117 1111 1088 l 1151 1117 q 1215 1146 1193 1146 l 1215 1146 q 1217 1145 1217 1146 q 1219 1144 1218 1144 l 1219 1144 q 1200 1119 1218 1144 l 1200 1119 l 1178 1064 q 1140 1026 1161 1026 z m 246 -96 l 246 -96 q 29 169 25 -96 l 29 169 q 142 500 31 372 l 142 500 q 358 611 236 611 l 358 611 q 392 608 376 611 q 424 600 408 606 l 424 600 q 506 471 506 568 l 506 471 q 422 251 506 363 l 422 251 q 247 136 336 136 l 247 136 q 174 164 197 136 l 174 164 q 149 227 151 188 q 158 301 146 267 l 158 301 q 190 342 174 342 l 190 342 q 203 329 203 342 l 203 329 q 190 293 203 322 l 190 293 q 178 244 178 267 l 178 244 q 200 206 178 225 q 249 186 222 186 l 249 186 q 403 290 331 186 l 403 290 q 471 483 471 388 l 471 483 q 418 581 471 557 l 418 581 q 381 588 400 588 l 381 588 q 183 451 282 588 l 183 451 q 88 131 82 306 l 88 131 q 125 4 89 57 l 125 4 q 229 -56 165 -54 l 229 -56 q 715 443 417 -65 l 715 443 q 563 624 563 489 l 563 624 q 611 787 563 714 q 744 910 660 860 l 744 910 q 976 976 864 979 l 976 976 q 1053 969 1017 975 q 1121 949 1089 963 l 1121 949 q 1217 835 1217 911 l 1217 835 q 1209 803 1217 818 q 1193 788 1201 788 l 1193 788 q 1181 797 1194 788 q 1150 806 1167 806 l 1150 806 q 826 454 1032 806 l 826 454 q 939 476 888 447 l 939 476 q 992 550 992 508 l 992 550 q 987 573 992 561 q 982 588 982 585 l 982 588 q 993 599 982 599 l 993 599 q 1004 594 999 599 l 1004 594 q 1036 536 1036 571 l 1036 536 q 988 457 1036 493 l 988 457 q 860 419 936 419 l 860 419 q 813 424 836 419 l 813 424 q 579 99 717 247 l 579 99 q 246 -96 396 -96 z m 739 478 l 739 478 q 925 715 815 603 l 925 715 q 1138 851 1057 851 l 1138 851 q 1174 842 1158 851 l 1174 842 q 1119 910 1172 881 l 1119 910 q 1075 930 1097 924 q 1031 938 1053 936 l 1031 938 q 836 896 939 942 l 836 896 q 692 778 749 857 q 636 597 636 700 l 636 597 q 739 478 636 497 z "},"İ":{"ha":800,"x_min":29,"x_max":1217,"o":"m 246 -96 l 246 -96 q 29 160 29 -96 l 29 160 q 142 500 29 371 l 142 500 q 358 611 236 611 l 358 611 q 466 575 426 611 q 506 471 506 539 l 506 471 q 422 251 506 363 l 422 251 q 247 136 336 136 l 247 136 q 172 167 196 136 q 147 240 147 197 l 147 240 q 158 301 147 268 l 158 301 q 190 342 174 342 l 190 342 q 203 329 203 342 l 203 329 q 190 293 203 322 l 190 293 q 181 250 181 272 l 181 250 q 199 203 181 221 q 249 186 218 186 l 249 186 q 403 290 331 186 l 403 290 q 471 483 471 388 l 471 483 q 447 560 471 533 q 381 588 422 588 l 381 588 q 183 451 282 588 l 183 451 q 88 131 82 306 l 88 131 q 130 -1 90 53 q 236 -56 169 -56 l 236 -56 q 715 443 424 -56 l 715 443 q 563 624 563 489 l 563 624 q 611 787 563 714 q 744 910 660 860 l 744 910 q 969 976 860 976 l 969 976 q 1085 962 1029 976 q 1179 916 1142 947 q 1217 835 1217 885 l 1217 835 q 1209 803 1217 818 q 1193 788 1201 788 l 1193 788 q 1181 797 1194 788 q 1150 806 1167 806 l 1150 806 q 826 454 1032 806 l 826 454 q 838 453 832 453 q 849 453 843 453 l 849 453 q 916 465 883 453 q 970 500 949 478 q 992 550 992 522 l 992 550 q 987 573 992 561 q 982 588 982 585 l 982 588 q 993 599 982 599 l 993 599 q 1004 594 999 599 l 1004 594 q 1036 536 1036 571 l 1036 536 q 1010 475 1036 501 q 942 434 983 449 q 860 419 901 419 l 860 419 q 813 424 836 419 l 813 424 q 579 99 717 247 l 579 99 q 246 -96 396 -96 z m 739 478 l 739 478 q 925 715 815 603 l 925 715 q 1138 851 1057 851 l 1138 851 q 1174 842 1158 851 l 1174 842 q 1149 890 1172 868 q 1092 924 1125 911 q 1031 938 1060 936 l 1031 938 q 836 896 939 942 l 836 896 q 692 778 749 857 q 636 597 636 700 l 636 597 q 739 478 636 497 z m 1097 1035 l 1097 1035 q 1078 1049 1088 1035 q 1068 1075 1068 1064 l 1068 1075 q 1110 1125 1068 1096 l 1110 1125 q 1174 1154 1151 1154 l 1174 1154 q 1178 1153 1176 1154 l 1178 1153 q 1158 1128 1176 1153 l 1158 1128 l 1135 1072 q 1097 1035 1118 1035 z "},"Ị":{"ha":800,"x_min":29,"x_max":1217,"o":"m 246 -96 l 246 -96 q 29 160 29 -96 l 29 160 q 142 500 29 371 l 142 500 q 358 611 236 611 l 358 611 q 466 575 426 611 q 506 471 506 539 l 506 471 q 422 251 506 363 l 422 251 q 247 136 336 136 l 247 136 q 172 167 196 136 q 147 240 147 197 l 147 240 q 158 301 147 268 l 158 301 q 190 342 174 342 l 190 342 q 203 329 203 342 l 203 329 q 190 293 203 322 l 190 293 q 181 250 181 272 l 181 250 q 199 203 181 221 q 249 186 218 186 l 249 186 q 403 290 331 186 l 403 290 q 471 483 471 388 l 471 483 q 447 560 471 533 q 381 588 422 588 l 381 588 q 183 451 282 588 l 183 451 q 88 131 82 306 l 88 131 q 130 -1 90 53 q 236 -56 169 -56 l 236 -56 q 715 443 424 -56 l 715 443 q 563 624 563 489 l 563 624 q 611 787 563 714 q 744 910 660 860 l 744 910 q 969 976 860 976 l 969 976 q 1085 962 1029 976 q 1179 916 1142 947 q 1217 835 1217 885 l 1217 835 q 1209 803 1217 818 q 1193 788 1201 788 l 1193 788 q 1181 797 1194 788 q 1150 806 1167 806 l 1150 806 q 826 454 1032 806 l 826 454 q 838 453 832 453 q 849 453 843 453 l 849 453 q 916 465 883 453 q 970 500 949 478 q 992 550 992 522 l 992 550 q 987 573 992 561 q 982 588 982 585 l 982 588 q 993 599 982 599 l 993 599 q 1004 594 999 599 l 1004 594 q 1036 536 1036 571 l 1036 536 q 1010 475 1036 501 q 942 434 983 449 q 860 419 901 419 l 860 419 q 813 424 836 419 l 813 424 q 579 99 717 247 l 579 99 q 246 -96 396 -96 z m 739 478 l 739 478 q 925 715 815 603 l 925 715 q 1138 851 1057 851 l 1138 851 q 1174 842 1158 851 l 1174 842 q 1149 890 1172 868 q 1092 924 1125 911 q 1031 938 1060 936 l 1031 938 q 836 896 939 942 l 836 896 q 692 778 749 857 q 636 597 636 700 l 636 597 q 739 478 636 497 z m 117 -315 l 117 -315 q 97 -301 107 -315 q 88 -275 88 -286 l 88 -275 q 128 -225 88 -254 l 128 -225 q 169 -210 156 -208 q 176 -222 183 -211 l 176 -222 l 154 -278 q 117 -315 138 -315 z "},"Ì":{"ha":800,"x_min":29,"x_max":1217,"o":"m 246 -96 l 246 -96 q 29 160 29 -96 l 29 160 q 142 500 29 371 l 142 500 q 358 611 236 611 l 358 611 q 466 575 426 611 q 506 471 506 539 l 506 471 q 422 251 506 363 l 422 251 q 247 136 336 136 l 247 136 q 172 167 196 136 q 147 240 147 197 l 147 240 q 158 301 147 268 l 158 301 q 190 342 174 342 l 190 342 q 203 329 203 342 l 203 329 q 190 293 203 322 l 190 293 q 181 250 181 272 l 181 250 q 199 203 181 221 q 249 186 218 186 l 249 186 q 403 290 331 186 l 403 290 q 471 483 471 388 l 471 483 q 447 560 471 533 q 381 588 422 588 l 381 588 q 183 451 282 588 l 183 451 q 88 131 82 306 l 88 131 q 130 -1 90 53 q 236 -56 169 -56 l 236 -56 q 715 443 424 -56 l 715 443 q 563 624 563 489 l 563 624 q 611 787 563 714 q 744 910 660 860 l 744 910 q 969 976 860 976 l 969 976 q 1085 962 1029 976 q 1179 916 1142 947 q 1217 835 1217 885 l 1217 835 q 1209 803 1217 818 q 1193 788 1201 788 l 1193 788 q 1181 797 1194 788 q 1150 806 1167 806 l 1150 806 q 826 454 1032 806 l 826 454 q 838 453 832 453 q 849 453 843 453 l 849 453 q 916 465 883 453 q 970 500 949 478 q 992 550 992 522 l 992 550 q 987 573 992 561 q 982 588 982 585 l 982 588 q 993 599 982 599 l 993 599 q 1004 594 999 599 l 1004 594 q 1036 536 1036 571 l 1036 536 q 1010 475 1036 501 q 942 434 983 449 q 860 419 901 419 l 860 419 q 813 424 836 419 l 813 424 q 579 99 717 247 l 579 99 q 246 -96 396 -96 z m 739 478 l 739 478 q 925 715 815 603 l 925 715 q 1138 851 1057 851 l 1138 851 q 1174 842 1158 851 l 1174 842 q 1149 890 1172 868 q 1092 924 1125 911 q 1031 938 1060 936 l 1031 938 q 836 896 939 942 l 836 896 q 692 778 749 857 q 636 597 636 700 l 636 597 q 739 478 636 497 z m 1196 1038 l 1196 1038 q 1107 1049 1158 1038 l 1107 1049 q 1051 1063 1072 1056 q 1021 1074 1031 1069 l 1021 1074 q 1005 1082 1014 1076 q 996 1097 996 1088 l 996 1097 q 1003 1120 996 1108 q 1018 1132 1010 1132 l 1018 1132 q 1031 1131 1022 1132 q 1051 1122 1039 1129 l 1051 1122 q 1117 1092 1081 1108 q 1193 1058 1153 1075 l 1193 1058 q 1207 1046 1207 1053 l 1207 1046 q 1196 1038 1207 1038 z "},"Ỉ":{"ha":800,"x_min":29,"x_max":1217,"o":"m 246 -96 l 246 -96 q 29 160 29 -96 l 29 160 q 142 500 29 371 l 142 500 q 358 611 236 611 l 358 611 q 466 575 426 611 q 506 471 506 539 l 506 471 q 422 251 506 363 l 422 251 q 247 136 336 136 l 247 136 q 172 167 196 136 q 147 240 147 197 l 147 240 q 158 301 147 268 l 158 301 q 190 342 174 342 l 190 342 q 203 329 203 342 l 203 329 q 190 293 203 322 l 190 293 q 181 250 181 272 l 181 250 q 199 203 181 221 q 249 186 218 186 l 249 186 q 403 290 331 186 l 403 290 q 471 483 471 388 l 471 483 q 447 560 471 533 q 381 588 422 588 l 381 588 q 183 451 282 588 l 183 451 q 88 131 82 306 l 88 131 q 130 -1 90 53 q 236 -56 169 -56 l 236 -56 q 715 443 424 -56 l 715 443 q 563 624 563 489 l 563 624 q 611 787 563 714 q 744 910 660 860 l 744 910 q 969 976 860 976 l 969 976 q 1085 962 1029 976 q 1179 916 1142 947 q 1217 835 1217 885 l 1217 835 q 1209 803 1217 818 q 1193 788 1201 788 l 1193 788 q 1181 797 1194 788 q 1150 806 1167 806 l 1150 806 q 826 454 1032 806 l 826 454 q 838 453 832 453 q 849 453 843 453 l 849 453 q 916 465 883 453 q 970 500 949 478 q 992 550 992 522 l 992 550 q 987 573 992 561 q 982 588 982 585 l 982 588 q 993 599 982 599 l 993 599 q 1004 594 999 599 l 1004 594 q 1036 536 1036 571 l 1036 536 q 1010 475 1036 501 q 942 434 983 449 q 860 419 901 419 l 860 419 q 813 424 836 419 l 813 424 q 579 99 717 247 l 579 99 q 246 -96 396 -96 z m 739 478 l 739 478 q 925 715 815 603 l 925 715 q 1138 851 1057 851 l 1138 851 q 1174 842 1158 851 l 1174 842 q 1149 890 1172 868 q 1092 924 1125 911 q 1031 938 1060 936 l 1031 938 q 836 896 939 942 l 836 896 q 692 778 749 857 q 636 597 636 700 l 636 597 q 739 478 636 497 z m 1094 1035 l 1090 1035 q 1083 1039 1085 1035 q 1085 1044 1082 1043 l 1085 1044 q 1135 1080 1113 1064 q 1157 1118 1157 1096 l 1157 1118 q 1133 1139 1157 1139 l 1133 1139 q 1099 1131 1119 1139 q 1064 1107 1079 1122 l 1064 1107 q 1063 1106 1064 1107 q 1061 1106 1063 1106 l 1061 1106 q 1058 1108 1060 1106 q 1058 1114 1057 1111 l 1058 1114 q 1098 1163 1069 1146 q 1163 1176 1126 1179 l 1163 1176 q 1190 1162 1181 1175 q 1200 1133 1200 1149 l 1200 1133 q 1190 1097 1200 1113 q 1161 1071 1179 1082 l 1161 1071 q 1118 1044 1135 1054 q 1094 1035 1101 1035 l 1094 1035 z "},"Ȋ":{"ha":800,"x_min":29,"x_max":1286,"o":"m 246 -96 l 246 -96 q 29 160 29 -96 l 29 160 q 142 500 29 371 l 142 500 q 358 611 236 611 l 358 611 q 466 575 426 611 q 506 471 506 539 l 506 471 q 422 251 506 363 l 422 251 q 247 136 336 136 l 247 136 q 172 167 196 136 q 147 240 147 197 l 147 240 q 158 301 147 268 l 158 301 q 190 342 174 342 l 190 342 q 203 329 203 342 l 203 329 q 190 293 203 322 l 190 293 q 181 250 181 272 l 181 250 q 199 203 181 221 q 249 186 218 186 l 249 186 q 403 290 331 186 l 403 290 q 471 483 471 388 l 471 483 q 447 560 471 533 q 381 588 422 588 l 381 588 q 183 451 282 588 l 183 451 q 88 131 82 306 l 88 131 q 130 -1 90 53 q 236 -56 169 -56 l 236 -56 q 715 443 424 -56 l 715 443 q 563 624 563 489 l 563 624 q 611 787 563 714 q 744 910 660 860 l 744 910 q 969 976 860 976 l 969 976 q 1085 962 1029 976 q 1179 916 1142 947 q 1217 835 1217 885 l 1217 835 q 1209 803 1217 818 q 1193 788 1201 788 l 1193 788 q 1181 797 1194 788 q 1150 806 1167 806 l 1150 806 q 826 454 1032 806 l 826 454 q 838 453 832 453 q 849 453 843 453 l 849 453 q 916 465 883 453 q 970 500 949 478 q 992 550 992 522 l 992 550 q 987 573 992 561 q 982 588 982 585 l 982 588 q 993 599 982 599 l 993 599 q 1004 594 999 599 l 1004 594 q 1036 536 1036 571 l 1036 536 q 1010 475 1036 501 q 942 434 983 449 q 860 419 901 419 l 860 419 q 813 424 836 419 l 813 424 q 579 99 717 247 l 579 99 q 246 -96 396 -96 z m 739 478 l 739 478 q 925 715 815 603 l 925 715 q 1138 851 1057 851 l 1138 851 q 1174 842 1158 851 l 1174 842 q 1149 890 1172 868 q 1092 924 1125 911 q 1031 938 1060 936 l 1031 938 q 836 896 939 942 l 836 896 q 692 778 749 857 q 636 597 636 700 l 636 597 q 739 478 636 497 z m 1208 1197 l 1208 1197 q 1267 1174 1249 1197 q 1283 1113 1286 1151 l 1283 1113 q 1276 1078 1282 1096 q 1257 1061 1271 1061 l 1257 1061 q 1244 1070 1247 1061 q 1242 1088 1242 1079 l 1242 1088 q 1183 1143 1238 1143 l 1183 1143 q 1110 1128 1147 1143 q 1039 1085 1072 1113 l 1039 1085 q 1001 1061 1010 1061 l 1001 1061 q 994 1067 994 1061 l 994 1067 q 1003 1080 994 1069 q 1033 1113 1011 1090 l 1033 1113 q 1113 1172 1067 1146 q 1208 1197 1160 1197 z "},"Ī":{"ha":800,"x_min":29,"x_max":1258,"o":"m 246 -96 l 246 -96 q 29 160 29 -96 l 29 160 q 142 500 29 371 l 142 500 q 358 611 236 611 l 358 611 q 466 575 426 611 q 506 471 506 539 l 506 471 q 422 251 506 363 l 422 251 q 247 136 336 136 l 247 136 q 172 167 196 136 q 147 240 147 197 l 147 240 q 158 301 147 268 l 158 301 q 190 342 174 342 l 190 342 q 203 329 203 342 l 203 329 q 190 293 203 322 l 190 293 q 181 250 181 272 l 181 250 q 199 203 181 221 q 249 186 218 186 l 249 186 q 403 290 331 186 l 403 290 q 471 483 471 388 l 471 483 q 447 560 471 533 q 381 588 422 588 l 381 588 q 183 451 282 588 l 183 451 q 88 131 82 306 l 88 131 q 130 -1 90 53 q 236 -56 169 -56 l 236 -56 q 715 443 424 -56 l 715 443 q 563 624 563 489 l 563 624 q 611 787 563 714 q 744 910 660 860 l 744 910 q 969 976 860 976 l 969 976 q 1085 962 1029 976 q 1179 916 1142 947 q 1217 835 1217 885 l 1217 835 q 1209 803 1217 818 q 1193 788 1201 788 l 1193 788 q 1181 797 1194 788 q 1150 806 1167 806 l 1150 806 q 826 454 1032 806 l 826 454 q 838 453 832 453 q 849 453 843 453 l 849 453 q 916 465 883 453 q 970 500 949 478 q 992 550 992 522 l 992 550 q 987 573 992 561 q 982 588 982 585 l 982 588 q 993 599 982 599 l 993 599 q 1004 594 999 599 l 1004 594 q 1036 536 1036 571 l 1036 536 q 1010 475 1036 501 q 942 434 983 449 q 860 419 901 419 l 860 419 q 813 424 836 419 l 813 424 q 579 99 717 247 l 579 99 q 246 -96 396 -96 z m 739 478 l 739 478 q 925 715 815 603 l 925 715 q 1138 851 1057 851 l 1138 851 q 1174 842 1158 851 l 1174 842 q 1149 890 1172 868 q 1092 924 1125 911 q 1031 938 1060 936 l 1031 938 q 836 896 939 942 l 836 896 q 692 778 749 857 q 636 597 636 700 l 636 597 q 739 478 636 497 z m 999 1044 l 999 1044 q 981 1060 992 1044 q 969 1085 971 1076 l 969 1085 l 972 1086 q 1020 1094 986 1093 q 1107 1096 1054 1096 l 1107 1096 q 1254 1079 1221 1096 l 1254 1079 q 1258 1075 1258 1078 l 1258 1075 q 1256 1067 1258 1072 q 1250 1061 1254 1061 l 1250 1061 q 1124 1053 1207 1061 l 1124 1053 q 999 1044 1040 1044 z "},"Į":{"ha":800,"x_min":29,"x_max":1217,"o":"m 246 -96 l 246 -96 q 29 160 29 -96 l 29 160 q 142 500 29 371 l 142 500 q 358 611 236 611 l 358 611 q 466 575 426 611 q 506 471 506 539 l 506 471 q 422 251 506 363 l 422 251 q 247 136 336 136 l 247 136 q 172 167 196 136 q 147 240 147 197 l 147 240 q 158 301 147 268 l 158 301 q 190 342 174 342 l 190 342 q 203 329 203 342 l 203 329 q 190 293 203 322 l 190 293 q 181 250 181 272 l 181 250 q 199 203 181 221 q 249 186 218 186 l 249 186 q 403 290 331 186 l 403 290 q 471 483 471 388 l 471 483 q 447 560 471 533 q 381 588 422 588 l 381 588 q 183 451 282 588 l 183 451 q 88 131 82 306 l 88 131 q 130 -1 90 53 q 236 -56 169 -56 l 236 -56 q 715 443 424 -56 l 715 443 q 563 624 563 489 l 563 624 q 611 787 563 714 q 744 910 660 860 l 744 910 q 969 976 860 976 l 969 976 q 1085 962 1029 976 q 1179 916 1142 947 q 1217 835 1217 885 l 1217 835 q 1209 803 1217 818 q 1193 788 1201 788 l 1193 788 q 1181 797 1194 788 q 1150 806 1167 806 l 1150 806 q 826 454 1032 806 l 826 454 q 838 453 832 453 q 849 453 843 453 l 849 453 q 916 465 883 453 q 970 500 949 478 q 992 550 992 522 l 992 550 q 987 573 992 561 q 982 588 982 585 l 982 588 q 993 599 982 599 l 993 599 q 1004 594 999 599 l 1004 594 q 1036 536 1036 571 l 1036 536 q 1010 475 1036 501 q 942 434 983 449 q 860 419 901 419 l 860 419 q 813 424 836 419 l 813 424 q 579 99 717 247 l 579 99 q 246 -96 396 -96 z m 739 478 l 739 478 q 925 715 815 603 l 925 715 q 1138 851 1057 851 l 1138 851 q 1174 842 1158 851 l 1174 842 q 1149 890 1172 868 q 1092 924 1125 911 q 1031 938 1060 936 l 1031 938 q 836 896 939 942 l 836 896 q 692 778 749 857 q 636 597 636 700 l 636 597 q 739 478 636 497 z m 310 -228 l 310 -228 q 243 -290 310 -268 l 243 -290 q 194 -303 215 -300 q 160 -306 174 -306 l 160 -306 q 83 -247 83 -306 l 83 -247 q 110 -151 83 -210 l 110 -151 q 171 -83 140 -85 l 171 -83 l 175 -87 q 128 -210 128 -153 l 128 -210 q 190 -267 128 -267 l 190 -267 q 259 -251 222 -267 q 310 -228 296 -236 z "},"Ĩ":{"ha":800,"x_min":29,"x_max":1281,"o":"m 246 -96 l 246 -96 q 29 160 29 -96 l 29 160 q 142 500 29 371 l 142 500 q 358 611 236 611 l 358 611 q 466 575 426 611 q 506 471 506 539 l 506 471 q 422 251 506 363 l 422 251 q 247 136 336 136 l 247 136 q 172 167 196 136 q 147 240 147 197 l 147 240 q 158 301 147 268 l 158 301 q 190 342 174 342 l 190 342 q 203 329 203 342 l 203 329 q 190 293 203 322 l 190 293 q 181 250 181 272 l 181 250 q 199 203 181 221 q 249 186 218 186 l 249 186 q 403 290 331 186 l 403 290 q 471 483 471 388 l 471 483 q 447 560 471 533 q 381 588 422 588 l 381 588 q 183 451 282 588 l 183 451 q 88 131 82 306 l 88 131 q 130 -1 90 53 q 236 -56 169 -56 l 236 -56 q 715 443 424 -56 l 715 443 q 563 624 563 489 l 563 624 q 611 787 563 714 q 744 910 660 860 l 744 910 q 969 976 860 976 l 969 976 q 1085 962 1029 976 q 1179 916 1142 947 q 1217 835 1217 885 l 1217 835 q 1209 803 1217 818 q 1193 788 1201 788 l 1193 788 q 1181 797 1194 788 q 1150 806 1167 806 l 1150 806 q 826 454 1032 806 l 826 454 q 838 453 832 453 q 849 453 843 453 l 849 453 q 916 465 883 453 q 970 500 949 478 q 992 550 992 522 l 992 550 q 987 573 992 561 q 982 588 982 585 l 982 588 q 993 599 982 599 l 993 599 q 1004 594 999 599 l 1004 594 q 1036 536 1036 571 l 1036 536 q 1010 475 1036 501 q 942 434 983 449 q 860 419 901 419 l 860 419 q 813 424 836 419 l 813 424 q 579 99 717 247 l 579 99 q 246 -96 396 -96 z m 739 478 l 739 478 q 925 715 815 603 l 925 715 q 1138 851 1057 851 l 1138 851 q 1174 842 1158 851 l 1174 842 q 1149 890 1172 868 q 1092 924 1125 911 q 1031 938 1060 936 l 1031 938 q 836 896 939 942 l 836 896 q 692 778 749 857 q 636 597 636 700 l 636 597 q 739 478 636 497 z m 1193 1042 l 1193 1042 q 1165 1047 1182 1042 q 1126 1061 1149 1051 l 1126 1061 q 1064 1082 1085 1082 l 1064 1082 q 1042 1078 1054 1082 q 1019 1063 1031 1074 l 1019 1063 q 992 1043 1000 1043 l 992 1043 q 990 1046 990 1044 l 990 1046 q 1047 1108 990 1069 l 1047 1108 q 1094 1124 1067 1124 l 1094 1124 q 1157 1107 1115 1124 l 1157 1107 q 1193 1095 1178 1099 q 1218 1092 1208 1092 l 1218 1092 q 1274 1124 1249 1092 l 1274 1124 q 1281 1118 1281 1124 l 1281 1118 q 1229 1054 1281 1093 l 1229 1054 q 1193 1042 1213 1042 z "},"J":{"ha":1142,"x_min":54,"x_max":1549,"o":"m 308 -181 l 308 -181 q 124 -122 193 -181 q 54 40 54 -62 l 54 40 q 85 167 54 110 l 85 167 q 190 306 124 243 q 335 408 257 369 q 488 447 414 447 l 488 447 q 635 403 582 447 q 689 286 689 358 l 689 286 q 673 211 689 247 q 633 150 657 175 l 633 150 q 578 111 599 111 l 578 111 q 572 117 572 111 l 572 117 q 576 129 572 121 l 576 129 q 626 271 626 203 l 626 271 q 588 372 626 332 q 483 413 549 413 l 483 413 q 358 376 421 413 q 244 280 296 339 q 158 153 192 221 l 158 153 q 124 21 124 85 l 124 21 q 178 -108 124 -64 q 322 -151 233 -151 l 322 -151 q 1061 468 676 -151 l 1061 468 q 1297 921 1292 838 l 1297 921 l 1215 925 q 1136 917 1182 926 q 1044 892 1090 908 q 962 851 999 875 q 910 800 925 828 l 910 800 q 897 760 897 779 l 897 760 q 924 699 897 729 l 924 699 q 950 663 950 668 l 950 663 q 933 653 950 656 l 933 653 q 922 651 929 651 l 922 651 q 867 678 893 651 l 867 678 q 836 751 836 708 l 836 751 q 861 824 836 790 l 861 824 q 958 899 896 871 q 1091 938 1019 926 q 1226 949 1163 950 l 1226 949 q 1294 944 1239 949 l 1294 944 q 1309 978 1292 963 q 1349 994 1326 994 l 1349 994 q 1389 935 1390 994 l 1389 935 q 1547 854 1539 908 l 1547 854 q 1549 843 1549 849 q 1549 833 1549 838 l 1549 833 q 1533 806 1549 806 l 1533 806 q 1521 824 1521 806 l 1521 824 q 1521 831 1521 826 q 1522 839 1521 835 l 1522 839 q 1385 911 1488 890 l 1385 911 q 1124 422 1360 799 l 1124 422 q 957 199 1051 307 q 756 6 863 92 q 535 -131 649 -81 q 308 -181 421 -181 z "}}}
